<?xml version="1.0" encoding="UTF-8"?>
<svg width="60px" height="53px" viewBox="0 0 60 53" version="1.1" xmlns="http://www.w3.org/2000/svg" xmlns:xlink="http://www.w3.org/1999/xlink">
    <!-- Generator: Sketch 61 (89581) - https://sketch.com -->
    <title>icon-age-1</title>
    <desc>Created with Sketch.</desc>
    <g id="icon-age-1" stroke="none" stroke-width="1" fill="none" fill-rule="evenodd">
        <g id="Group-25">
            <path d="M43.1006,2.3388 L17.1226,2.3388 C16.4826,2.3388 15.8866,2.6828 15.5676,3.2368 L2.5786,25.7348 C2.2586,26.2878 2.2586,26.9758 2.5786,27.5298 L15.5676,50.0278 C15.8866,50.5818 16.4826,50.9258 17.1226,50.9258 L43.1006,50.9258 C43.7396,50.9258 44.3356,50.5818 44.6556,50.0278 L57.6446,27.5298 C57.9646,26.9768 57.9646,26.2878 57.6446,25.7348 L44.6556,3.2368 C44.3356,2.6828 43.7406,2.3388 43.1006,2.3388" id="Fill-1" fill="#FEFEFE"></path>
            <path d="M43.1006,1.5592 L17.1226,1.5592 C16.2046,1.5592 15.3506,2.0532 14.8916,2.8472 L1.9036,25.3442 C1.4446,26.1392 1.4446,27.1252 1.9036,27.9202 L14.8926,50.4172 C15.3506,51.2112 16.2056,51.7052 17.1226,51.7052 L43.1006,51.7052 C44.0176,51.7052 44.8726,51.2122 45.3306,50.4172 L58.3196,27.9202 C58.7786,27.1252 58.7786,26.1392 58.3206,25.3452 L45.3306,2.8472 C44.8726,2.0522 44.0176,1.5592 43.1006,1.5592" id="Stroke-3" stroke="#FEFEFE" stroke-width="3.118" stroke-linejoin="round"></path>
            <path d="M43.1006,2.3388 L17.1226,2.3388 C16.4826,2.3388 15.8866,2.6828 15.5676,3.2368 L2.5786,25.7348 C2.2586,26.2878 2.2586,26.9758 2.5786,27.5298 L15.5676,50.0278 C15.8866,50.5818 16.4826,50.9258 17.1226,50.9258 L43.1006,50.9258 C43.7396,50.9258 44.3356,50.5818 44.6556,50.0278 L57.6446,27.5298 C57.9646,26.9768 57.9646,26.2878 57.6446,25.7348 L44.6556,3.2368 C44.3356,2.6828 43.7406,2.3388 43.1006,2.3388" id="Stroke-5" stroke="#E66879" stroke-width="1.559" stroke-linejoin="round"></path>
            <path d="M43.1006,0.2604 L17.1226,0.2604 C15.7426,0.2604 14.4566,1.0034 13.7666,2.1984 L0.7786,24.6954 C0.0886,25.8904 0.0886,27.3744 0.7786,28.5694 L13.7676,51.0674 C14.4566,52.2614 15.7426,53.0044 17.1226,53.0044 L43.1006,53.0044 C44.4806,53.0044 45.7656,52.2614 46.4556,51.0674 L59.4446,28.5694 C60.1346,27.3744 60.1346,25.8904 59.4456,24.6964 L46.4556,2.1974 C45.7656,1.0024 44.4806,0.2604 43.1006,0.2604" id="Stroke-7" stroke="#E66879" stroke-width="0.521" stroke-linejoin="round"></path>
            <path d="M27.387,19.7394 C27.128,19.7394 26.919,19.9494 26.919,20.2074 L26.919,20.7434 C26.919,21.0024 27.128,21.2114 27.387,21.2114 C27.646,21.2114 27.855,21.0024 27.855,20.7434 L27.855,20.2074 C27.855,19.9494 27.646,19.7394 27.387,19.7394" id="Fill-9" fill="#E66879"></path>
            <path d="M27.387,19.7394 C27.128,19.7394 26.919,19.9494 26.919,20.2074 L26.919,20.7434 C26.919,21.0024 27.128,21.2114 27.387,21.2114 C27.646,21.2114 27.855,21.0024 27.855,20.7434 L27.855,20.2074 C27.855,19.9494 27.646,19.7394 27.387,19.7394 Z" id="Stroke-11" stroke="#FEFEFE" stroke-width="0.15"></path>
            <path d="M32.739,19.7394 C32.48,19.7394 32.271,19.9494 32.271,20.2074 L32.271,20.7434 C32.271,21.0024 32.48,21.2114 32.739,21.2114 C32.998,21.2114 33.207,21.0024 33.207,20.7434 L33.207,20.2074 C33.207,19.9494 32.998,19.7394 32.739,19.7394" id="Fill-13" fill="#E66879"></path>
            <path d="M32.739,19.7394 C32.48,19.7394 32.271,19.9494 32.271,20.2074 L32.271,20.7434 C32.271,21.0024 32.48,21.2114 32.739,21.2114 C32.998,21.2114 33.207,21.0024 33.207,20.7434 L33.207,20.2074 C33.207,19.9494 32.998,19.7394 32.739,19.7394 Z" id="Stroke-15" stroke="#FEFEFE" stroke-width="0.15"></path>
            <path d="M32.0305,23.1216 C31.8665,22.9216 31.5705,22.8926 31.3715,23.0576 C31.0395,23.3296 30.5635,23.4856 30.0635,23.4856 C29.5635,23.4856 29.0865,23.3296 28.7545,23.0576 C28.5545,22.8926 28.2595,22.9216 28.0955,23.1216 C27.9315,23.3216 27.9595,23.6166 28.1595,23.7806 C28.6635,24.1946 29.3395,24.4226 30.0635,24.4226 C30.7865,24.4226 31.4625,24.1946 31.9665,23.7806 C32.1655,23.6166 32.1945,23.3216 32.0305,23.1216" id="Fill-17" fill="#E66879"></path>
            <path d="M32.0305,23.1216 C31.8665,22.9216 31.5705,22.8926 31.3715,23.0576 C31.0395,23.3296 30.5635,23.4856 30.0635,23.4856 C29.5635,23.4856 29.0865,23.3296 28.7545,23.0576 C28.5545,22.8926 28.2595,22.9216 28.0955,23.1216 C27.9315,23.3216 27.9595,23.6166 28.1595,23.7806 C28.6635,24.1946 29.3395,24.4226 30.0635,24.4226 C30.7865,24.4226 31.4625,24.1946 31.9665,23.7806 C32.1655,23.6166 32.1945,23.3216 32.0305,23.1216 Z" id="Stroke-19" stroke="#FEFEFE" stroke-width="0.15"></path>
            <path d="M36.3841,29.9388 L32.6721,28.4538 L32.6721,27.0728 C34.7441,26.1368 36.2281,24.1208 36.4021,21.7468 L36.4851,21.7468 C37.3341,21.7468 38.0241,21.0568 38.0241,20.2078 C38.0241,19.5228 37.5741,18.9408 36.9541,18.7418 L36.9541,16.9968 C36.9541,13.4918 34.1031,10.6408 30.5981,10.6408 L29.5281,10.6408 C26.1811,10.6408 23.4301,13.2418 23.1891,16.5288 L19.3591,16.5288 C19.1001,16.5288 18.8901,16.7378 18.8901,16.9968 C18.8901,17.2558 19.1001,17.4648 19.3591,17.4648 L23.1721,17.4648 L23.1721,18.7418 C22.5521,18.9408 22.1011,19.5228 22.1011,20.2078 C22.1011,21.0568 22.7921,21.7468 23.6401,21.7468 L23.7241,21.7468 C23.8981,24.1208 25.3821,26.1368 27.4541,27.0728 L27.4541,28.4538 L23.7421,29.9388 C22.7451,30.3378 22.1011,31.2888 22.1011,32.3618 L22.1011,35.1938 C22.1011,35.5778 22.3191,35.9118 22.6371,36.0808 L22.6371,42.1518 C22.6371,42.4098 22.8461,42.6198 23.1051,42.6198 C23.3641,42.6198 23.5741,42.4098 23.5741,42.1518 L23.5741,36.1978 L25.3131,36.1978 L25.3131,42.1518 C25.3131,42.4098 25.5221,42.6198 25.7811,42.6198 C26.0401,42.6198 26.2501,42.4098 26.2501,42.1518 L26.2501,34.1228 C26.2501,34.0308 26.2221,33.9408 26.1711,33.8638 L25.1001,32.2578 C24.9571,32.0428 24.6661,31.9838 24.4511,32.1278 C24.2361,32.2718 24.1771,32.5628 24.3211,32.7778 L25.3131,34.2658 L25.3131,35.2608 L23.1051,35.2608 C23.0681,35.2608 23.0381,35.2308 23.0381,35.1938 L23.0381,32.3618 C23.0381,31.6738 23.4511,31.0648 24.0901,30.8088 L27.4591,29.4608 C27.5391,30.8278 28.6761,31.9158 30.0631,31.9158 C31.4501,31.9158 32.5871,30.8278 32.6671,29.4608 L36.0361,30.8088 C36.6751,31.0648 37.0871,31.6738 37.0871,32.3618 L37.0871,35.1938 C37.0871,35.2308 37.0571,35.2608 37.0211,35.2608 L34.8131,35.2608 L34.8131,34.2658 L35.8051,32.7778 C35.9481,32.5628 35.8901,32.2718 35.6751,32.1278 C35.4591,31.9838 35.1691,32.0428 35.0251,32.2578 L33.9551,33.8638 C33.9031,33.9408 33.8761,34.0308 33.8761,34.1228 L33.8761,42.1518 C33.8761,42.4098 34.0861,42.6198 34.3451,42.6198 C34.6031,42.6198 34.8131,42.4098 34.8131,42.1518 L34.8131,36.1978 L36.5521,36.1978 L36.5521,42.1518 C36.5521,42.4098 36.7621,42.6198 37.0211,42.6198 C37.2791,42.6198 37.4891,42.4098 37.4891,42.1518 L37.4891,36.0808 C37.8071,35.9118 38.0241,35.5778 38.0241,35.1938 L38.0241,32.3618 C38.0241,31.2888 37.3801,30.3368 36.3841,29.9388 L36.3841,29.9388 Z M29.5281,11.5778 L30.5981,11.5778 C33.4281,11.5778 35.7591,13.7588 35.9971,16.5288 L24.1291,16.5288 C24.3671,13.7588 26.6971,11.5778 29.5281,11.5778 L29.5281,11.5778 Z M36.0171,17.4648 L36.0171,18.6688 L35.7151,18.6688 C35.4391,18.6688 35.1991,18.4818 35.1321,18.2128 L34.9441,17.4648 L36.0171,17.4648 Z M24.1091,17.4648 L25.1811,17.4648 L24.9941,18.2128 C24.9271,18.4818 24.6871,18.6688 24.4101,18.6688 L24.1091,18.6688 L24.1091,17.4648 Z M31.7351,28.7798 L31.7351,28.7808 L31.7351,29.3068 C31.7351,30.2288 30.9851,30.9788 30.0631,30.9788 C29.1411,30.9788 28.3911,30.2288 28.3911,29.3068 L28.3911,28.7808 L28.3911,28.7798 L28.3911,27.4108 C28.9231,27.5558 29.4841,27.6338 30.0631,27.6338 C30.6411,27.6338 31.2021,27.5558 31.7351,27.4108 L31.7351,28.7798 Z M30.0631,26.6968 C27.0751,26.6968 24.6441,24.2668 24.6441,21.2788 C24.6441,21.0198 24.4341,20.8098 24.1761,20.8098 L23.6401,20.8098 C23.3081,20.8098 23.0381,20.5398 23.0381,20.2078 C23.0381,19.8758 23.3081,19.6058 23.6401,19.6058 L24.4101,19.6058 C25.1181,19.6058 25.7321,19.1268 25.9031,18.4398 L26.1471,17.4648 L33.9791,17.4648 L34.2231,18.4398 C34.3941,19.1268 35.0081,19.6058 35.7151,19.6058 L36.4851,19.6058 C36.8171,19.6058 37.0871,19.8758 37.0871,20.2078 C37.0871,20.5398 36.8171,20.8098 36.4851,20.8098 L35.9501,20.8098 C35.6911,20.8098 35.4821,21.0198 35.4821,21.2788 C35.4821,24.2668 33.0511,26.6968 30.0631,26.6968 L30.0631,26.6968 Z" id="Fill-21" fill="#E66879"></path>
            <path d="M36.3841,29.9388 L32.6721,28.4538 L32.6721,27.0728 C34.7441,26.1368 36.2281,24.1208 36.4021,21.7468 L36.4851,21.7468 C37.3341,21.7468 38.0241,21.0568 38.0241,20.2078 C38.0241,19.5228 37.5741,18.9408 36.9541,18.7418 L36.9541,16.9968 C36.9541,13.4918 34.1031,10.6408 30.5981,10.6408 L29.5281,10.6408 C26.1811,10.6408 23.4301,13.2418 23.1891,16.5288 L19.3591,16.5288 C19.1001,16.5288 18.8901,16.7378 18.8901,16.9968 C18.8901,17.2558 19.1001,17.4648 19.3591,17.4648 L23.1721,17.4648 L23.1721,18.7418 C22.5521,18.9408 22.1011,19.5228 22.1011,20.2078 C22.1011,21.0568 22.7921,21.7468 23.6401,21.7468 L23.7241,21.7468 C23.8981,24.1208 25.3821,26.1368 27.4541,27.0728 L27.4541,28.4538 L23.7421,29.9388 C22.7451,30.3378 22.1011,31.2888 22.1011,32.3618 L22.1011,35.1938 C22.1011,35.5778 22.3191,35.9118 22.6371,36.0808 L22.6371,42.1518 C22.6371,42.4098 22.8461,42.6198 23.1051,42.6198 C23.3641,42.6198 23.5741,42.4098 23.5741,42.1518 L23.5741,36.1978 L25.3131,36.1978 L25.3131,42.1518 C25.3131,42.4098 25.5221,42.6198 25.7811,42.6198 C26.0401,42.6198 26.2501,42.4098 26.2501,42.1518 L26.2501,34.1228 C26.2501,34.0308 26.2221,33.9408 26.1711,33.8638 L25.1001,32.2578 C24.9571,32.0428 24.6661,31.9838 24.4511,32.1278 C24.2361,32.2718 24.1771,32.5628 24.3211,32.7778 L25.3131,34.2658 L25.3131,35.2608 L23.1051,35.2608 C23.0681,35.2608 23.0381,35.2308 23.0381,35.1938 L23.0381,32.3618 C23.0381,31.6738 23.4511,31.0648 24.0901,30.8088 L27.4591,29.4608 C27.5391,30.8278 28.6761,31.9158 30.0631,31.9158 C31.4501,31.9158 32.5871,30.8278 32.6671,29.4608 L36.0361,30.8088 C36.6751,31.0648 37.0871,31.6738 37.0871,32.3618 L37.0871,35.1938 C37.0871,35.2308 37.0571,35.2608 37.0211,35.2608 L34.8131,35.2608 L34.8131,34.2658 L35.8051,32.7778 C35.9481,32.5628 35.8901,32.2718 35.6751,32.1278 C35.4591,31.9838 35.1691,32.0428 35.0251,32.2578 L33.9551,33.8638 C33.9031,33.9408 33.8761,34.0308 33.8761,34.1228 L33.8761,42.1518 C33.8761,42.4098 34.0861,42.6198 34.3451,42.6198 C34.6031,42.6198 34.8131,42.4098 34.8131,42.1518 L34.8131,36.1978 L36.5521,36.1978 L36.5521,42.1518 C36.5521,42.4098 36.7621,42.6198 37.0211,42.6198 C37.2791,42.6198 37.4891,42.4098 37.4891,42.1518 L37.4891,36.0808 C37.8071,35.9118 38.0241,35.5778 38.0241,35.1938 L38.0241,32.3618 C38.0241,31.2888 37.3801,30.3368 36.3841,29.9388 Z M29.5281,11.5778 L30.5981,11.5778 C33.4281,11.5778 35.7591,13.7588 35.9971,16.5288 L24.1291,16.5288 C24.3671,13.7588 26.6971,11.5778 29.5281,11.5778 Z M36.0171,17.4648 L36.0171,18.6688 L35.7151,18.6688 C35.4391,18.6688 35.1991,18.4818 35.1321,18.2128 L34.9441,17.4648 L36.0171,17.4648 Z M24.1091,17.4648 L25.1811,17.4648 L24.9941,18.2128 C24.9271,18.4818 24.6871,18.6688 24.4101,18.6688 L24.1091,18.6688 L24.1091,17.4648 Z M31.7351,28.7798 L31.7351,28.7808 L31.7351,29.3068 C31.7351,30.2288 30.9851,30.9788 30.0631,30.9788 C29.1411,30.9788 28.3911,30.2288 28.3911,29.3068 L28.3911,28.7808 L28.3911,28.7798 L28.3911,27.4108 C28.9231,27.5558 29.4841,27.6338 30.0631,27.6338 C30.6411,27.6338 31.2021,27.5558 31.7351,27.4108 L31.7351,28.7798 Z M30.0631,26.6968 C27.0751,26.6968 24.6441,24.2668 24.6441,21.2788 C24.6441,21.0198 24.4341,20.8098 24.1761,20.8098 L23.6401,20.8098 C23.3081,20.8098 23.0381,20.5398 23.0381,20.2078 C23.0381,19.8758 23.3081,19.6058 23.6401,19.6058 L24.4101,19.6058 C25.1181,19.6058 25.7321,19.1268 25.9031,18.4398 L26.1471,17.4648 L33.9791,17.4648 L34.2231,18.4398 C34.3941,19.1268 35.0081,19.6058 35.7151,19.6058 L36.4851,19.6058 C36.8171,19.6058 37.0871,19.8758 37.0871,20.2078 C37.0871,20.5398 36.8171,20.8098 36.4851,20.8098 L35.9501,20.8098 C35.6911,20.8098 35.4821,21.0198 35.4821,21.2788 C35.4821,24.2668 33.0511,26.6968 30.0631,26.6968 Z" id="Stroke-23" stroke="#FEFEFE" stroke-width="0.15"></path>
        </g>
    </g>
</svg>