<?xml version="1.0" encoding="UTF-8"?>
<svg width="60px" height="53px" viewBox="0 0 60 53" version="1.1" xmlns="http://www.w3.org/2000/svg" xmlns:xlink="http://www.w3.org/1999/xlink">
    <!-- Generator: Sketch 61 (89581) - https://sketch.com -->
    <title>icon-kinderwagen</title>
    <desc>Created with Sketch.</desc>
    <g id="icon-kinderwagen" stroke="none" stroke-width="1" fill="none" fill-rule="evenodd">
        <g id="Group-28">
            <g id="Group-9" transform="translate(0.000000, 0.264400)">
                <path d="M43.1006,2.0744 L17.1226,2.0744 C16.4826,2.0744 15.8866,2.4184 15.5676,2.9724 L2.5786,25.4704 C2.2586,26.0234 2.2586,26.7114 2.5786,27.2654 L15.5676,49.7634 C15.8866,50.3174 16.4826,50.6614 17.1226,50.6614 L43.1006,50.6614 C43.7396,50.6614 44.3356,50.3174 44.6556,49.7634 L57.6446,27.2654 C57.9646,26.7124 57.9646,26.0234 57.6446,25.4704 L44.6556,2.9724 C44.3356,2.4184 43.7406,2.0744 43.1006,2.0744" id="Fill-1" fill="#FEFEFE"></path>
                <path d="M43.1006,1.2948 L17.1226,1.2948 C16.2046,1.2948 15.3506,1.7888 14.8916,2.5828 L1.9036,25.0798 C1.4446,25.8748 1.4446,26.8608 1.9036,27.6558 L14.8926,50.1528 C15.3506,50.9468 16.2056,51.4408 17.1226,51.4408 L43.1006,51.4408 C44.0176,51.4408 44.8726,50.9478 45.3306,50.1528 L58.3196,27.6558 C58.7786,26.8608 58.7786,25.8748 58.3206,25.0808 L45.3306,2.5828 C44.8726,1.7878 44.0176,1.2948 43.1006,1.2948" id="Stroke-3" stroke="#FEFEFE" stroke-width="3.118" stroke-linejoin="round"></path>
                <path d="M43.1006,2.0744 L17.1226,2.0744 C16.4826,2.0744 15.8866,2.4184 15.5676,2.9724 L2.5786,25.4704 C2.2586,26.0234 2.2586,26.7114 2.5786,27.2654 L15.5676,49.7634 C15.8866,50.3174 16.4826,50.6614 17.1226,50.6614 L43.1006,50.6614 C43.7396,50.6614 44.3356,50.3174 44.6556,49.7634 L57.6446,27.2654 C57.9646,26.7124 57.9646,26.0234 57.6446,25.4704 L44.6556,2.9724 C44.3356,2.4184 43.7406,2.0744 43.1006,2.0744" id="Stroke-5" stroke="#79C5B9" stroke-width="1.559" stroke-linejoin="round"></path>
                <path d="M43.1006,-0.004 L17.1226,-0.004 C15.7426,-0.004 14.4566,0.739 13.7666,1.934 L0.7786,24.431 C0.0886,25.626 0.0886,27.11 0.7786,28.305 L13.7676,50.803 C14.4566,51.997 15.7426,52.74 17.1226,52.74 L43.1006,52.74 C44.4806,52.74 45.7656,51.997 46.4556,50.803 L59.4446,28.305 C60.1346,27.11 60.1346,25.626 59.4456,24.432 L46.4556,1.933 C45.7656,0.738 44.4806,-0.004 43.1006,-0.004" id="Stroke-7" stroke="#79C5B9" stroke-width="0.521" stroke-linejoin="round"></path>
            </g>
            <line x1="41.6239" y1="16.7956" x2="39.7679" y2="21.0386" id="Stroke-10" stroke="#FEFEFE" stroke-width="1.871" stroke-linecap="round"></line>
            <g id="Group-27" transform="translate(12.000000, 11.264400)">
                <path d="M25.221,26.7256 C25.555,26.7256 25.826,26.4546 25.826,26.1206 C25.826,25.7876 25.555,25.5166 25.221,25.5166 C24.887,25.5166 24.616,25.7876 24.616,26.1206 C24.616,26.4546 24.887,26.7256 25.221,26.7256" id="Fill-11" fill="#79C5B9"></path>
                <path d="M25.221,26.7256 C25.555,26.7256 25.826,26.4546 25.826,26.1206 C25.826,25.7876 25.555,25.5166 25.221,25.5166 C24.887,25.5166 24.616,25.7876 24.616,26.1206 C24.616,26.4546 24.887,26.7256 25.221,26.7256 Z" id="Stroke-13" stroke="#FEFEFE" stroke-width="0.25"></path>
                <path d="M13.1267,25.5162 C12.7927,25.5162 12.5217,25.7872 12.5217,26.1212 C12.5217,26.4542 12.7927,26.7252 13.1267,26.7252 C13.4607,26.7252 13.7317,26.4542 13.7317,26.1212 C13.7317,25.7872 13.4607,25.5162 13.1267,25.5162" id="Fill-15" fill="#79C5B9"></path>
                <path d="M13.1267,25.5162 C12.7927,25.5162 12.5217,25.7872 12.5217,26.1212 C12.5217,26.4542 12.7927,26.7252 13.1267,26.7252 C13.4607,26.7252 13.7317,26.4542 13.7317,26.1212 C13.7317,25.7872 13.4607,25.5162 13.1267,25.5162 Z" id="Stroke-17" stroke="#FEFEFE" stroke-width="0.25"></path>
                <path d="M0.9115,6.77 C1.9115,6.77 2.7255,7.584 2.7255,8.584 L2.7255,11.003 C2.7255,12.003 3.5395,12.817 4.5395,12.817 L6.3535,12.817 L6.3535,13.422 C6.3535,16.423 8.7955,18.864 11.7965,18.864 L13.9365,18.864 C14.5525,19.935 15.4615,20.769 16.5345,21.287 C15.7915,21.648 15.1235,22.159 14.5775,22.796 C14.1325,22.601 13.6425,22.493 13.1265,22.493 C11.1255,22.493 9.4985,24.12 9.4985,26.121 C9.4985,28.121 11.1255,29.749 13.1265,29.749 C15.1275,29.749 16.7555,28.121 16.7555,26.121 C16.7555,25.074 16.3095,24.13 15.5975,23.467 C16.5095,22.47 17.8085,21.888 19.1735,21.888 C20.5385,21.888 21.8385,22.47 22.7495,23.467 C22.0385,24.13 21.5925,25.074 21.5925,26.121 C21.5925,28.121 23.2205,29.749 25.2215,29.749 C27.2215,29.749 28.8495,28.121 28.8495,26.121 C28.8495,24.12 27.2215,22.493 25.2215,22.493 C24.7055,22.493 24.2145,22.601 23.7705,22.796 C23.2245,22.159 22.5555,21.648 21.8135,21.288 C22.8865,20.769 23.7945,19.935 24.4115,18.864 L25.8255,18.864 C28.8265,18.864 31.2685,16.423 31.2685,13.422 L31.2685,12.212 C31.2685,6.544 26.6565,1.932 20.9885,1.932 L20.2795,1.932 C20.0295,1.228 19.3575,0.723 18.5695,0.723 C17.5685,0.723 16.7555,1.537 16.7555,2.537 L16.7555,9.189 L13.3085,9.189 C12.9745,9.189 12.7035,9.46 12.7035,9.794 C12.7035,10.128 12.9745,10.398 13.3085,10.398 L16.7555,10.398 L16.7555,11.608 L6.9585,11.608 C6.6255,11.608 6.3535,11.337 6.3535,11.003 C6.3535,10.669 6.6255,10.398 6.9585,10.398 L8.4705,10.398 C8.8045,10.398 9.0755,10.128 9.0755,9.794 C9.0755,9.46 8.8045,9.189 8.4705,9.189 L6.9585,9.189 C5.9585,9.189 5.1445,10.003 5.1445,11.003 C5.1445,11.215 5.1815,11.419 5.2485,11.608 L4.5395,11.608 C4.2065,11.608 3.9355,11.337 3.9355,11.003 L3.9355,8.584 C3.9355,6.917 2.5785,5.561 0.9115,5.561 C0.5775,5.561 0.3065,5.831 0.3065,6.165 C0.3065,6.499 0.5775,6.77 0.9115,6.77 L0.9115,6.77 Z M13.1265,28.54 C11.7935,28.54 10.7075,27.455 10.7075,26.121 C10.7075,24.787 11.7935,23.702 13.1265,23.702 C14.4605,23.702 15.5455,24.787 15.5455,26.121 C15.5455,27.455 14.4605,28.54 13.1265,28.54 L13.1265,28.54 Z M27.6395,26.121 C27.6395,27.455 26.5545,28.54 25.2215,28.54 C23.8875,28.54 22.8025,27.455 22.8025,26.121 C22.8025,24.787 23.8875,23.702 25.2215,23.702 C26.5545,23.702 27.6395,24.787 27.6395,26.121 L27.6395,26.121 Z M19.1735,20.678 C17.6755,20.678 16.3005,20.002 15.3945,18.864 L22.9535,18.864 C22.0475,20.002 20.6725,20.678 19.1735,20.678 L19.1735,20.678 Z M25.8255,17.655 L11.7965,17.655 C9.4625,17.655 7.5635,15.756 7.5635,13.422 L7.5635,12.817 L30.0585,12.817 L30.0585,13.422 C30.0585,15.756 28.1595,17.655 25.8255,17.655 L25.8255,17.655 Z M30.0385,11.608 L20.3835,11.608 L20.3835,3.142 L20.9885,3.142 C25.7865,3.142 29.7265,6.887 30.0385,11.608 L30.0385,11.608 Z M17.9645,2.537 C17.9645,2.203 18.2355,1.932 18.5695,1.932 C18.9025,1.932 19.1735,2.203 19.1735,2.537 L19.1735,11.608 L17.9645,11.608 L17.9645,2.537 Z" id="Fill-19" fill="#79C5B9"></path>
                <path d="M0.9115,6.77 C1.9115,6.77 2.7255,7.584 2.7255,8.584 L2.7255,11.003 C2.7255,12.003 3.5395,12.817 4.5395,12.817 L6.3535,12.817 L6.3535,13.422 C6.3535,16.423 8.7955,18.864 11.7965,18.864 L13.9365,18.864 C14.5525,19.935 15.4615,20.769 16.5345,21.287 C15.7915,21.648 15.1235,22.159 14.5775,22.796 C14.1325,22.601 13.6425,22.493 13.1265,22.493 C11.1255,22.493 9.4985,24.12 9.4985,26.121 C9.4985,28.121 11.1255,29.749 13.1265,29.749 C15.1275,29.749 16.7555,28.121 16.7555,26.121 C16.7555,25.074 16.3095,24.13 15.5975,23.467 C16.5095,22.47 17.8085,21.888 19.1735,21.888 C20.5385,21.888 21.8385,22.47 22.7495,23.467 C22.0385,24.13 21.5925,25.074 21.5925,26.121 C21.5925,28.121 23.2205,29.749 25.2215,29.749 C27.2215,29.749 28.8495,28.121 28.8495,26.121 C28.8495,24.12 27.2215,22.493 25.2215,22.493 C24.7055,22.493 24.2145,22.601 23.7705,22.796 C23.2245,22.159 22.5555,21.648 21.8135,21.288 C22.8865,20.769 23.7945,19.935 24.4115,18.864 L25.8255,18.864 C28.8265,18.864 31.2685,16.423 31.2685,13.422 L31.2685,12.212 C31.2685,6.544 26.6565,1.932 20.9885,1.932 L20.2795,1.932 C20.0295,1.228 19.3575,0.723 18.5695,0.723 C17.5685,0.723 16.7555,1.537 16.7555,2.537 L16.7555,9.189 L13.3085,9.189 C12.9745,9.189 12.7035,9.46 12.7035,9.794 C12.7035,10.128 12.9745,10.398 13.3085,10.398 L16.7555,10.398 L16.7555,11.608 L6.9585,11.608 C6.6255,11.608 6.3535,11.337 6.3535,11.003 C6.3535,10.669 6.6255,10.398 6.9585,10.398 L8.4705,10.398 C8.8045,10.398 9.0755,10.128 9.0755,9.794 C9.0755,9.46 8.8045,9.189 8.4705,9.189 L6.9585,9.189 C5.9585,9.189 5.1445,10.003 5.1445,11.003 C5.1445,11.215 5.1815,11.419 5.2485,11.608 L4.5395,11.608 C4.2065,11.608 3.9355,11.337 3.9355,11.003 L3.9355,8.584 C3.9355,6.917 2.5785,5.561 0.9115,5.561 C0.5775,5.561 0.3065,5.831 0.3065,6.165 C0.3065,6.499 0.5775,6.77 0.9115,6.77 Z M13.1265,28.54 C11.7935,28.54 10.7075,27.455 10.7075,26.121 C10.7075,24.787 11.7935,23.702 13.1265,23.702 C14.4605,23.702 15.5455,24.787 15.5455,26.121 C15.5455,27.455 14.4605,28.54 13.1265,28.54 Z M27.6395,26.121 C27.6395,27.455 26.5545,28.54 25.2215,28.54 C23.8875,28.54 22.8025,27.455 22.8025,26.121 C22.8025,24.787 23.8875,23.702 25.2215,23.702 C26.5545,23.702 27.6395,24.787 27.6395,26.121 Z M19.1735,20.678 C17.6755,20.678 16.3005,20.002 15.3945,18.864 L22.9535,18.864 C22.0475,20.002 20.6725,20.678 19.1735,20.678 Z M25.8255,17.655 L11.7965,17.655 C9.4625,17.655 7.5635,15.756 7.5635,13.422 L7.5635,12.817 L30.0585,12.817 L30.0585,13.422 C30.0585,15.756 28.1595,17.655 25.8255,17.655 Z M30.0385,11.608 L20.3835,11.608 L20.3835,3.142 L20.9885,3.142 C25.7865,3.142 29.7265,6.887 30.0385,11.608 Z M17.9645,2.537 C17.9645,2.203 18.2355,1.932 18.5695,1.932 C18.9025,1.932 19.1735,2.203 19.1735,2.537 L19.1735,11.608 L17.9645,11.608 L17.9645,2.537 Z" id="Stroke-21" stroke="#FEFEFE" stroke-width="0.25"></path>
                <path d="M10.8893,10.3983 C11.2233,10.3983 11.4943,10.1273 11.4943,9.7933 C11.4943,9.4603 11.2233,9.1893 10.8893,9.1893 C10.5553,9.1893 10.2843,9.4603 10.2843,9.7933 C10.2843,10.1273 10.5553,10.3983 10.8893,10.3983" id="Fill-23" fill="#79C5B9"></path>
                <path d="M10.8893,10.3983 C11.2233,10.3983 11.4943,10.1273 11.4943,9.7933 C11.4943,9.4603 11.2233,9.1893 10.8893,9.1893 C10.5553,9.1893 10.2843,9.4603 10.2843,9.7933 C10.2843,10.1273 10.5553,10.3983 10.8893,10.3983 Z" id="Stroke-25" stroke="#FEFEFE" stroke-width="0.25"></path>
            </g>
        </g>
    </g>
</svg>