<?xml version="1.0" encoding="UTF-8"?>
<svg width="60px" height="53px" viewBox="0 0 60 53" version="1.1" xmlns="http://www.w3.org/2000/svg" xmlns:xlink="http://www.w3.org/1999/xlink">
    <!-- Generator: Sketch 61 (89581) - https://sketch.com -->
    <title>icon-age-3</title>
    <desc>Created with Sketch.</desc>
    <g id="icon-age-3" stroke="none" stroke-width="1" fill="none" fill-rule="evenodd">
        <g id="Group-25">
            <path d="M43.1006,2.3388 L17.1226,2.3388 C16.4826,2.3388 15.8866,2.6828 15.5676,3.2368 L2.5786,25.7348 C2.2586,26.2878 2.2586,26.9758 2.5786,27.5298 L15.5676,50.0278 C15.8866,50.5818 16.4826,50.9258 17.1226,50.9258 L43.1006,50.9258 C43.7396,50.9258 44.3356,50.5818 44.6556,50.0278 L57.6446,27.5298 C57.9646,26.9768 57.9646,26.2878 57.6446,25.7348 L44.6556,3.2368 C44.3356,2.6828 43.7406,2.3388 43.1006,2.3388" id="Fill-1" fill="#FEFEFE"></path>
            <path d="M43.1006,1.5592 L17.1226,1.5592 C16.2046,1.5592 15.3506,2.0532 14.8916,2.8472 L1.9036,25.3442 C1.4446,26.1392 1.4446,27.1252 1.9036,27.9202 L14.8926,50.4172 C15.3506,51.2112 16.2056,51.7052 17.1226,51.7052 L43.1006,51.7052 C44.0176,51.7052 44.8726,51.2122 45.3306,50.4172 L58.3196,27.9202 C58.7786,27.1252 58.7786,26.1392 58.3206,25.3452 L45.3306,2.8472 C44.8726,2.0522 44.0176,1.5592 43.1006,1.5592" id="Stroke-3" stroke="#FEFEFE" stroke-width="3.118" stroke-linejoin="round"></path>
            <path d="M43.1006,2.3388 L17.1226,2.3388 C16.4826,2.3388 15.8866,2.6828 15.5676,3.2368 L2.5786,25.7348 C2.2586,26.2878 2.2586,26.9758 2.5786,27.5298 L15.5676,50.0278 C15.8866,50.5818 16.4826,50.9258 17.1226,50.9258 L43.1006,50.9258 C43.7396,50.9258 44.3356,50.5818 44.6556,50.0278 L57.6446,27.5298 C57.9646,26.9768 57.9646,26.2878 57.6446,25.7348 L44.6556,3.2368 C44.3356,2.6828 43.7406,2.3388 43.1006,2.3388" id="Stroke-5" stroke="#E66879" stroke-width="1.559" stroke-linejoin="round"></path>
            <path d="M43.1006,0.2604 L17.1226,0.2604 C15.7426,0.2604 14.4566,1.0034 13.7666,2.1984 L0.7786,24.6954 C0.0886,25.8904 0.0886,27.3744 0.7786,28.5694 L13.7676,51.0674 C14.4566,52.2614 15.7426,53.0044 17.1226,53.0044 L43.1006,53.0044 C44.4806,53.0044 45.7656,52.2614 46.4556,51.0674 L59.4446,28.5694 C60.1346,27.3744 60.1346,25.8904 59.4456,24.6964 L46.4556,2.1974 C45.7656,1.0024 44.4806,0.2604 43.1006,0.2604" id="Stroke-7" stroke="#E66879" stroke-width="0.521" stroke-linejoin="round"></path>
            <path d="M27.413,18.7364 C27.161,18.7364 26.957,18.9404 26.957,19.1924 L26.957,19.7324 C26.957,19.9844 27.161,20.1884 27.413,20.1884 C27.665,20.1884 27.869,19.9844 27.869,19.7324 L27.869,19.1924 C27.869,18.9404 27.665,18.7364 27.413,18.7364" id="Fill-9" fill="#E66879"></path>
            <path d="M27.413,18.7364 C27.161,18.7364 26.957,18.9404 26.957,19.1924 L26.957,19.7324 C26.957,19.9844 27.161,20.1884 27.413,20.1884 C27.665,20.1884 27.869,19.9844 27.869,19.7324 L27.869,19.1924 C27.869,18.9404 27.665,18.7364 27.413,18.7364 Z" id="Stroke-11" stroke="#FEFEFE" stroke-width="0.15"></path>
            <path d="M32.8099,18.7364 C32.5579,18.7364 32.3539,18.9404 32.3539,19.1924 L32.3539,19.7324 C32.3539,19.9844 32.5579,20.1884 32.8099,20.1884 C33.0619,20.1884 33.2659,19.9844 33.2659,19.7324 L33.2659,19.1924 C33.2659,18.9404 33.0619,18.7364 32.8099,18.7364" id="Fill-13" fill="#E66879"></path>
            <path d="M32.8099,18.7364 C32.5579,18.7364 32.3539,18.9404 32.3539,19.1924 L32.3539,19.7324 C32.3539,19.9844 32.5579,20.1884 32.8099,20.1884 C33.0619,20.1884 33.2659,19.9844 33.2659,19.7324 L33.2659,19.1924 C33.2659,18.9404 33.0619,18.7364 32.8099,18.7364 Z" id="Stroke-15" stroke="#FEFEFE" stroke-width="0.15"></path>
            <path d="M32.0827,22.6808 C31.9227,22.4858 31.6357,22.4578 31.4407,22.6178 C31.1037,22.8948 30.6187,23.0538 30.1117,23.0538 C29.6037,23.0538 29.1187,22.8948 28.7817,22.6178 C28.5877,22.4578 28.2997,22.4858 28.1407,22.6808 C27.9807,22.8758 28.0077,23.1628 28.2027,23.3228 C28.7077,23.7378 29.3857,23.9658 30.1117,23.9658 C30.8377,23.9658 31.5157,23.7378 32.0197,23.3228 C32.2147,23.1628 32.2427,22.8758 32.0827,22.6808" id="Fill-17" fill="#E66879"></path>
            <path d="M32.0827,22.6808 C31.9227,22.4858 31.6357,22.4578 31.4407,22.6178 C31.1037,22.8948 30.6187,23.0538 30.1117,23.0538 C29.6037,23.0538 29.1187,22.8948 28.7817,22.6178 C28.5877,22.4578 28.2997,22.4858 28.1407,22.6808 C27.9807,22.8758 28.0077,23.1628 28.2027,23.3228 C28.7077,23.7378 29.3857,23.9658 30.1117,23.9658 C30.8377,23.9658 31.5157,23.7378 32.0197,23.3228 C32.2147,23.1628 32.2427,22.8758 32.0827,22.6808 Z" id="Stroke-19" stroke="#FEFEFE" stroke-width="0.15"></path>
            <path d="M38.4974,29.0039 L34.7844,27.9909 L34.3224,26.6039 C34.2764,26.4669 34.1684,26.3589 34.0304,26.3139 C33.9564,26.2909 33.8794,26.2869 33.8054,26.2999 L33.8054,26.1369 C34.1624,25.9119 34.5014,25.6519 34.8154,25.3609 C35.9894,24.2739 36.7444,22.8299 36.9684,21.2599 C37.7974,21.1869 38.4994,20.5739 38.6354,19.7789 C38.7244,19.2639 38.5914,18.7649 38.3044,18.3799 C38.8414,18.0639 39.2024,17.4769 39.2024,16.8069 C39.2024,16.2389 38.9354,15.7119 38.5024,15.3729 C38.6074,15.1399 38.6634,14.8869 38.6634,14.6289 C38.6634,13.6659 37.9164,12.8749 36.9754,12.8129 C36.7824,12.1809 36.1974,11.7199 35.5084,11.7199 C35.3004,11.7199 35.1014,11.7629 34.9204,11.8389 C33.8444,11.0499 32.5134,10.6409 31.1904,10.6409 L29.0324,10.6409 C27.7104,10.6409 26.3804,11.0489 25.3074,11.8409 C25.1254,11.7639 24.9244,11.7199 24.7144,11.7199 C24.0254,11.7199 23.4404,12.1809 23.2474,12.8129 C22.3064,12.8749 21.5604,13.6659 21.5604,14.6289 C21.5604,14.8869 21.6154,15.1399 21.7204,15.3729 C21.2884,15.7119 21.0204,16.2389 21.0204,16.8069 C21.0204,17.4769 21.3814,18.0639 21.9184,18.3799 C21.6314,18.7649 21.4984,19.2639 21.5874,19.7789 C21.7234,20.5749 22.4254,21.1869 23.2544,21.2599 C23.4784,22.8299 24.2334,24.2739 25.4074,25.3609 C25.7224,25.6529 26.0604,25.9119 26.4174,26.1379 L26.4174,26.2999 C26.3434,26.2869 26.2664,26.2909 26.1924,26.3139 C26.0554,26.3589 25.9464,26.4669 25.9014,26.6039 L25.4384,27.9909 L21.7254,29.0039 C20.3574,29.3769 19.4014,30.6289 19.4014,32.0469 L19.4014,41.3199 C19.4014,41.5719 19.6054,41.7759 19.8574,41.7759 C20.1094,41.7759 20.3134,41.5719 20.3134,41.3199 L20.3134,32.0479 C20.3134,31.6259 20.4324,31.2259 20.6404,30.8839 L22.7844,33.4559 C23.0384,33.7609 23.1794,34.1489 23.1794,34.5459 L23.1794,41.3199 C23.1794,41.5719 23.3834,41.7759 23.6354,41.7759 C23.8874,41.7759 24.0914,41.5719 24.0914,41.3199 L24.0914,34.5459 C24.0914,33.9349 23.8754,33.3409 23.4854,32.8719 L21.2694,30.2119 C21.4774,30.0659 21.7114,29.9539 21.9654,29.8839 L24.3604,29.2309 C24.7034,29.9669 26.3814,33.2789 29.8464,35.7549 C29.9254,35.8109 30.0184,35.8389 30.1114,35.8389 C30.2044,35.8389 30.2974,35.8109 30.3764,35.7549 C33.8414,33.2789 35.5194,29.9669 35.8624,29.2309 L38.2574,29.8839 C38.5124,29.9539 38.7464,30.0659 38.9534,30.2119 L36.7374,32.8719 C36.3464,33.3409 36.1314,33.9349 36.1314,34.5459 L36.1314,41.3199 C36.1314,41.5719 36.3364,41.7759 36.5874,41.7759 C36.8394,41.7759 37.0444,41.5719 37.0444,41.3199 L37.0444,34.5459 C37.0444,34.1489 37.1844,33.7609 37.4384,33.4559 L39.5824,30.8839 C39.7904,31.2259 39.9094,31.6259 39.9094,32.0479 L39.9094,41.3199 C39.9094,41.5719 40.1144,41.7759 40.3654,41.7759 C40.6174,41.7759 40.8214,41.5719 40.8214,41.3199 L40.8214,32.0479 C40.8214,30.6289 39.8664,29.3769 38.4974,29.0039 L38.4974,29.0039 Z M33.9174,28.2759 L32.2404,30.3719 C32.2124,30.4079 32.1624,30.4139 32.1254,30.3869 L30.8834,29.4559 L33.6514,27.4779 L33.9174,28.2759 Z M30.1114,28.8859 L27.3294,26.8989 L27.3294,26.6219 C28.1974,27.0029 29.1424,27.2039 30.1114,27.2039 C31.0804,27.2039 32.0254,27.0029 32.8934,26.6219 L32.8934,26.8989 L30.1114,28.8859 Z M35.5084,12.6399 C35.8454,12.6399 36.1204,12.9109 36.1314,13.2479 C36.1304,13.2589 36.1294,13.2719 36.1294,13.2869 C36.1264,13.4269 36.1864,13.5609 36.2934,13.6499 C36.3994,13.7399 36.5414,13.7759 36.6764,13.7469 C36.7364,13.7349 36.7964,13.7289 36.8574,13.7289 C37.3504,13.7289 37.7504,14.1329 37.7504,14.6289 C37.7504,14.9079 37.6254,15.1079 37.5204,15.2269 C37.4194,15.3399 37.3804,15.4969 37.4174,15.6449 C37.4534,15.7919 37.5604,15.9129 37.7024,15.9649 C38.0544,16.0949 38.2904,16.4329 38.2904,16.8069 C38.2904,17.3029 37.8904,17.7069 37.3974,17.7069 C36.9044,17.7069 36.5044,17.3029 36.5044,16.8069 C36.5044,16.5289 36.6304,16.3289 36.7354,16.2099 C36.8364,16.0959 36.8744,15.9399 36.8384,15.7919 C36.8014,15.6439 36.6944,15.5239 36.5524,15.4709 C36.2004,15.3409 35.9644,15.0029 35.9644,14.6289 C35.9644,14.5679 35.9714,14.5069 35.9834,14.4469 C36.0104,14.3099 35.9754,14.1669 35.8864,14.0599 C35.7994,13.9549 35.6714,13.8949 35.5364,13.8949 L35.5254,13.8949 C35.5114,13.8949 35.4984,13.8959 35.4874,13.8969 C35.1534,13.8859 34.8854,13.6079 34.8854,13.2689 C34.8854,12.9219 35.1644,12.6399 35.5084,12.6399 L35.5084,12.6399 Z M21.9324,16.8069 C21.9324,16.4329 22.1684,16.0949 22.5204,15.9649 C22.6624,15.9129 22.7694,15.7929 22.8064,15.6449 C22.8424,15.4969 22.8044,15.3399 22.7034,15.2269 C22.5974,15.1079 22.4724,14.9079 22.4724,14.6289 C22.4724,14.1329 22.8724,13.7289 23.3654,13.7289 C23.4264,13.7289 23.4874,13.7349 23.5464,13.7469 C23.6824,13.7759 23.8234,13.7399 23.9304,13.6499 C24.0364,13.5609 24.0974,13.4269 24.0934,13.2869 C24.0934,13.2719 24.0924,13.2589 24.0914,13.2479 C24.1034,12.9109 24.3774,12.6399 24.7144,12.6399 C25.0584,12.6399 25.3374,12.9219 25.3374,13.2689 C25.3374,13.6079 25.0694,13.8859 24.7354,13.8969 C24.7244,13.8959 24.7114,13.8949 24.6964,13.8949 C24.5584,13.8899 24.4254,13.9529 24.3364,14.0599 C24.2474,14.1679 24.2124,14.3099 24.2404,14.4469 C24.2524,14.5069 24.2584,14.5679 24.2584,14.6289 C24.2584,15.0029 24.0224,15.3409 23.6704,15.4709 C23.5284,15.5239 23.4214,15.6439 23.3854,15.7919 C23.3484,15.9399 23.3864,16.0959 23.4874,16.2099 C23.5934,16.3289 23.7184,16.5289 23.7184,16.8069 C23.7184,17.3039 23.3184,17.7069 22.8254,17.7069 C22.3334,17.7069 21.9324,17.3039 21.9324,16.8069 L21.9324,16.8069 Z M26.0274,24.6919 C24.9194,23.6659 24.2414,22.2739 24.1164,20.7739 C24.0974,20.5379 23.8994,20.3559 23.6624,20.3559 L23.4214,20.3559 C22.9594,20.3559 22.5574,20.0409 22.4864,19.6249 C22.4054,19.1559 22.6894,18.7169 23.1374,18.5999 C23.9844,18.4499 24.6314,17.7029 24.6314,16.8069 C24.6314,16.5489 24.5754,16.2959 24.4704,16.0639 C24.8724,15.7479 25.1324,15.2709 25.1664,14.7489 C25.7934,14.5539 26.2504,13.9639 26.2504,13.2689 C26.2504,12.9699 26.1654,12.6919 26.0204,12.4549 C26.9144,11.8649 27.9524,11.5529 29.0324,11.5529 L31.1904,11.5529 C32.2704,11.5529 33.3084,11.8649 34.2034,12.4549 C34.0574,12.6919 33.9734,12.9699 33.9734,13.2689 C33.9734,13.9639 34.4294,14.5539 35.0564,14.7489 C35.0914,15.2709 35.3504,15.7479 35.7524,16.0639 C35.6474,16.2959 35.5924,16.5489 35.5924,16.8069 C35.5924,17.7029 36.2384,18.4499 37.0854,18.5999 C37.5334,18.7169 37.8174,19.1559 37.7374,19.6249 C37.6654,20.0409 37.2634,20.3559 36.8014,20.3559 L36.5604,20.3559 C36.3234,20.3559 36.1254,20.5379 36.1064,20.7739 C35.9824,22.2739 35.3034,23.6659 34.1964,24.6919 C33.0824,25.7239 31.6314,26.2919 30.1114,26.2919 C28.5914,26.2919 27.1414,25.7239 26.0274,24.6919 L26.0274,24.6919 Z M26.5714,27.4779 L29.3394,29.4559 L28.0974,30.3869 C28.0614,30.4139 28.0104,30.4079 27.9824,30.3719 L26.3054,28.2759 L26.5714,27.4779 Z M30.1114,34.8179 C27.2204,32.6539 25.6804,29.8439 25.2564,28.9869 L25.6244,28.8859 L27.2694,30.9419 C27.4674,31.1889 27.7544,31.3179 28.0464,31.3179 C28.2544,31.3179 28.4644,31.2519 28.6444,31.1169 L29.6554,30.3589 L29.6554,33.2249 C29.6554,33.4759 29.8594,33.6809 30.1114,33.6809 C30.3634,33.6809 30.5674,33.4759 30.5674,33.2249 L30.5674,30.3589 L31.5784,31.1169 C31.7584,31.2519 31.9684,31.3179 32.1764,31.3179 C32.4684,31.3179 32.7554,31.1889 32.9534,30.9419 L34.5984,28.8859 L34.9664,28.9869 C34.5444,29.8429 33.0104,32.6489 30.1114,34.8179 L30.1114,34.8179 Z" id="Fill-21" fill="#E66879"></path>
            <path d="M38.4974,29.0039 L34.7844,27.9909 L34.3224,26.6039 C34.2764,26.4669 34.1684,26.3589 34.0304,26.3139 C33.9564,26.2909 33.8794,26.2869 33.8054,26.2999 L33.8054,26.1369 C34.1624,25.9119 34.5014,25.6519 34.8154,25.3609 C35.9894,24.2739 36.7444,22.8299 36.9684,21.2599 C37.7974,21.1869 38.4994,20.5739 38.6354,19.7789 C38.7244,19.2639 38.5914,18.7649 38.3044,18.3799 C38.8414,18.0639 39.2024,17.4769 39.2024,16.8069 C39.2024,16.2389 38.9354,15.7119 38.5024,15.3729 C38.6074,15.1399 38.6634,14.8869 38.6634,14.6289 C38.6634,13.6659 37.9164,12.8749 36.9754,12.8129 C36.7824,12.1809 36.1974,11.7199 35.5084,11.7199 C35.3004,11.7199 35.1014,11.7629 34.9204,11.8389 C33.8444,11.0499 32.5134,10.6409 31.1904,10.6409 L29.0324,10.6409 C27.7104,10.6409 26.3804,11.0489 25.3074,11.8409 C25.1254,11.7639 24.9244,11.7199 24.7144,11.7199 C24.0254,11.7199 23.4404,12.1809 23.2474,12.8129 C22.3064,12.8749 21.5604,13.6659 21.5604,14.6289 C21.5604,14.8869 21.6154,15.1399 21.7204,15.3729 C21.2884,15.7119 21.0204,16.2389 21.0204,16.8069 C21.0204,17.4769 21.3814,18.0639 21.9184,18.3799 C21.6314,18.7649 21.4984,19.2639 21.5874,19.7789 C21.7234,20.5749 22.4254,21.1869 23.2544,21.2599 C23.4784,22.8299 24.2334,24.2739 25.4074,25.3609 C25.7224,25.6529 26.0604,25.9119 26.4174,26.1379 L26.4174,26.2999 C26.3434,26.2869 26.2664,26.2909 26.1924,26.3139 C26.0554,26.3589 25.9464,26.4669 25.9014,26.6039 L25.4384,27.9909 L21.7254,29.0039 C20.3574,29.3769 19.4014,30.6289 19.4014,32.0469 L19.4014,41.3199 C19.4014,41.5719 19.6054,41.7759 19.8574,41.7759 C20.1094,41.7759 20.3134,41.5719 20.3134,41.3199 L20.3134,32.0479 C20.3134,31.6259 20.4324,31.2259 20.6404,30.8839 L22.7844,33.4559 C23.0384,33.7609 23.1794,34.1489 23.1794,34.5459 L23.1794,41.3199 C23.1794,41.5719 23.3834,41.7759 23.6354,41.7759 C23.8874,41.7759 24.0914,41.5719 24.0914,41.3199 L24.0914,34.5459 C24.0914,33.9349 23.8754,33.3409 23.4854,32.8719 L21.2694,30.2119 C21.4774,30.0659 21.7114,29.9539 21.9654,29.8839 L24.3604,29.2309 C24.7034,29.9669 26.3814,33.2789 29.8464,35.7549 C29.9254,35.8109 30.0184,35.8389 30.1114,35.8389 C30.2044,35.8389 30.2974,35.8109 30.3764,35.7549 C33.8414,33.2789 35.5194,29.9669 35.8624,29.2309 L38.2574,29.8839 C38.5124,29.9539 38.7464,30.0659 38.9534,30.2119 L36.7374,32.8719 C36.3464,33.3409 36.1314,33.9349 36.1314,34.5459 L36.1314,41.3199 C36.1314,41.5719 36.3364,41.7759 36.5874,41.7759 C36.8394,41.7759 37.0444,41.5719 37.0444,41.3199 L37.0444,34.5459 C37.0444,34.1489 37.1844,33.7609 37.4384,33.4559 L39.5824,30.8839 C39.7904,31.2259 39.9094,31.6259 39.9094,32.0479 L39.9094,41.3199 C39.9094,41.5719 40.1144,41.7759 40.3654,41.7759 C40.6174,41.7759 40.8214,41.5719 40.8214,41.3199 L40.8214,32.0479 C40.8214,30.6289 39.8664,29.3769 38.4974,29.0039 Z M33.9174,28.2759 L32.2404,30.3719 C32.2124,30.4079 32.1624,30.4139 32.1254,30.3869 L30.8834,29.4559 L33.6514,27.4779 L33.9174,28.2759 Z M30.1114,28.8859 L27.3294,26.8989 L27.3294,26.6219 C28.1974,27.0029 29.1424,27.2039 30.1114,27.2039 C31.0804,27.2039 32.0254,27.0029 32.8934,26.6219 L32.8934,26.8989 L30.1114,28.8859 Z M35.5084,12.6399 C35.8454,12.6399 36.1204,12.9109 36.1314,13.2479 C36.1304,13.2589 36.1294,13.2719 36.1294,13.2869 C36.1264,13.4269 36.1864,13.5609 36.2934,13.6499 C36.3994,13.7399 36.5414,13.7759 36.6764,13.7469 C36.7364,13.7349 36.7964,13.7289 36.8574,13.7289 C37.3504,13.7289 37.7504,14.1329 37.7504,14.6289 C37.7504,14.9079 37.6254,15.1079 37.5204,15.2269 C37.4194,15.3399 37.3804,15.4969 37.4174,15.6449 C37.4534,15.7919 37.5604,15.9129 37.7024,15.9649 C38.0544,16.0949 38.2904,16.4329 38.2904,16.8069 C38.2904,17.3029 37.8904,17.7069 37.3974,17.7069 C36.9044,17.7069 36.5044,17.3029 36.5044,16.8069 C36.5044,16.5289 36.6304,16.3289 36.7354,16.2099 C36.8364,16.0959 36.8744,15.9399 36.8384,15.7919 C36.8014,15.6439 36.6944,15.5239 36.5524,15.4709 C36.2004,15.3409 35.9644,15.0029 35.9644,14.6289 C35.9644,14.5679 35.9714,14.5069 35.9834,14.4469 C36.0104,14.3099 35.9754,14.1669 35.8864,14.0599 C35.7994,13.9549 35.6714,13.8949 35.5364,13.8949 L35.5254,13.8949 C35.5114,13.8949 35.4984,13.8959 35.4874,13.8969 C35.1534,13.8859 34.8854,13.6079 34.8854,13.2689 C34.8854,12.9219 35.1644,12.6399 35.5084,12.6399 Z M21.9324,16.8069 C21.9324,16.4329 22.1684,16.0949 22.5204,15.9649 C22.6624,15.9129 22.7694,15.7929 22.8064,15.6449 C22.8424,15.4969 22.8044,15.3399 22.7034,15.2269 C22.5974,15.1079 22.4724,14.9079 22.4724,14.6289 C22.4724,14.1329 22.8724,13.7289 23.3654,13.7289 C23.4264,13.7289 23.4874,13.7349 23.5464,13.7469 C23.6824,13.7759 23.8234,13.7399 23.9304,13.6499 C24.0364,13.5609 24.0974,13.4269 24.0934,13.2869 C24.0934,13.2719 24.0924,13.2589 24.0914,13.2479 C24.1034,12.9109 24.3774,12.6399 24.7144,12.6399 C25.0584,12.6399 25.3374,12.9219 25.3374,13.2689 C25.3374,13.6079 25.0694,13.8859 24.7354,13.8969 C24.7244,13.8959 24.7114,13.8949 24.6964,13.8949 C24.5584,13.8899 24.4254,13.9529 24.3364,14.0599 C24.2474,14.1679 24.2124,14.3099 24.2404,14.4469 C24.2524,14.5069 24.2584,14.5679 24.2584,14.6289 C24.2584,15.0029 24.0224,15.3409 23.6704,15.4709 C23.5284,15.5239 23.4214,15.6439 23.3854,15.7919 C23.3484,15.9399 23.3864,16.0959 23.4874,16.2099 C23.5934,16.3289 23.7184,16.5289 23.7184,16.8069 C23.7184,17.3039 23.3184,17.7069 22.8254,17.7069 C22.3334,17.7069 21.9324,17.3039 21.9324,16.8069 Z M26.0274,24.6919 C24.9194,23.6659 24.2414,22.2739 24.1164,20.7739 C24.0974,20.5379 23.8994,20.3559 23.6624,20.3559 L23.4214,20.3559 C22.9594,20.3559 22.5574,20.0409 22.4864,19.6249 C22.4054,19.1559 22.6894,18.7169 23.1374,18.5999 C23.9844,18.4499 24.6314,17.7029 24.6314,16.8069 C24.6314,16.5489 24.5754,16.2959 24.4704,16.0639 C24.8724,15.7479 25.1324,15.2709 25.1664,14.7489 C25.7934,14.5539 26.2504,13.9639 26.2504,13.2689 C26.2504,12.9699 26.1654,12.6919 26.0204,12.4549 C26.9144,11.8649 27.9524,11.5529 29.0324,11.5529 L31.1904,11.5529 C32.2704,11.5529 33.3084,11.8649 34.2034,12.4549 C34.0574,12.6919 33.9734,12.9699 33.9734,13.2689 C33.9734,13.9639 34.4294,14.5539 35.0564,14.7489 C35.0914,15.2709 35.3504,15.7479 35.7524,16.0639 C35.6474,16.2959 35.5924,16.5489 35.5924,16.8069 C35.5924,17.7029 36.2384,18.4499 37.0854,18.5999 C37.5334,18.7169 37.8174,19.1559 37.7374,19.6249 C37.6654,20.0409 37.2634,20.3559 36.8014,20.3559 L36.5604,20.3559 C36.3234,20.3559 36.1254,20.5379 36.1064,20.7739 C35.9824,22.2739 35.3034,23.6659 34.1964,24.6919 C33.0824,25.7239 31.6314,26.2919 30.1114,26.2919 C28.5914,26.2919 27.1414,25.7239 26.0274,24.6919 Z M26.5714,27.4779 L29.3394,29.4559 L28.0974,30.3869 C28.0614,30.4139 28.0104,30.4079 27.9824,30.3719 L26.3054,28.2759 L26.5714,27.4779 Z M30.1114,34.8179 C27.2204,32.6539 25.6804,29.8439 25.2564,28.9869 L25.6244,28.8859 L27.2694,30.9419 C27.4674,31.1889 27.7544,31.3179 28.0464,31.3179 C28.2544,31.3179 28.4644,31.2519 28.6444,31.1169 L29.6554,30.3589 L29.6554,33.2249 C29.6554,33.4759 29.8594,33.6809 30.1114,33.6809 C30.3634,33.6809 30.5674,33.4759 30.5674,33.2249 L30.5674,30.3589 L31.5784,31.1169 C31.7584,31.2519 31.9684,31.3179 32.1764,31.3179 C32.4684,31.3179 32.7554,31.1889 32.9534,30.9419 L34.5984,28.8859 L34.9664,28.9869 C34.5444,29.8429 33.0104,32.6489 30.1114,34.8179 Z" id="Stroke-23" stroke="#FEFEFE" stroke-width="0.15"></path>
        </g>
    </g>
</svg>