<?xml version="1.0" encoding="UTF-8"?>
<svg width="60px" height="53px" viewBox="0 0 60 53" version="1.1" xmlns="http://www.w3.org/2000/svg" xmlns:xlink="http://www.w3.org/1999/xlink">
    <!-- Generator: Sketch 61 (89581) - https://sketch.com -->
    <title>icon-divers-1</title>
    <desc>Created with Sketch.</desc>
    <g id="icon-divers-1" stroke="none" stroke-width="1" fill="none" fill-rule="evenodd">
        <g id="Group-12">
            <g id="Group-11" transform="translate(0.000000, 0.264400)">
                <path d="M43.1006,2.0744 L17.1226,2.0744 C16.4826,2.0744 15.8866,2.4184 15.5676,2.9724 L2.5786,25.4704 C2.2586,26.0234 2.2586,26.7114 2.5786,27.2654 L15.5676,49.7634 C15.8866,50.3174 16.4826,50.6614 17.1226,50.6614 L43.1006,50.6614 C43.7396,50.6614 44.3356,50.3174 44.6556,49.7634 L57.6446,27.2654 C57.9646,26.7124 57.9646,26.0234 57.6446,25.4704 L44.6556,2.9724 C44.3356,2.4184 43.7406,2.0744 43.1006,2.0744" id="Fill-1" fill="#FEFEFE"></path>
                <path d="M43.1006,1.2948 L17.1226,1.2948 C16.2046,1.2948 15.3506,1.7888 14.8916,2.5828 L1.9036,25.0798 C1.4446,25.8748 1.4446,26.8608 1.9036,27.6558 L14.8926,50.1528 C15.3506,50.9468 16.2056,51.4408 17.1226,51.4408 L43.1006,51.4408 C44.0176,51.4408 44.8726,50.9478 45.3306,50.1528 L58.3196,27.6558 C58.7786,26.8608 58.7786,25.8748 58.3206,25.0808 L45.3306,2.5828 C44.8726,1.7878 44.0176,1.2948 43.1006,1.2948" id="Stroke-3" stroke="#FEFEFE" stroke-width="3.118" stroke-linejoin="round"></path>
                <path d="M43.1006,2.0744 L17.1226,2.0744 C16.4826,2.0744 15.8866,2.4184 15.5676,2.9724 L2.5786,25.4704 C2.2586,26.0234 2.2586,26.7114 2.5786,27.2654 L15.5676,49.7634 C15.8866,50.3174 16.4826,50.6614 17.1226,50.6614 L43.1006,50.6614 C43.7396,50.6614 44.3356,50.3174 44.6556,49.7634 L57.6446,27.2654 C57.9646,26.7124 57.9646,26.0234 57.6446,25.4704 L44.6556,2.9724 C44.3356,2.4184 43.7406,2.0744 43.1006,2.0744" id="Stroke-5" stroke="#61388D" stroke-width="1.559" stroke-linejoin="round"></path>
                <path d="M43.1006,-0.0041 L17.1226,-0.0041 C15.7426,-0.0041 14.4566,0.7389 13.7666,1.9339 L0.7786,24.4309 C0.0886,25.6259 0.0886,27.1099 0.7786,28.3049 L13.7676,50.8029 C14.4566,51.9969 15.7426,52.7399 17.1226,52.7399 L43.1006,52.7399 C44.4806,52.7399 45.7656,51.9969 46.4556,50.8029 L59.4446,28.3049 C60.1346,27.1099 60.1346,25.6259 59.4456,24.4319 L46.4556,1.9329 C45.7656,0.7379 44.4806,-0.0041 43.1006,-0.0041" id="Stroke-7" stroke="#61388D" stroke-width="0.521" stroke-linejoin="round"></path>
                <path d="M29.5285,36.4818 C28.7485,36.4818 28.1145,35.8478 28.1145,35.0678 L28.1145,33.9708 L27.4355,33.9708 C26.6565,33.9708 26.0215,33.3358 26.0215,32.5568 C26.0215,31.7768 26.6555,31.1428 27.4355,31.1428 L28.1145,31.1428 L28.1145,27.7648 C24.4585,27.0908 21.7445,23.8628 21.7445,20.1098 C21.7445,15.8178 25.2365,12.3258 29.5285,12.3258 C31.1915,12.3258 32.8205,12.8658 34.1555,13.8538 L35.0345,13.0318 C35.2025,12.8758 35.4655,12.8838 35.6225,13.0518 C35.7795,13.2198 35.7705,13.4828 35.6025,13.6398 L34.4635,14.7038 C34.3115,14.8458 34.0775,14.8538 33.9165,14.7218 C32.6805,13.7128 31.1225,13.1578 29.5285,13.1578 C25.6945,13.1578 22.5765,16.2758 22.5765,20.1098 C22.5765,23.5708 25.1605,26.5318 28.5865,26.9988 C28.7925,27.0258 28.9465,27.2018 28.9465,27.4108 L28.9465,31.5588 C28.9465,31.7878 28.7605,31.9748 28.5305,31.9748 L27.4355,31.9748 C27.1145,31.9748 26.8535,32.2358 26.8535,32.5568 C26.8535,32.8778 27.1145,33.1388 27.4355,33.1388 L28.5305,33.1388 C28.7605,33.1388 28.9465,33.3248 28.9465,33.5548 L28.9465,35.0678 C28.9465,35.3888 29.2075,35.6498 29.5285,35.6498 C29.8495,35.6498 30.1105,35.3888 30.1105,35.0678 L30.1105,33.5548 C30.1105,33.3248 30.2965,33.1388 30.5265,33.1388 L31.6215,33.1388 C31.9425,33.1388 32.2035,32.8778 32.2035,32.5568 C32.2035,32.2358 31.9425,31.9748 31.6215,31.9748 L30.5265,31.9748 C30.2965,31.9748 30.1105,31.7878 30.1105,31.5588 L30.1105,27.4108 C30.1105,27.2018 30.2645,27.0258 30.4705,26.9988 C31.7425,26.8248 32.9415,26.2998 33.9385,25.4798 C34.9235,24.6698 35.6675,23.6088 36.0885,22.4138 C36.1655,22.1968 36.4025,22.0838 36.6195,22.1598 C36.8355,22.2358 36.9495,22.4738 36.8735,22.6898 C36.4015,24.0288 35.5695,25.2158 34.4675,26.1228 C33.4445,26.9628 32.2335,27.5268 30.9425,27.7648 L30.9425,31.1428 L31.6215,31.1428 C32.4015,31.1428 33.0355,31.7768 33.0355,32.5568 C33.0355,33.3358 32.4015,33.9708 31.6215,33.9708 L30.9425,33.9708 L30.9425,35.0678 C30.9425,35.8478 30.3085,36.4818 29.5285,36.4818 M29.5285,25.8978 C26.3365,25.8978 23.7405,23.3008 23.7405,20.1098 C23.7405,19.8798 23.9265,19.6938 24.1565,19.6938 C24.3855,19.6938 24.5725,19.8798 24.5725,20.1098 C24.5725,22.8428 26.7955,25.0658 29.5285,25.0658 C32.2615,25.0658 34.4845,22.8428 34.4845,20.1098 C34.4845,17.3768 32.2615,15.1538 29.5285,15.1538 C27.3685,15.1538 25.4725,16.5358 24.8095,18.5938 C24.7385,18.8118 24.5045,18.9318 24.2855,18.8618 C24.0675,18.7918 23.9475,18.5568 24.0175,18.3388 C24.3905,17.1818 25.1065,16.1848 26.0885,15.4578 C27.0905,14.7148 28.2805,14.3218 29.5285,14.3218 C32.7205,14.3218 35.3165,16.9188 35.3165,20.1098 C35.3165,23.3008 32.7205,25.8978 29.5285,25.8978 M36.8515,21.3488 C36.6075,21.3488 36.4105,21.1298 36.4375,20.8868 C36.4665,20.6308 36.4815,20.3688 36.4815,20.1098 C36.4815,18.6638 36.0395,17.2768 35.2035,16.0988 C35.0835,15.9288 35.1075,15.6958 35.2595,15.5538 L39.1175,11.9498 C39.3815,11.7038 39.8265,11.9038 39.8165,12.2648 L39.7895,13.3478 C39.7805,13.6688 40.0355,13.9368 40.3565,13.9448 L40.3715,13.9448 C40.6845,13.9448 40.9455,13.6908 40.9535,13.3778 L41.0415,9.9148 C41.0495,9.5988 40.7995,9.3308 40.4845,9.3178 L37.0235,9.1708 C36.7325,9.1588 36.4705,9.3718 36.4235,9.6588 C36.3695,9.9988 36.6295,10.3188 36.9735,10.3338 L38.0565,10.3798 C38.4165,10.3958 38.5865,10.8528 38.3225,11.0988 L36.8185,12.5048 C36.6505,12.6608 36.3875,12.6518 36.2305,12.4838 C36.0735,12.3158 36.0825,12.0528 36.2505,11.8968 L37.0295,11.1688 L36.9385,11.1648 C36.5605,11.1488 36.2125,10.9868 35.9565,10.7088 C35.7015,10.4308 35.5695,10.0698 35.5855,9.6918 C35.6195,8.9138 36.2795,8.3068 37.0585,8.3398 L40.5195,8.4868 C41.2855,8.5198 41.8925,9.1698 41.8735,9.9358 L41.7845,13.3988 C41.7695,13.9808 41.3925,14.5068 40.8405,14.6988 C40.2755,14.8948 39.6325,14.7078 39.2615,14.2388 C39.0575,13.9808 38.9495,13.6548 38.9575,13.3268 L38.9595,13.2348 L36.0865,15.9198 C36.8895,17.1718 37.3125,18.6128 37.3125,20.1098 C37.3125,20.3998 37.2965,20.6918 37.2645,20.9788 C37.2405,21.1908 37.0605,21.3488 36.8515,21.3488" id="Fill-9" fill="#61388D"></path>
            </g>
            <text id="divers" font-family="Stolzl-Medium, Stolzl" font-size="7" font-weight="400" letter-spacing="0.2614" fill="#6E4997">
                <tspan x="18.5217" y="47.609283">d</tspan>
                <tspan x="23.5151" y="47.609283" letter-spacing="0.1606">i</tspan>
                <tspan x="25.4817" y="47.609283" letter-spacing="0.001">v</tspan>
                <tspan x="29.3887" y="47.609283" letter-spacing="0.2054">e</tspan>
                <tspan x="34.1581" y="47.609283" letter-spacing="0.1508">r</tspan>
                <tspan x="37.2839" y="47.609283" letter-spacing="0.001">s</tspan>
            </text>
        </g>
    </g>
</svg>