<?xml version="1.0" encoding="UTF-8"?>
<svg width="60px" height="53px" viewBox="0 0 60 53" version="1.1" xmlns="http://www.w3.org/2000/svg" xmlns:xlink="http://www.w3.org/1999/xlink">
    <!-- Generator: Sketch 61 (89581) - https://sketch.com -->
    <title>icon-age-2</title>
    <desc>Created with Sketch.</desc>
    <g id="icon-age-2" stroke="none" stroke-width="1" fill="none" fill-rule="evenodd">
        <g id="Group-22">
            <g id="Group-17" transform="translate(0.000000, 0.264400)">
                <path d="M43.1006,2.0744 L17.1226,2.0744 C16.4826,2.0744 15.8866,2.4184 15.5676,2.9724 L2.5786,25.4704 C2.2586,26.0234 2.2586,26.7114 2.5786,27.2654 L15.5676,49.7634 C15.8866,50.3174 16.4826,50.6614 17.1226,50.6614 L43.1006,50.6614 C43.7396,50.6614 44.3356,50.3174 44.6556,49.7634 L57.6446,27.2654 C57.9646,26.7124 57.9646,26.0234 57.6446,25.4704 L44.6556,2.9724 C44.3356,2.4184 43.7406,2.0744 43.1006,2.0744" id="Fill-1" fill="#FEFEFE"></path>
                <path d="M43.1006,1.2948 L17.1226,1.2948 C16.2046,1.2948 15.3506,1.7888 14.8916,2.5828 L1.9036,25.0798 C1.4446,25.8748 1.4446,26.8608 1.9036,27.6558 L14.8926,50.1528 C15.3506,50.9468 16.2056,51.4408 17.1226,51.4408 L43.1006,51.4408 C44.0176,51.4408 44.8726,50.9478 45.3306,50.1528 L58.3196,27.6558 C58.7786,26.8608 58.7786,25.8748 58.3206,25.0808 L45.3306,2.5828 C44.8726,1.7878 44.0176,1.2948 43.1006,1.2948" id="Stroke-3" stroke="#FEFEFE" stroke-width="3.118" stroke-linejoin="round"></path>
                <path d="M43.1006,2.0744 L17.1226,2.0744 C16.4826,2.0744 15.8866,2.4184 15.5676,2.9724 L2.5786,25.4704 C2.2586,26.0234 2.2586,26.7114 2.5786,27.2654 L15.5676,49.7634 C15.8866,50.3174 16.4826,50.6614 17.1226,50.6614 L43.1006,50.6614 C43.7396,50.6614 44.3356,50.3174 44.6556,49.7634 L57.6446,27.2654 C57.9646,26.7124 57.9646,26.0234 57.6446,25.4704 L44.6556,2.9724 C44.3356,2.4184 43.7406,2.0744 43.1006,2.0744" id="Stroke-5" stroke="#E66879" stroke-width="1.559" stroke-linejoin="round"></path>
                <path d="M43.1006,-0.004 L17.1226,-0.004 C15.7426,-0.004 14.4566,0.739 13.7666,1.934 L0.7786,24.431 C0.0886,25.626 0.0886,27.11 0.7786,28.305 L13.7676,50.803 C14.4566,51.997 15.7426,52.74 17.1226,52.74 L43.1006,52.74 C44.4806,52.74 45.7656,51.997 46.4556,50.803 L59.4446,28.305 C60.1346,27.11 60.1346,25.626 59.4456,24.432 L46.4556,1.933 C45.7656,0.738 44.4806,-0.004 43.1006,-0.004" id="Stroke-7" stroke="#E66879" stroke-width="0.521" stroke-linejoin="round"></path>
                <path d="M34.0954,27.5786 L33.6474,27.5786 C35.5684,26.4256 36.9354,24.4516 37.2624,22.1426 C38.5174,22.0446 39.5124,21.0036 39.5124,19.7236 C39.5124,18.4716 38.5614,17.4496 37.3454,17.3136 L37.3454,16.7436 C37.3454,12.5616 33.9434,9.1596 29.7614,9.1596 C25.5794,9.1596 22.1774,12.5616 22.1774,16.7436 L22.1774,17.3136 C20.9614,17.4496 20.0104,18.4716 20.0104,19.7236 C20.0104,21.0036 21.0054,22.0446 22.2604,22.1426 C22.5874,24.4516 23.9544,26.4256 25.8754,27.5786 L25.4274,27.5786 C21.2454,27.5786 17.8434,30.9806 17.8434,35.1626 L17.8434,38.4136 C17.8434,38.7126 18.0864,38.9546 18.3854,38.9546 L18.9264,38.9546 L18.9264,42.7476 L20.0104,42.7476 L20.0104,38.9546 L22.1774,38.9546 L22.1774,42.7476 L23.2604,42.7476 L23.2604,33.5376 L22.1774,33.5376 L22.1774,37.8716 L18.9264,37.8716 L18.9264,35.1626 C18.9264,31.5786 21.8424,28.6616 25.4274,28.6616 L26.0124,28.6616 C26.2764,30.4966 27.8554,31.9126 29.7614,31.9126 C31.6674,31.9126 33.2464,30.4966 33.5104,28.6616 L34.0954,28.6616 C37.6804,28.6616 40.5964,31.5786 40.5964,35.1626 L40.5964,37.8716 L37.3454,37.8716 L37.3454,33.5376 L36.2624,33.5376 L36.2624,42.7476 L37.3454,42.7476 L37.3454,38.9546 L39.5124,38.9546 L39.5124,42.7476 L40.5964,42.7476 L40.5964,38.9546 L41.1384,38.9546 C41.4374,38.9546 41.6794,38.7126 41.6794,38.4136 L41.6794,35.1626 C41.6794,30.9806 38.2774,27.5786 34.0954,27.5786 M38.4294,19.7236 C38.4294,20.3776 37.9634,20.9246 37.3454,21.0506 L37.3454,18.3966 C37.9634,18.5226 38.4294,19.0696 38.4294,19.7236 M29.7614,10.2426 C33.2574,10.2426 36.1104,13.0206 36.2494,16.4826 L34.9644,17.4456 C34.6164,16.7136 33.8754,16.2026 33.0124,16.2026 C32.0054,16.2026 31.1644,16.8956 30.9224,17.8276 L28.6014,17.8276 C28.3584,16.8956 27.5174,16.2026 26.5114,16.2026 C25.6474,16.2026 24.9064,16.7136 24.5584,17.4466 L23.2734,16.4836 C23.4124,13.0206 26.2654,10.2426 29.7614,10.2426 M34.0954,18.3686 C34.0954,18.9666 33.6094,19.4526 33.0124,19.4526 C32.4144,19.4526 31.9284,18.9666 31.9284,18.3686 C31.9284,17.7716 32.4144,17.2856 33.0124,17.2856 C33.6094,17.2856 34.0954,17.7716 34.0954,18.3686 M27.5944,18.3686 C27.5944,18.9666 27.1084,19.4526 26.5114,19.4526 C25.9134,19.4526 25.4274,18.9666 25.4274,18.3686 C25.4274,17.7716 25.9134,17.2856 26.5114,17.2856 C27.1084,17.2856 27.5944,17.7716 27.5944,18.3686 M21.0934,19.7236 C21.0934,19.0696 21.5594,18.5226 22.1774,18.3966 L22.1774,21.0506 C21.5594,20.9246 21.0934,20.3776 21.0934,19.7236 M23.2604,21.0776 L23.2604,17.8276 L24.3734,18.6626 C24.5184,19.7176 25.4164,20.5356 26.5114,20.5356 C27.5174,20.5356 28.3584,19.8426 28.6014,18.9106 L30.9224,18.9106 C31.1644,19.8426 32.0054,20.5356 33.0124,20.5356 C34.1064,20.5356 35.0044,19.7176 35.1494,18.6626 L36.2624,17.8276 L36.2624,21.0776 C36.2624,24.6626 33.3464,27.5786 29.7614,27.5786 C26.1764,27.5786 23.2604,24.6626 23.2604,21.0776 M29.7614,30.8286 C28.4534,30.8286 27.3594,29.8966 27.1074,28.6616 L32.4154,28.6616 C32.1634,29.8966 31.0694,30.8286 29.7614,30.8286" id="Fill-9" fill="#E66879"></path>
                <path d="M34.0954,27.5786 L33.6474,27.5786 C35.5684,26.4256 36.9354,24.4516 37.2624,22.1426 C38.5174,22.0446 39.5124,21.0036 39.5124,19.7236 C39.5124,18.4716 38.5614,17.4496 37.3454,17.3136 L37.3454,16.7436 C37.3454,12.5616 33.9434,9.1596 29.7614,9.1596 C25.5794,9.1596 22.1774,12.5616 22.1774,16.7436 L22.1774,17.3136 C20.9614,17.4496 20.0104,18.4716 20.0104,19.7236 C20.0104,21.0036 21.0054,22.0446 22.2604,22.1426 C22.5874,24.4516 23.9544,26.4256 25.8754,27.5786 L25.4274,27.5786 C21.2454,27.5786 17.8434,30.9806 17.8434,35.1626 L17.8434,38.4136 C17.8434,38.7126 18.0864,38.9546 18.3854,38.9546 L18.9264,38.9546 L18.9264,42.7476 L20.0104,42.7476 L20.0104,38.9546 L22.1774,38.9546 L22.1774,42.7476 L23.2604,42.7476 L23.2604,33.5376 L22.1774,33.5376 L22.1774,37.8716 L18.9264,37.8716 L18.9264,35.1626 C18.9264,31.5786 21.8424,28.6616 25.4274,28.6616 L26.0124,28.6616 C26.2764,30.4966 27.8554,31.9126 29.7614,31.9126 C31.6674,31.9126 33.2464,30.4966 33.5104,28.6616 L34.0954,28.6616 C37.6804,28.6616 40.5964,31.5786 40.5964,35.1626 L40.5964,37.8716 L37.3454,37.8716 L37.3454,33.5376 L36.2624,33.5376 L36.2624,42.7476 L37.3454,42.7476 L37.3454,38.9546 L39.5124,38.9546 L39.5124,42.7476 L40.5964,42.7476 L40.5964,38.9546 L41.1384,38.9546 C41.4374,38.9546 41.6794,38.7126 41.6794,38.4136 L41.6794,35.1626 C41.6794,30.9806 38.2774,27.5786 34.0954,27.5786 Z M38.4294,19.7236 C38.4294,20.3776 37.9634,20.9246 37.3454,21.0506 L37.3454,18.3966 C37.9634,18.5226 38.4294,19.0696 38.4294,19.7236 Z M29.7614,10.2426 C33.2574,10.2426 36.1104,13.0206 36.2494,16.4826 L34.9644,17.4456 C34.6164,16.7136 33.8754,16.2026 33.0124,16.2026 C32.0054,16.2026 31.1644,16.8956 30.9224,17.8276 L28.6014,17.8276 C28.3584,16.8956 27.5174,16.2026 26.5114,16.2026 C25.6474,16.2026 24.9064,16.7136 24.5584,17.4466 L23.2734,16.4836 C23.4124,13.0206 26.2654,10.2426 29.7614,10.2426 Z M34.0954,18.3686 C34.0954,18.9666 33.6094,19.4526 33.0124,19.4526 C32.4144,19.4526 31.9284,18.9666 31.9284,18.3686 C31.9284,17.7716 32.4144,17.2856 33.0124,17.2856 C33.6094,17.2856 34.0954,17.7716 34.0954,18.3686 Z M27.5944,18.3686 C27.5944,18.9666 27.1084,19.4526 26.5114,19.4526 C25.9134,19.4526 25.4274,18.9666 25.4274,18.3686 C25.4274,17.7716 25.9134,17.2856 26.5114,17.2856 C27.1084,17.2856 27.5944,17.7716 27.5944,18.3686 Z M21.0934,19.7236 C21.0934,19.0696 21.5594,18.5226 22.1774,18.3966 L22.1774,21.0506 C21.5594,20.9246 21.0934,20.3776 21.0934,19.7236 Z M23.2604,21.0776 L23.2604,17.8276 L24.3734,18.6626 C24.5184,19.7176 25.4164,20.5356 26.5114,20.5356 C27.5174,20.5356 28.3584,19.8426 28.6014,18.9106 L30.9224,18.9106 C31.1644,19.8426 32.0054,20.5356 33.0124,20.5356 C34.1064,20.5356 35.0044,19.7176 35.1494,18.6626 L36.2624,17.8276 L36.2624,21.0776 C36.2624,24.6626 33.3464,27.5786 29.7614,27.5786 C26.1764,27.5786 23.2604,24.6626 23.2604,21.0776 Z M29.7614,30.8286 C28.4534,30.8286 27.3594,29.8966 27.1074,28.6616 L32.4154,28.6616 C32.1634,29.8966 31.0694,30.8286 29.7614,30.8286 Z" id="Stroke-11" stroke="#FEFEFE" stroke-width="0.18"></path>
                <path d="M34.5666,24.5952 C34.6636,24.4252 34.6606,24.2172 34.5596,24.0492 L33.7236,22.6562 C33.1396,21.6822 32.0716,21.0782 30.9366,21.0782 L28.5866,21.0782 C27.4516,21.0782 26.3836,21.6822 25.7996,22.6562 L24.9636,24.0492 C24.8626,24.2172 24.8606,24.4252 24.9566,24.5952 C25.0526,24.7652 25.2326,24.8702 25.4276,24.8702 L26.1836,24.8702 C27.4496,24.8702 28.6796,24.5302 29.7616,23.8852 C30.8436,24.5302 32.0736,24.8702 33.3396,24.8702 L34.0956,24.8702 C34.2906,24.8702 34.4706,24.7652 34.5666,24.5952 M30.0616,22.7942 C29.8796,22.6722 29.6436,22.6722 29.4616,22.7942 C28.5446,23.4052 27.4856,23.7452 26.3866,23.7832 L26.7286,23.2132 C27.1176,22.5642 27.8296,22.1612 28.5866,22.1612 L30.9366,22.1612 C31.6936,22.1612 32.4056,22.5642 32.7946,23.2132 L33.1366,23.7822 C32.0386,23.7452 30.9796,23.4052 30.0616,22.7942" id="Fill-13" fill="#E66879"></path>
                <path d="M34.5666,24.5952 C34.6636,24.4252 34.6606,24.2172 34.5596,24.0492 L33.7236,22.6562 C33.1396,21.6822 32.0716,21.0782 30.9366,21.0782 L28.5866,21.0782 C27.4516,21.0782 26.3836,21.6822 25.7996,22.6562 L24.9636,24.0492 C24.8626,24.2172 24.8606,24.4252 24.9566,24.5952 C25.0526,24.7652 25.2326,24.8702 25.4276,24.8702 L26.1836,24.8702 C27.4496,24.8702 28.6796,24.5302 29.7616,23.8852 C30.8436,24.5302 32.0736,24.8702 33.3396,24.8702 L34.0956,24.8702 C34.2906,24.8702 34.4706,24.7652 34.5666,24.5952 Z M30.0616,22.7942 C29.8796,22.6722 29.6436,22.6722 29.4616,22.7942 C28.5446,23.4052 27.4856,23.7452 26.3866,23.7832 L26.7286,23.2132 C27.1176,22.5642 27.8296,22.1612 28.5866,22.1612 L30.9366,22.1612 C31.6936,22.1612 32.4056,22.5642 32.7946,23.2132 L33.1366,23.7822 C32.0386,23.7452 30.9796,23.4052 30.0616,22.7942 Z" id="Stroke-15" stroke="#FEFEFE" stroke-width="0.18"></path>
            </g>
            <polygon id="Fill-18" fill="#E66879" points="28.136 15.9244 31.386 15.9244 31.386 14.8414 28.136 14.8414"></polygon>
            <polygon id="Stroke-19" stroke="#FEFEFE" stroke-width="0.18" points="28.136 15.9244 31.386 15.9244 31.386 14.8414 28.136 14.8414"></polygon>
            <polygon id="Fill-20" fill="#E66879" points="27.053 13.7574 32.47 13.7574 32.47 12.6744 27.053 12.6744"></polygon>
            <polygon id="Stroke-21" stroke="#FEFEFE" stroke-width="0.18" points="27.053 13.7574 32.47 13.7574 32.47 12.6744 27.053 12.6744"></polygon>
        </g>
    </g>
</svg>