<?xml version="1.0" encoding="UTF-8"?>
<svg width="60px" height="53px" viewBox="0 0 60 53" version="1.1" xmlns="http://www.w3.org/2000/svg" xmlns:xlink="http://www.w3.org/1999/xlink">
    <!-- Generator: Sketch 61 (89581) - https://sketch.com -->
    <title>icon-PoC</title>
    <desc>Created with Sketch.</desc>
    <defs>
        <polygon id="path-1" points="0 53 61.9940952 53 61.9940952 0.475037037 0 0.475037037"></polygon>
    </defs>
    <g id="icon-PoC" stroke="none" stroke-width="1" fill="none" fill-rule="evenodd">
        <g id="Group-14">
            <g id="Group-12">
                <path d="M42.6168317,2.78132222 L16.9301333,2.78132222 C16.2973397,2.78132222 15.7088317,3.12091481 15.392927,3.66661852 L2.54908571,25.8520259 C2.23318095,26.3977296 2.23318095,27.0769148 2.54908571,27.6226185 L15.392927,49.8080259 C15.7088317,50.3547111 16.2973397,50.6933222 16.9301333,50.6933222 L42.6168317,50.6933222 C43.2496254,50.6933222 43.8381333,50.3547111 44.1540381,49.8080259 L56.9978794,27.6226185 C57.3137841,27.0769148 57.3137841,26.3987111 56.9978794,25.8520259 L44.1540381,3.66661852 C43.8381333,3.12091481 43.2496254,2.78132222 42.6168317,2.78132222" id="Fill-1" fill="#FEFEFE"></path>
                <path d="M42.6168317,2.01252778 L16.9301333,2.01252778 C16.0227683,2.01252778 15.1783873,2.49934259 14.7247048,3.28256481 L1.88184762,25.4679722 C1.42816508,26.2511944 1.42816508,27.2238426 1.88184762,28.0070648 L14.7247048,50.1924722 C15.1783873,50.9756944 16.0227683,51.4625093 16.9301333,51.4625093 L42.6168317,51.4625093 C43.5232127,51.4625093 44.3685778,50.9756944 44.8222603,50.1924722 L57.6651175,28.0070648 C58.1188,27.2238426 58.1188,26.2511944 57.6661016,25.4679722 L44.8222603,3.28256481 C44.3685778,2.49934259 43.5241968,2.01252778 42.6168317,2.01252778" id="Stroke-3" stroke="#FEFEFE" stroke-width="3.133" stroke-linejoin="round"></path>
                <path d="M42.6168317,2.78132222 L16.9301333,2.78132222 C16.2973397,2.78132222 15.7088317,3.12091481 15.392927,3.66661852 L2.54908571,25.8520259 C2.23318095,26.3977296 2.23318095,27.0769148 2.54908571,27.6226185 L15.392927,49.8080259 C15.7088317,50.3547111 16.2973397,50.6933222 16.9301333,50.6933222 L42.6168317,50.6933222 C43.2496254,50.6933222 43.8381333,50.3547111 44.1540381,49.8080259 L56.9978794,27.6226185 C57.3137841,27.0769148 57.3137841,26.3987111 56.9978794,25.8520259 L44.1540381,3.66661852 C43.8381333,3.12091481 43.2496254,2.78132222 42.6168317,2.78132222" id="Stroke-5" stroke="#F3961A" stroke-width="1.567" stroke-linejoin="round"></path>
                <path d="M42.6168317,0.731694444 L16.9301333,0.731694444 C15.5661333,0.731694444 14.2946413,1.46387963 13.6126413,2.64263889 L0.769784127,24.8270648 C0.087784127,26.0058241 0.087784127,27.469213 0.769784127,28.6479722 L13.6126413,50.8333796 C14.2946413,52.0111574 15.5661333,52.7433426 16.9301333,52.7433426 L42.6168317,52.7433426 C43.9808317,52.7433426 45.2523238,52.0111574 45.9343238,50.8333796 L58.777181,28.6479722 C59.459181,27.469213 59.459181,26.0058241 58.7781651,24.8280463 L45.9343238,2.64165741 C45.2523238,1.46387963 43.9808317,0.731694444 42.6168317,0.731694444" id="Stroke-7" stroke="#F3961A" stroke-width="0.523" stroke-linejoin="round"></path>
                <path d="M17.6925365,36.2241259 L23.0934254,38.6218852 C23.470346,37.9387741 23.8472667,37.255663 24.2241873,36.5715704 C24.7910444,35.5419963 25.632473,34.6998852 26.6559651,34.1374963 C27.4993619,33.6722741 28.2069492,32.989163 28.7029492,32.1607926 L30.8916476,28.5037926 C31.0304095,28.272163 31.2114889,28.0758667 31.4309492,27.9207926 L35.6252984,24.9508296 C35.9717111,24.7054593 36.1075206,24.2431815 35.9500603,23.8535333 C35.8496794,23.608163 35.6489175,23.4236444 35.3979651,23.3480704 C35.1450444,23.2715148 34.8724413,23.3147 34.6490444,23.4658481 C29.9321238,27.0011444 29.7608857,26.8499963 29.5040286,26.6232741 C29.3131079,26.2591444 29.196981,25.9764778 34.164854,19.0560519 C34.3921873,18.7154778 34.3547905,18.2463296 34.0703778,17.9499222 C33.8932349,17.7644222 33.6452349,17.6711815 33.3893619,17.6917926 C33.1226635,17.7124037 32.8805683,17.853737 32.7260603,18.0794778 C28.3024095,24.7457 28.2108857,24.7417741 27.9382825,24.7280333 L27.7286635,24.7182185 L27.6272984,24.5307556 L27.5456159,24.376663 L27.5938381,24.1597556 C27.6115524,24.1195148 27.6282825,24.0782926 27.6459968,24.0370704 C28.7570762,21.0818296 29.8681556,18.1265889 30.980219,15.1723296 C31.2144413,14.6442926 30.9969492,14.0534407 30.5029175,13.8345704 C30.010854,13.6157 29.4262825,13.8502741 29.1999333,14.3577 C25.1955206,24.1362 24.9465365,24.0753481 24.5706,23.9840704 C24.1848222,23.8908296 23.9299333,23.8289963 25.0892349,15.5384222 C25.1236794,15.1939222 24.9612984,14.8769037 24.6542508,14.704163 C24.3511397,14.5343667 23.9998063,14.5598852 23.7144095,14.7738481 C23.5392349,14.9043852 23.4172032,15.0957741 23.3699651,15.3107185 L22.702727,18.3729407 L21.8534254,24.5287926 C21.7412349,25.3453852 21.1281238,26.0088667 20.3270444,26.1816074 C19.3301238,26.3945889 18.3794571,25.8194407 18.1166952,24.880163 C17.9060921,24.1263852 17.478981,23.5865704 16.8875206,23.263663 C16.4112032,23.0016074 15.8728857,22.9073852 15.3414571,22.9859037 C15.6386635,23.9016259 15.936854,24.8173481 16.2340603,25.7340519 L17.2565683,29.6805889 C17.3185683,29.9190889 17.4366635,30.1409037 17.5970762,30.3214963 C18.7012667,31.5640519 18.9699333,33.3631074 18.2810444,34.9050148 C18.0852032,35.3447185 17.8883778,35.7844222 17.6925365,36.2241259 Z" id="Stroke-9" stroke="#F3961A" stroke-width="0.75"></path>
                <mask id="mask-2" fill="white">
                    <use xlink:href="#path-1"></use>
                </mask>
                <g id="Clip-11"></g>
                <text id="weiß" mask="url(#mask-2)" font-family="Stolzl-Bold, Stolzl" font-size="8.773" font-weight="bold" letter-spacing="0.002" fill="#000000" fill-opacity="0">
                    <tspan x="23.8323079" y="36.4105587">w</tspan>
                    <tspan x="31.4054069" y="36.4105587" letter-spacing="0.2169385">e</tspan>
                    <tspan x="37.2897034" y="36.4105587" letter-spacing="0.2713311">i</tspan>
                    <tspan x="23.8323079" y="48.4105587">ß</tspan>
                </text>
            </g>
            <text id="weiß" stroke="#FFFFFF" stroke-width="2" font-family="Stolzl-Bold, Stolzl" font-size="8.773" font-weight="bold" letter-spacing="0.002" fill="#F5A136">
                <tspan x="24" y="36">w</tspan>
                <tspan x="31.573099" y="36" letter-spacing="0.2169385">e</tspan>
                <tspan x="37.4573955" y="36" letter-spacing="0.2713311">i</tspan>
                <tspan x="40.0974366" y="36">ß</tspan>
            </text>
            <polygon id="Fill-13" fill="#FEFEFE" points="17 36.8126824 19.0686094 34 24 36.5004863 22.8869713 39 17.1594285 37.7502431"></polygon>
        </g>
    </g>
</svg>