<?xml version="1.0" encoding="UTF-8"?>
<svg width="60px" height="53px" viewBox="0 0 60 53" version="1.1" xmlns="http://www.w3.org/2000/svg" xmlns:xlink="http://www.w3.org/1999/xlink">
    <!-- Generator: Sketch 61 (89581) - https://sketch.com -->
    <title>icon-female</title>
    <desc>Created with Sketch.</desc>
    <g id="icon-female" stroke="none" stroke-width="1" fill="none" fill-rule="evenodd">
        <g id="Group-15">
            <path d="M43.1006,2.3388 L17.1226,2.3388 C16.4826,2.3388 15.8866,2.6828 15.5676,3.2368 L2.5786,25.7348 C2.2586,26.2878 2.2586,26.9758 2.5786,27.5298 L15.5676,50.0278 C15.8866,50.5818 16.4826,50.9258 17.1226,50.9258 L43.1006,50.9258 C43.7396,50.9258 44.3356,50.5818 44.6556,50.0278 L57.6446,27.5298 C57.9646,26.9768 57.9646,26.2878 57.6446,25.7348 L44.6556,3.2368 C44.3356,2.6828 43.7406,2.3388 43.1006,2.3388" id="Fill-1" fill="#FEFEFE"></path>
            <path d="M43.1006,1.5592 L17.1226,1.5592 C16.2046,1.5592 15.3506,2.0532 14.8916,2.8472 L1.9036,25.3442 C1.4446,26.1392 1.4446,27.1252 1.9036,27.9202 L14.8926,50.4172 C15.3506,51.2112 16.2056,51.7052 17.1226,51.7052 L43.1006,51.7052 C44.0176,51.7052 44.8726,51.2122 45.3306,50.4172 L58.3196,27.9202 C58.7786,27.1252 58.7786,26.1392 58.3206,25.3452 L45.3306,2.8472 C44.8726,2.0522 44.0176,1.5592 43.1006,1.5592" id="Stroke-3" stroke="#FEFEFE" stroke-width="3.118" stroke-linejoin="round"></path>
            <path d="M43.1006,2.3388 L17.1226,2.3388 C16.4826,2.3388 15.8866,2.6828 15.5676,3.2368 L2.5786,25.7348 C2.2586,26.2878 2.2586,26.9758 2.5786,27.5298 L15.5676,50.0278 C15.8866,50.5818 16.4826,50.9258 17.1226,50.9258 L43.1006,50.9258 C43.7396,50.9258 44.3356,50.5818 44.6556,50.0278 L57.6446,27.5298 C57.9646,26.9768 57.9646,26.2878 57.6446,25.7348 L44.6556,3.2368 C44.3356,2.6828 43.7406,2.3388 43.1006,2.3388" id="Stroke-5" stroke="#61388D" stroke-width="1.559" stroke-linejoin="round"></path>
            <path d="M43.1006,0.2604 L17.1226,0.2604 C15.7426,0.2604 14.4566,1.0034 13.7666,2.1984 L0.7786,24.6954 C0.0886,25.8904 0.0886,27.3744 0.7786,28.5694 L13.7676,51.0674 C14.4566,52.2614 15.7426,53.0044 17.1226,53.0044 L43.1006,53.0044 C44.4806,53.0044 45.7656,52.2614 46.4556,51.0674 L59.4446,28.5694 C60.1346,27.3744 60.1346,25.8904 59.4456,24.6964 L46.4556,2.1974 C45.7656,1.0024 44.4806,0.2604 43.1006,0.2604" id="Stroke-7" stroke="#61388D" stroke-width="0.521" stroke-linejoin="round"></path>
            <path d="M32.747,35.3997 L31.611,35.3997 L31.611,33.8867 C31.611,33.6437 31.414,33.4457 31.17,33.4457 C30.926,33.4457 30.729,33.6437 30.729,33.8867 L30.729,35.8407 C30.729,36.0847 30.926,36.2817 31.17,36.2817 L32.747,36.2817 C33.087,36.2817 33.364,36.5587 33.364,36.8987 C33.364,37.2397 33.087,37.5167 32.747,37.5167 L31.17,37.5167 C30.926,37.5167 30.729,37.7137 30.729,37.9577 L30.729,40.0617 C30.729,40.4017 30.452,40.6787 30.112,40.6787 C29.771,40.6787 29.494,40.4017 29.494,40.0617 L29.494,37.9577 C29.494,37.7137 29.297,37.5167 29.053,37.5167 L27.476,37.5167 C27.136,37.5167 26.859,37.2397 26.859,36.8987 C26.859,36.5587 27.136,36.2817 27.476,36.2817 L29.053,36.2817 C29.297,36.2817 29.494,36.0847 29.494,35.8407 L29.494,30.2437 C29.494,30.0197 29.326,29.8317 29.104,29.8057 C24.753,29.2977 21.472,25.6087 21.472,21.2247 C21.472,16.4607 25.348,12.5857 30.112,12.5857 C32.415,12.5857 34.584,13.4847 36.218,15.1187 C36.39,15.2907 36.669,15.2907 36.841,15.1187 C37.014,14.9467 37.014,14.6677 36.841,14.4947 C35.041,12.6947 32.651,11.7027 30.112,11.7027 C24.861,11.7027 20.59,15.9747 20.59,21.2247 C20.59,25.9247 24.011,29.8997 28.612,30.6277 L28.612,35.3997 L27.476,35.3997 C26.649,35.3997 25.976,36.0727 25.976,36.8997 C25.976,37.7257 26.649,38.3987 27.476,38.3987 L28.612,38.3987 L28.612,40.0617 C28.612,40.8887 29.285,41.5617 30.112,41.5617 C30.938,41.5617 31.611,40.8887 31.611,40.0617 L31.611,38.3987 L32.747,38.3987 C33.574,38.3987 34.247,37.7257 34.247,36.8997 C34.247,36.0727 33.574,35.3997 32.747,35.3997" id="Fill-9" fill="#61388D"></path>
            <path d="M30.1116,27.7473 C26.5146,27.7473 23.5886,24.8213 23.5886,21.2253 C23.5886,20.9813 23.3916,20.7843 23.1476,20.7843 C22.9046,20.7843 22.7066,20.9813 22.7066,21.2253 C22.7066,25.3083 26.0286,28.6293 30.1116,28.6293 C34.1946,28.6293 37.5166,25.3083 37.5166,21.2253 C37.5166,17.1423 34.1946,13.8203 30.1116,13.8203 C26.7396,13.8203 23.7916,16.0993 22.9436,19.3633 C22.8826,19.5993 23.0236,19.8403 23.2596,19.9013 C23.4956,19.9623 23.7366,19.8213 23.7976,19.5853 C24.5446,16.7103 27.1406,14.7023 30.1116,14.7023 C33.7076,14.7023 36.6336,17.6283 36.6336,21.2253 C36.6336,24.8213 33.7076,27.7473 30.1116,27.7473" id="Fill-11" fill="#61388D"></path>
            <path d="M38.0046,15.9042 C37.8686,15.7022 37.5946,15.6492 37.3926,15.7862 C37.1906,15.9222 37.1376,16.1962 37.2736,16.3982 C38.2406,17.8272 38.7516,19.4962 38.7516,21.2252 C38.7516,23.6392 37.7256,25.9622 35.9386,27.5982 C35.5256,27.9752 35.0756,28.3142 34.5996,28.6042 C33.5306,29.2562 32.3596,29.6612 31.1186,29.8052 C30.8966,29.8312 30.7286,30.0202 30.7286,30.2432 L30.7286,32.1232 C30.7286,32.3662 30.9266,32.5642 31.1696,32.5642 C31.4136,32.5642 31.6116,32.3662 31.6116,32.1232 L31.6116,30.6282 C32.8356,30.4342 33.9936,30.0082 35.0586,29.3572 C35.5836,29.0372 36.0796,28.6642 36.5336,28.2482 C38.5036,26.4462 39.6336,23.8862 39.6336,21.2252 C39.6336,19.3202 39.0696,17.4802 38.0046,15.9042" id="Fill-13" fill="#61388D"></path>
        </g>
    </g>
</svg>