<?xml version="1.0" encoding="UTF-8"?>
<svg width="60px" height="53px" viewBox="0 0 60 53" version="1.1" xmlns="http://www.w3.org/2000/svg" xmlns:xlink="http://www.w3.org/1999/xlink">
    <!-- Generator: Sketch 61 (89581) - https://sketch.com -->
    <title>icon-male</title>
    <desc>Created with Sketch.</desc>
    <g id="icon-male" stroke="none" stroke-width="1" fill="none" fill-rule="evenodd">
        <g id="Group-15">
            <path d="M43.1006,2.3388 L17.1226,2.3388 C16.4826,2.3388 15.8866,2.6828 15.5676,3.2368 L2.5786,25.7348 C2.2586,26.2878 2.2586,26.9758 2.5786,27.5298 L15.5676,50.0278 C15.8866,50.5818 16.4826,50.9258 17.1226,50.9258 L43.1006,50.9258 C43.7396,50.9258 44.3356,50.5818 44.6556,50.0278 L57.6446,27.5298 C57.9646,26.9768 57.9646,26.2878 57.6446,25.7348 L44.6556,3.2368 C44.3356,2.6828 43.7406,2.3388 43.1006,2.3388" id="Fill-1" fill="#FEFEFE"></path>
            <path d="M43.1006,1.5592 L17.1226,1.5592 C16.2046,1.5592 15.3506,2.0532 14.8916,2.8472 L1.9036,25.3442 C1.4446,26.1392 1.4446,27.1252 1.9036,27.9202 L14.8926,50.4172 C15.3506,51.2112 16.2056,51.7052 17.1226,51.7052 L43.1006,51.7052 C44.0176,51.7052 44.8726,51.2122 45.3306,50.4172 L58.3196,27.9202 C58.7786,27.1252 58.7786,26.1392 58.3206,25.3452 L45.3306,2.8472 C44.8726,2.0522 44.0176,1.5592 43.1006,1.5592" id="Stroke-3" stroke="#FEFEFE" stroke-width="3.118" stroke-linejoin="round"></path>
            <path d="M43.1006,2.3388 L17.1226,2.3388 C16.4826,2.3388 15.8866,2.6828 15.5676,3.2368 L2.5786,25.7348 C2.2586,26.2878 2.2586,26.9758 2.5786,27.5298 L15.5676,50.0278 C15.8866,50.5818 16.4826,50.9258 17.1226,50.9258 L43.1006,50.9258 C43.7396,50.9258 44.3356,50.5818 44.6556,50.0278 L57.6446,27.5298 C57.9646,26.9768 57.9646,26.2878 57.6446,25.7348 L44.6556,3.2368 C44.3356,2.6828 43.7406,2.3388 43.1006,2.3388" id="Stroke-5" stroke="#61388D" stroke-width="1.559" stroke-linejoin="round"></path>
            <path d="M43.1006,0.2604 L17.1226,0.2604 C15.7426,0.2604 14.4566,1.0034 13.7666,2.1984 L0.7786,24.6954 C0.0886,25.8904 0.0886,27.3744 0.7786,28.5694 L13.7676,51.0674 C14.4566,52.2614 15.7426,53.0044 17.1226,53.0044 L43.1006,53.0044 C44.4806,53.0044 45.7656,52.2614 46.4556,51.0674 L59.4446,28.5694 C60.1346,27.3744 60.1346,25.8904 59.4456,24.6964 L46.4556,2.1974 C45.7656,1.0024 44.4806,0.2604 43.1006,0.2604" id="Stroke-7" stroke="#61388D" stroke-width="0.521" stroke-linejoin="round"></path>
            <path d="M35.77,16.1837 C36.074,16.4927 36.481,16.6657 36.916,16.6697 L37.767,16.6767 L35.835,18.6097 C35.648,18.7967 35.648,19.0987 35.835,19.2857 C36.021,19.4727 36.324,19.4727 36.511,19.2857 L39.251,16.5467 C39.544,16.2537 39.332,15.7337 38.917,15.7297 L36.924,15.7127 C36.559,15.7107 36.256,15.4027 36.26,15.0377 C36.264,14.6727 36.57,14.3707 36.935,14.3737 L41.666,14.4137 C42.023,14.4167 42.327,14.7207 42.33,15.0777 L42.37,19.8087 C42.373,20.1737 42.071,20.4807 41.706,20.4837 C41.341,20.4867 41.034,20.1847 41.031,19.8197 L41.014,17.8277 C41.01,17.4117 40.491,17.1997 40.197,17.4937 L34.605,23.0857 C34.434,23.2567 34.418,23.5297 34.569,23.7197 C37.516,27.4457 37.203,32.7897 33.841,36.1517 C30.189,39.8037 24.245,39.8037 20.593,36.1517 C19.267,34.8257 18.379,33.1547 18.024,31.3177 C17.974,31.0587 17.723,30.8887 17.464,30.9387 C17.205,30.9887 17.035,31.2397 17.085,31.4997 C17.476,33.5247 18.455,35.3667 19.916,36.8277 C23.942,40.8537 30.492,40.8537 34.518,36.8277 C38.122,33.2237 38.546,27.5527 35.577,23.4667 L40.067,18.9767 L40.074,19.8277 C40.078,20.2577 40.247,20.6607 40.55,20.9637 L40.56,20.9737 C40.87,21.2787 41.28,21.4437 41.714,21.4407 C42.148,21.4367 42.555,21.2637 42.86,20.9547 C43.164,20.6447 43.33,20.2347 43.3260706,19.8007 L43.286,15.0697 C43.283,14.6287 43.1,14.2277 42.808,13.9357 C42.516,13.6437 42.115,13.4617 41.674,13.4577 L36.943,13.4176294 C36.509,13.4137 36.099,13.5797 35.789,13.8837 C35.48,14.1887 35.307,14.5957 35.303,15.0297 C35.3,15.4637 35.465,15.8737 35.77,16.1837" id="Fill-9" fill="#61388D"></path>
            <path d="M16.8966826,29.545 C16.8977,29.809 17.1117,30.023 17.3757,30.0220035 C17.6397,30.0220035 17.8537,29.807 17.8527,29.543 C17.8487,27.032 18.8217,24.673 20.5927,22.902 C23.9547,19.541 29.2987,19.228 33.0237,22.175 C33.2147,22.326 33.4867,22.31 33.6587,22.138 L35.1587,20.639 C35.3447,20.452 35.3447,20.149 35.1587,19.962 C34.9717,19.776 34.6687,19.776 34.4817,19.962 L33.2777,21.167 C29.1917,18.198 23.5197,18.622 19.9167,22.226 C17.9637,24.178 16.8917,26.777 16.8966826,29.545" id="Fill-11" fill="#61388D"></path>
            <path d="M32.2183,24.5257 C34.9763,27.2837 34.9763,31.7707 32.2183,34.5277 C32.0313,34.7147 32.0313,35.0177 32.2183,35.2047 C32.4053,35.3917 32.7083,35.3917 32.8943,35.2047 C36.0253,32.0737 36.0253,26.9797 32.8943,23.8497 C29.7643,20.7187 24.6703,20.7187 21.5393,23.8497 C18.4083,26.9797 18.4083,32.0737 21.5393,35.2047 C24.1303,37.7947 28.1433,38.3037 31.2983,36.4427 C31.5253,36.3087 31.6013,36.0147 31.4673,35.7877 C31.3323,35.5597 31.0393,35.4847 30.8123,35.6187 C28.0323,37.2587 24.4973,36.8097 22.2163,34.5277 C19.4583,31.7707 19.4583,27.2837 22.2153,24.5257 C24.9733,21.7677 29.4603,21.7677 32.2183,24.5257" id="Fill-13" fill="#61388D"></path>
        </g>
    </g>
</svg>