<?xml version="1.0" encoding="UTF-8"?>
<svg width="60px" height="53px" viewBox="0 0 60 53" version="1.1" xmlns="http://www.w3.org/2000/svg" xmlns:xlink="http://www.w3.org/1999/xlink">
    <!-- Generator: Sketch 61 (89581) - https://sketch.com -->
    <title>icon-divers-2</title>
    <desc>Created with Sketch.</desc>
    <g id="icon-divers-2" stroke="none" stroke-width="1" fill="none" fill-rule="evenodd">
        <g id="Group-12">
            <g id="Group-9" transform="translate(0.000000, 0.264400)">
                <path d="M43.1006,2.0744 L17.1226,2.0744 C16.4826,2.0744 15.8866,2.4184 15.5676,2.9724 L2.5786,25.4704 C2.2586,26.0234 2.2586,26.7114 2.5786,27.2654 L15.5676,49.7634 C15.8866,50.3174 16.4826,50.6614 17.1226,50.6614 L43.1006,50.6614 C43.7396,50.6614 44.3356,50.3174 44.6556,49.7634 L57.6446,27.2654 C57.9646,26.7124 57.9646,26.0234 57.6446,25.4704 L44.6556,2.9724 C44.3356,2.4184 43.7406,2.0744 43.1006,2.0744" id="Fill-1" fill="#FEFEFE"></path>
                <path d="M43.1006,1.2948 L17.1226,1.2948 C16.2046,1.2948 15.3506,1.7888 14.8916,2.5828 L1.9036,25.0798 C1.4446,25.8748 1.4446,26.8608 1.9036,27.6558 L14.8926,50.1528 C15.3506,50.9468 16.2056,51.4408 17.1226,51.4408 L43.1006,51.4408 C44.0176,51.4408 44.8726,50.9478 45.3306,50.1528 L58.3196,27.6558 C58.7786,26.8608 58.7786,25.8748 58.3206,25.0808 L45.3306,2.5828 C44.8726,1.7878 44.0176,1.2948 43.1006,1.2948" id="Stroke-3" stroke="#FEFEFE" stroke-width="3.118" stroke-linejoin="round"></path>
                <path d="M43.1006,2.0744 L17.1226,2.0744 C16.4826,2.0744 15.8866,2.4184 15.5676,2.9724 L2.5786,25.4704 C2.2586,26.0234 2.2586,26.7114 2.5786,27.2654 L15.5676,49.7634 C15.8866,50.3174 16.4826,50.6614 17.1226,50.6614 L43.1006,50.6614 C43.7396,50.6614 44.3356,50.3174 44.6556,49.7634 L57.6446,27.2654 C57.9646,26.7124 57.9646,26.0234 57.6446,25.4704 L44.6556,2.9724 C44.3356,2.4184 43.7406,2.0744 43.1006,2.0744" id="Stroke-5" stroke="#61388D" stroke-width="1.559" stroke-linejoin="round"></path>
                <path d="M43.1006,-0.0041 L17.1226,-0.0041 C15.7426,-0.0041 14.4566,0.7389 13.7666,1.9339 L0.7786,24.4309 C0.0886,25.6259 0.0886,27.1099 0.7786,28.3049 L13.7676,50.8029 C14.4566,51.9969 15.7426,52.7399 17.1226,52.7399 L43.1006,52.7399 C44.4806,52.7399 45.7656,51.9969 46.4556,50.8029 L59.4446,28.3049 C60.1346,27.1099 60.1346,25.6259 59.4456,24.4319 L46.4556,1.9329 C45.7656,0.7379 44.4806,-0.0041 43.1006,-0.0041" id="Stroke-7" stroke="#61388D" stroke-width="0.521" stroke-linejoin="round"></path>
            </g>
            <text id="divers" font-family="Stolzl-Medium, Stolzl" font-size="7" font-weight="400" letter-spacing="0.2614" fill="#6E4997">
                <tspan x="18.5217" y="47.609283">d</tspan>
                <tspan x="23.5151" y="47.609283" letter-spacing="0.1606">i</tspan>
                <tspan x="25.4817" y="47.609283" letter-spacing="0.001">v</tspan>
                <tspan x="29.3887" y="47.609283" letter-spacing="0.2054">e</tspan>
                <tspan x="34.1581" y="47.609283" letter-spacing="0.1508">r</tspan>
                <tspan x="37.2839" y="47.609283" letter-spacing="0.001">s</tspan>
            </text>
            <path d="M30.1225,37.1982 C25.2575,37.1982 21.2995,33.2402 21.2995,28.3752 C21.2995,24.0202 24.4705,20.3372 28.7325,19.6632 L28.7325,10.9222 C28.7325,10.1552 29.3565,9.5322 30.1225,9.5322 C30.8885,9.5322 31.5115,10.1552 31.5115,10.9222 L31.5115,14.7142 C31.5115,14.9392 31.3285,15.1222 31.1035,15.1222 C30.8775,15.1222 30.6945,14.9392 30.6945,14.7142 L30.6945,10.9222 C30.6945,10.6062 30.4375,10.3502 30.1225,10.3502 C29.8065,10.3502 29.5505,10.6062 29.5505,10.9222 L29.5505,20.0192 C29.5505,20.2262 29.3945,20.4012 29.1885,20.4252 C25.1575,20.8952 22.1175,24.3132 22.1175,28.3752 C22.1175,32.7892 25.7085,36.3812 30.1225,36.3812 C31.8455,36.3812 33.4875,35.8392 34.8725,34.8152 C35.0535,34.6812 35.3095,34.7192 35.4435,34.9012 C35.5785,35.0822 35.5395,35.3382 35.3585,35.4722 C33.8325,36.6012 32.0215,37.1982 30.1225,37.1982 M30.1225,35.2362 C28.4745,35.2362 26.8815,34.6412 25.6345,33.5612 C24.4005,32.4922 23.5855,31.0212 23.3405,29.4182 C23.3035,29.1742 23.4985,28.9482 23.7445,28.9482 L26.7015,28.9482 C26.9275,28.9482 27.1105,29.1312 27.1105,29.3562 C27.1105,29.5822 26.9275,29.7652 26.7015,29.7652 L24.2405,29.7652 C24.5305,30.9922 25.2045,32.1072 26.1695,32.9432 C27.2675,33.8952 28.6715,34.4192 30.1225,34.4192 C31.5735,34.4192 32.9775,33.8952 34.0755,32.9432 C35.0405,32.1072 35.7145,30.9922 36.0045,29.7652 L28.3365,29.7652 C28.1105,29.7652 27.9275,29.5822 27.9275,29.3562 C27.9275,29.1312 28.1105,28.9482 28.3365,28.9482 L36.5005,28.9482 C36.7465,28.9482 36.9415,29.1742 36.9045,29.4182 C36.6585,31.0212 35.8445,32.4922 34.6105,33.5612 C33.3635,34.6412 31.7695,35.2362 30.1225,35.2362 M36.3325,34.4552 C35.9835,34.4552 35.7975,34.0272 36.0315,33.7702 C37.3835,32.2912 38.1275,30.3752 38.1275,28.3762 C38.1275,24.3132 35.0875,20.8952 31.0555,20.4252 C30.8495,20.4012 30.6945,20.2262 30.6945,20.0192 L30.6945,16.3482 C30.6945,16.1232 30.8775,15.9402 31.1035,15.9402 C31.3285,15.9402 31.5115,16.1232 31.5115,16.3482 L31.5115,19.6632 C35.7745,20.3372 38.9445,24.0212 38.9445,28.3762 C38.9445,30.5802 38.1245,32.6922 36.6345,34.3222 C36.5545,34.4102 36.4435,34.4552 36.3325,34.4552 M36.5005,27.8032 L23.7445,27.8032 C23.4985,27.8032 23.3035,27.5762 23.3405,27.3332 C23.5855,25.7302 24.4005,24.2592 25.6345,23.1902 C26.8815,22.1092 28.4745,21.5142 30.1225,21.5142 C31.7695,21.5142 33.3635,22.1092 34.6105,23.1902 C35.8445,24.2592 36.6585,25.7302 36.9045,27.3332 C36.9415,27.5762 36.7465,27.8032 36.5005,27.8032 M24.2405,26.9862 L36.0045,26.9862 C35.7145,25.7592 35.0405,24.6442 34.0755,23.8072 C32.9775,22.8562 31.5735,22.3322 30.1225,22.3322 C28.6715,22.3322 27.2675,22.8562 26.1695,23.8072 C25.2045,24.6442 24.5305,25.7592 24.2405,26.9862" id="Fill-10" fill="#61388D"></path>
        </g>
    </g>
</svg>