<?xml version="1.0" encoding="UTF-8"?>
<svg width="60px" height="53px" viewBox="0 0 60 53" version="1.1" xmlns="http://www.w3.org/2000/svg" xmlns:xlink="http://www.w3.org/1999/xlink">
    <!-- Generator: Sketch 61 (89581) - https://sketch.com -->
    <title>icon-finger</title>
    <desc>Created with Sketch.</desc>
    <g id="icon-finger" stroke="none" stroke-width="1" fill="none" fill-rule="evenodd">
        <g id="Group-77">
            <g id="Group-9" transform="translate(0.000000, 0.264400)">
                <path d="M43.1006,2.0744 L17.1226,2.0744 C16.4826,2.0744 15.8866,2.4184 15.5676,2.9724 L2.5786,25.4704 C2.2586,26.0234 2.2586,26.7114 2.5786,27.2654 L15.5676,49.7634 C15.8866,50.3174 16.4826,50.6614 17.1226,50.6614 L43.1006,50.6614 C43.7406,50.6614 44.3356,50.3174 44.6556,49.7634 L57.6446,27.2654 C57.9646,26.7124 57.9646,26.0234 57.6446,25.4704 L44.6556,2.9724 C44.3356,2.4184 43.7406,2.0744 43.1006,2.0744" id="Fill-1" fill="#FEFEFE"></path>
                <path d="M43.1006,1.2948 L17.1226,1.2948 C16.2046,1.2948 15.3506,1.7888 14.8916,2.5828 L1.9036,25.0798 C1.4446,25.8748 1.4446,26.8608 1.9036,27.6558 L14.8926,50.1528 C15.3506,50.9468 16.2056,51.4408 17.1226,51.4408 L43.1006,51.4408 C44.0176,51.4408 44.8726,50.9478 45.3306,50.1528 L58.3196,27.6558 C58.7786,26.8608 58.7786,25.8748 58.3206,25.0808 L45.3306,2.5828 C44.8726,1.7878 44.0176,1.2948 43.1006,1.2948" id="Stroke-3" stroke="#FEFEFE" stroke-width="3.118" stroke-linejoin="round"></path>
                <path d="M43.1006,2.0744 L17.1226,2.0744 C16.4826,2.0744 15.8866,2.4184 15.5676,2.9724 L2.5786,25.4704 C2.2586,26.0234 2.2586,26.7114 2.5786,27.2654 L15.5676,49.7634 C15.8866,50.3174 16.4826,50.6614 17.1226,50.6614 L43.1006,50.6614 C43.7406,50.6614 44.3356,50.3174 44.6556,49.7634 L57.6446,27.2654 C57.9646,26.7124 57.9646,26.0234 57.6446,25.4704 L44.6556,2.9724 C44.3356,2.4184 43.7406,2.0744 43.1006,2.0744" id="Stroke-5" stroke="#79C5B9" stroke-width="1.559" stroke-linejoin="round"></path>
                <path d="M43.1006,-0.004 L17.1226,-0.004 C15.7426,-0.004 14.4566,0.739 13.7666,1.934 L0.7786,24.431 C0.0886,25.626 0.0886,27.11 0.7786,28.305 L13.7676,50.803 C14.4566,51.997 15.7426,52.74 17.1226,52.74 L43.1006,52.74 C44.4806,52.74 45.7656,51.997 46.4556,50.803 L59.4446,28.305 C60.1346,27.11 60.1346,25.626 59.4456,24.432 L46.4556,1.933 C45.7656,0.738 44.4806,-0.004 43.1006,-0.004" id="Stroke-7" stroke="#79C5B9" stroke-width="0.521" stroke-linejoin="round"></path>
            </g>
            <line x1="41.6239" y1="16.7956" x2="39.7679" y2="21.0386" id="Stroke-10" stroke="#FEFEFE" stroke-width="1.871" stroke-linecap="round"></line>
            <g id="Group-75" transform="translate(17.000000, 14.264400)" fill="#79C5B9">
                <path d="M24.1512,0.0745 L22.5302,0.0745 C22.3042,0.0745 22.1212,0.2575 22.1212,0.4845 C22.1212,0.7105 22.3042,0.8935 22.5302,0.8935 L24.1512,0.8935 C24.3862,0.8935 24.5772,1.0845 24.5782,1.3205 L24.5782,2.9415 C24.5782,3.1675 24.7612,3.3505 24.9872,3.3505 C25.2132,3.3505 25.3972,3.1675 25.3972,2.9415 L25.3972,1.3205 C25.3962,0.6325 24.8392,0.0755 24.1512,0.0745" id="Fill-11"></path>
                <path d="M24.9872,21.3692 C24.7612,21.3692 24.5782,21.5522 24.5782,21.7782 L24.5782,23.3992 C24.5772,23.6352 24.3862,23.8262 24.1512,23.8262 L22.5302,23.8262 C22.3042,23.8262 22.1212,24.0092 22.1212,24.2352 C22.1212,24.4622 22.3042,24.6452 22.5302,24.6452 L24.1512,24.6452 C24.8392,24.6442 25.3962,24.0872 25.3972,23.3992 L25.3972,21.7782 C25.3972,21.5522 25.2132,21.3692 24.9872,21.3692" id="Fill-13"></path>
                <path d="M1.2358,3.3506 C1.4618,3.3506 1.6448,3.1676 1.6448,2.9416 L1.6448,1.3206 C1.6458,1.0846 1.8368,0.8936 2.0718,0.8936 L3.6928,0.8936 C3.9188,0.8936 4.1018,0.7106 4.1018,0.4846 C4.1018,0.2576 3.9188,0.0746 3.6928,0.0746 L2.0718,0.0746 C1.3838,0.0756 0.8268,0.6326 0.8258,1.3206 L0.8258,2.9416 C0.8258,3.1676 1.0098,3.3506 1.2358,3.3506" id="Fill-15"></path>
                <path d="M2.0718,24.6452 L3.6928,24.6452 C3.9188,24.6452 4.1018,24.4622 4.1018,24.2352 C4.1018,24.0092 3.9188,23.8262 3.6928,23.8262 L2.0718,23.8262 C1.8368,23.8262 1.6458,23.6352 1.6448,23.3992 L1.6448,21.8602 C1.6448,21.6342 1.4618,21.4512 1.2358,21.4512 C1.0098,21.4512 0.8258,21.6342 0.8258,21.8602 L0.8258,23.3992 C0.8268,24.0872 1.3838,24.6442 2.0718,24.6452" id="Fill-17"></path>
                <path d="M6.5626,20.4272 C6.6426,20.4272 6.7206,20.4042 6.7876,20.3602 C6.9746,20.2362 7.1586,20.1072 7.3376,19.9722 C7.5166,19.8372 7.6906,19.6972 7.8616,19.5532 C8.0316,19.4082 8.1966,19.2582 8.3586,19.1032 C8.5196,18.9472 8.6756,18.7882 8.8276,18.6252 C8.9786,18.4612 9.1256,18.2922 9.2666,18.1192 C9.4066,17.9472 9.5446,17.7692 9.6756,17.5872 C9.8076,17.4052 9.9316,17.2182 10.0516,17.0302 C10.1716,16.8422 10.2866,16.6472 10.3946,16.4502 C10.5026,16.2532 10.6056,16.0522 10.7036,15.8472 C10.8006,15.6422 10.8896,15.4352 10.9776,15.2162 L11.0366,15.0592 C11.1096,14.8492 11.0016,14.6182 10.7936,14.5402 C10.5846,14.4622 10.3516,14.5652 10.2696,14.7722 L10.2136,14.9212 C10.1356,15.1162 10.0496,15.3092 9.9626,15.4972 C9.8766,15.6862 9.7776,15.8732 9.6766,16.0562 C9.5746,16.2392 9.4716,16.4182 9.3596,16.5932 C9.2476,16.7682 9.1316,16.9412 9.0106,17.1092 C8.8896,17.2772 8.7646,17.4412 8.6316,17.6002 C8.4976,17.7592 8.3646,17.9172 8.2246,18.0692 C8.0836,18.2212 7.9376,18.3692 7.7906,18.5122 C7.6436,18.6552 7.4876,18.7942 7.3296,18.9282 C7.1716,19.0622 7.0096,19.1922 6.8446,19.3162 C6.6786,19.4412 6.5096,19.5622 6.3356,19.6752 C6.1846,19.7742 6.1166,19.9612 6.1686,20.1352 C6.2206,20.3082 6.3806,20.4272 6.5616,20.4262 L6.5626,20.4272 Z" id="Fill-19"></path>
                <path d="M16.6136,10.5539 C16.5946,10.4619 16.5726,10.3699 16.5436,10.2789 C16.5136,10.1879 16.4826,10.1009 16.4466,10.0149 C16.4106,9.9299 16.3696,9.8459 16.3266,9.7659 C16.2826,9.6839 16.2346,9.6049 16.1826,9.5289 C16.1306,9.4519 16.0756,9.3789 16.0186,9.3079 C15.9616,9.2379 15.8986,9.1689 15.8326,9.1039 C15.7676,9.0379 15.6996,8.9769 15.6286,8.9179 C15.5566,8.8599 15.4846,8.8049 15.4076,8.7549 C15.3306,8.7039 15.2526,8.6549 15.1716,8.6109 C15.0906,8.5669 15.0076,8.5269 14.9226,8.4909 C14.8356,8.4539 14.7466,8.4209 14.6566,8.3939 C14.5666,8.3649 14.4746,8.3419 14.3826,8.3229 C14.2876,8.3039 14.1926,8.2889 14.0956,8.2799 C13.9016,8.2599 13.7056,8.2599 13.5116,8.2799 C13.4156,8.2889 13.3216,8.3039 13.2276,8.3229 C13.1336,8.3419 13.0416,8.3659 12.9516,8.3939 C12.8616,8.4209 12.7736,8.4539 12.6886,8.4899 C12.6036,8.5259 12.5186,8.5669 12.4366,8.6109 C12.3546,8.6549 12.2766,8.7029 12.2016,8.7539 C12.1276,8.8039 12.0506,8.8619 11.9806,8.9179 C11.9096,8.9759 11.8416,9.0379 11.7756,9.1029 C11.7116,9.1679 11.6496,9.2359 11.5916,9.3069 C11.5336,9.3789 11.4786,9.4529 11.4276,9.5289 C11.3766,9.6039 11.3286,9.6829 11.2836,9.7649 C11.2396,9.8479 11.1986,9.9289 11.1646,10.0139 C11.1276,10.1009 11.0956,10.1889 11.0676,10.2779 C11.0386,10.3689 11.0156,10.4609 10.9966,10.5539 C10.9776,10.6469 10.9626,10.7419 10.9526,10.8399 C10.9426,10.9379 10.9386,11.0339 10.9386,11.1329 C10.9386,11.3559 10.9316,11.5779 10.9176,11.7969 C10.9036,12.0169 10.8826,12.2349 10.8536,12.4509 C10.8266,12.6659 10.7926,12.8919 10.7506,13.1039 C10.7076,13.3259 10.8526,13.5399 11.0746,13.5839 C11.1006,13.5879 11.1276,13.5899 11.1536,13.5889 C11.3496,13.5879 11.5176,13.4489 11.5556,13.2569 C11.5996,13.0289 11.6376,12.7849 11.6666,12.5519 C11.6966,12.3189 11.7196,12.0839 11.7356,11.8469 C11.7506,11.6079 11.7576,11.3709 11.7576,11.1299 C11.7566,10.9909 11.7706,10.8509 11.7986,10.7149 C11.8116,10.6489 11.8286,10.5849 11.8486,10.5209 C11.8686,10.4569 11.8916,10.3939 11.9186,10.3319 C11.9436,10.2709 11.9716,10.2119 12.0026,10.1549 C12.0346,10.0969 12.0696,10.0399 12.1066,9.9849 C12.1426,9.9299 12.1826,9.8779 12.2246,9.8269 C12.2656,9.7759 12.3096,9.7279 12.3556,9.6819 C12.4016,9.6349 12.4506,9.5919 12.5026,9.5499 C12.6046,9.4659 12.7136,9.3919 12.8296,9.3289 C13.0066,9.2329 13.1966,9.1639 13.3936,9.1239 C13.4616,9.1099 13.5296,9.0999 13.5986,9.0929 C13.7376,9.0789 13.8776,9.0789 14.0176,9.0929 C14.0856,9.0999 14.1546,9.1099 14.2216,9.1239 C14.2886,9.1379 14.3536,9.1549 14.4166,9.1739 C14.4806,9.1939 14.5436,9.2169 14.6056,9.2439 C14.7276,9.2949 14.8436,9.3589 14.9526,9.4319 C15.0066,9.4689 15.0606,9.5089 15.1116,9.5509 C15.1616,9.5929 15.2096,9.6359 15.2556,9.6819 C15.3016,9.7279 15.3466,9.7769 15.3886,9.8279 C15.4306,9.8789 15.4706,9.9309 15.5066,9.9859 C15.5436,10.0419 15.5776,10.0959 15.6086,10.1549 C15.6406,10.2139 15.6686,10.2729 15.6956,10.3339 C15.7216,10.3959 15.7446,10.4569 15.7636,10.5199 C15.7826,10.5819 15.8006,10.6499 15.8136,10.7139 L15.8276,10.7879 C15.8646,11.0109 16.0756,11.1619 16.2986,11.1249 C16.5226,11.0869 16.6726,10.8759 16.6356,10.6529 L16.6136,10.5539 Z" id="Fill-21"></path>
                <path d="M13.9821,18.4243 C13.8721,18.6213 13.9421,18.8703 14.1391,18.9813 C14.3361,19.0913 14.5851,19.0213 14.6961,18.8253 C14.8261,18.5933 14.8931,18.4623 15.0121,18.2243 C15.1301,17.9863 15.2411,17.7463 15.3491,17.5023 C15.4561,17.2583 15.5551,17.0103 15.6491,16.7603 C15.7431,16.5113 15.8321,16.2573 15.9141,16.0023 C15.9961,15.7463 16.0721,15.4873 16.1411,15.2263 C16.2101,14.9643 16.2731,14.7003 16.3291,14.4343 C16.3851,14.1673 16.4351,13.8983 16.4781,13.6273 C16.5211,13.3563 16.5551,13.0833 16.5841,12.8083 C16.5991,12.6713 16.6111,12.5333 16.6231,12.3943 C16.6411,12.1693 16.4731,11.9713 16.2471,11.9533 C16.0221,11.9353 15.8241,12.1033 15.8061,12.3293 C15.7961,12.4613 15.7841,12.5923 15.7701,12.7233 C15.7431,12.9843 15.7091,13.2433 15.6681,13.5013 C15.6271,13.7583 15.5801,14.0133 15.5281,14.2643 C15.4751,14.5173 15.4161,14.7673 15.3491,15.0153 C15.2831,15.2633 15.2121,15.5093 15.1341,15.7523 C15.0561,15.9953 14.9731,16.2363 14.8831,16.4733 C14.7941,16.7113 14.6981,16.9453 14.5961,17.1753 C14.4951,17.4063 14.3891,17.6353 14.2761,17.8613 C14.1671,18.0843 14.1041,18.2073 13.9821,18.4243" id="Fill-23"></path>
                <path d="M11.4693,22.7683 C11.5753,22.7683 11.6773,22.7273 11.7533,22.6543 C11.9423,22.4723 12.1273,22.2863 12.3073,22.0963 C12.4873,21.9053 12.6623,21.7103 12.8333,21.5113 C13.0043,21.3123 13.1703,21.1083 13.3313,20.8993 C13.4933,20.6913 13.6493,20.4803 13.8003,20.2653 C13.9293,20.0793 13.8833,19.8243 13.6983,19.6943 C13.5133,19.5653 13.2573,19.6103 13.1273,19.7963 C12.9853,20.0013 12.8373,20.2013 12.6843,20.3983 C12.5303,20.5953 12.3733,20.7883 12.2103,20.9783 C12.0483,21.1673 11.8823,21.3523 11.7113,21.5333 C11.5403,21.7143 11.3653,21.8913 11.1863,22.0653 C11.0663,22.1813 11.0283,22.3583 11.0903,22.5133 C11.1533,22.6683 11.3033,22.7703 11.4703,22.7703 L11.4693,22.7683 Z" id="Fill-25"></path>
                <path d="M9.6306,22.2204 C9.7266,22.2204 9.8196,22.1864 9.8936,22.1254 C10.0896,21.9614 10.2806,21.7914 10.4666,21.6164 C10.6546,21.4424 10.7676,21.3334 10.9436,21.1514 C11.3036,20.7814 11.6416,20.3904 11.9576,19.9824 L12.0296,19.8904 C12.1756,19.7024 12.3496,19.4804 12.4746,19.3004 C12.6216,19.0894 12.7616,18.8744 12.8966,18.6564 C13.0316,18.4374 13.1606,18.2154 13.2856,17.9884 C13.4086,17.7624 13.5266,17.5324 13.6386,17.2984 C13.7506,17.0644 13.8556,16.8284 13.9536,16.5884 C14.0536,16.3474 14.1466,16.1044 14.2316,15.8574 L14.2596,15.7764 C14.3106,15.6374 14.2836,15.4814 14.1876,15.3684 C14.0916,15.2564 13.9416,15.2044 13.7966,15.2324 C13.6516,15.2614 13.5326,15.3654 13.4866,15.5064 L13.4586,15.5854 C13.3766,15.8174 13.2896,16.0464 13.1976,16.2744 C13.1046,16.5014 13.0066,16.7254 12.9026,16.9464 C12.7976,17.1664 12.6866,17.3834 12.5706,17.5964 C12.4536,17.8104 12.3316,18.0204 12.2036,18.2264 C12.0766,18.4324 11.9446,18.6344 11.8056,18.8334 C11.6886,19.0014 11.5246,19.2114 11.3876,19.3874 L11.3116,19.4834 C11.0156,19.8664 10.6976,20.2324 10.3606,20.5804 C10.1936,20.7524 10.0876,20.8544 9.9106,21.0184 C9.7336,21.1824 9.5526,21.3434 9.3676,21.4974 C9.2356,21.6084 9.1866,21.7894 9.2456,21.9514 C9.3046,22.1134 9.4586,22.2214 9.6316,22.2214 L9.6306,22.2204 Z" id="Fill-27"></path>
                <path d="M14.1279,12.671 C14.0989,12.923 14.0639,13.174 14.0219,13.422 C13.9949,13.579 13.9599,13.76 13.9269,13.913 C13.8809,14.135 14.0239,14.352 14.2449,14.398 C14.2719,14.403 14.2999,14.406 14.3269,14.406 C14.5209,14.406 14.6889,14.269 14.7269,14.078 C14.7609,13.915 14.7979,13.723 14.8259,13.558 C14.8709,13.294 14.9089,13.028 14.9399,12.76 C14.9699,12.493 14.9929,12.222 15.0079,11.951 C15.0239,11.679 15.0319,11.404 15.0319,11.128 C15.0319,11.088 15.0289,11.046 15.0259,11.003 C15.0219,10.96 15.0149,10.921 15.0079,10.885 C14.9999,10.843 14.9889,10.802 14.9759,10.762 C14.9639,10.723 14.9499,10.685 14.9359,10.65 C14.9039,10.576 14.8659,10.506 14.8219,10.44 C14.7989,10.407 14.7759,10.375 14.7519,10.346 C14.7269,10.317 14.6999,10.287 14.6739,10.261 C14.6459,10.232 14.6169,10.204 14.5859,10.179 C14.5549,10.153 14.5229,10.129 14.4899,10.107 C14.4579,10.085 14.4239,10.065 14.3899,10.046 C14.3549,10.027 14.3189,10.01 14.2829,9.994 C14.2469,9.979 14.2079,9.965 14.1689,9.954 C14.1299,9.941 14.0909,9.931 14.0509,9.923 C14.0099,9.915 13.9689,9.908 13.9279,9.904 C13.8439,9.896 13.7599,9.896 13.6769,9.904 C13.5959,9.912 13.5159,9.929 13.4379,9.953 C13.3989,9.965 13.3609,9.979 13.3259,9.994 C13.2909,10.009 13.2519,10.027 13.2169,10.046 C13.1819,10.065 13.1469,10.087 13.1189,10.106 C13.0849,10.128 13.0529,10.152 13.0209,10.178 C12.9899,10.204 12.9609,10.231 12.9379,10.254 C12.9079,10.284 12.8789,10.315 12.8529,10.347 C12.8039,10.407 12.7609,10.471 12.7239,10.538 C12.7049,10.574 12.6869,10.61 12.6719,10.647 C12.6559,10.684 12.6429,10.722 12.6309,10.761 C12.6179,10.801 12.6079,10.842 12.5989,10.884 C12.5919,10.924 12.5849,10.962 12.5809,11.001 C12.5769,11.041 12.5749,11.083 12.5749,11.127 C12.5749,11.353 12.7579,11.536 12.9849,11.536 C13.2109,11.536 13.3939,11.353 13.3939,11.127 C13.3939,11.113 13.3949,11.099 13.3959,11.086 L13.4419,10.936 C13.4419,10.934 13.4629,10.903 13.4629,10.9 L13.5109,10.842 L13.5719,10.791 L13.6439,10.75 L13.7189,10.726 C13.7329,10.723 13.7479,10.72 13.7599,10.719 C13.7879,10.716 13.7749,10.71 13.8859,10.725 L13.9609,10.748 L14.0319,10.787 L14.2609,10.447 L14.0909,10.835 L14.1189,10.866 L14.1599,10.929 L14.1779,10.967 L14.2009,11.04 C14.2009,11.04 14.2079,11.081 14.2079,11.084 C14.2089,11.097 14.2099,11.111 14.2099,11.125 C14.2099,11.385 14.2029,11.644 14.1889,11.901 C14.1739,12.158 14.1539,12.414 14.1279,12.671" id="Fill-29"></path>
                <path d="M12.4276,13.1069 C12.3866,13.3399 12.2886,13.7529 12.2336,13.9739 C12.1796,14.2009 12.1166,14.4259 12.0466,14.6479 C11.9776,14.8699 11.9026,15.0899 11.8216,15.3059 C11.7396,15.5229 11.6526,15.7359 11.5606,15.9449 L11.5176,16.0399 C11.4556,16.1729 11.4706,16.3279 11.5546,16.4479 C11.6396,16.5669 11.7806,16.6329 11.9266,16.6189 C12.0726,16.6059 12.1996,16.5159 12.2616,16.3829 L12.3086,16.2779 C12.4076,16.0529 12.5016,15.8249 12.5886,15.5939 C12.6756,15.3629 12.7556,15.1279 12.8296,14.8899 C12.9036,14.6529 12.9706,14.4119 13.0296,14.1689 C13.0786,13.9709 13.1836,13.5249 13.2346,13.2539 C13.2636,13.1089 13.2126,12.9589 13.0996,12.8629 C12.9876,12.7659 12.8326,12.7379 12.6926,12.7889 C12.5536,12.8389 12.4526,12.9609 12.4286,13.1069 L12.4276,13.1069 Z" id="Fill-31"></path>
                <path d="M7.9959,21.4252 C8.0839,21.4242 8.1689,21.3962 8.2389,21.3432 C8.4339,21.1992 8.6249,21.0492 8.8129,20.8932 C8.9999,20.7362 9.1819,20.5762 9.3589,20.4112 C9.5359,20.2482 9.7079,20.0762 9.8769,19.9002 C10.0449,19.7242 10.2039,19.5452 10.3629,19.3612 C10.5219,19.1772 10.6729,18.9872 10.8209,18.7932 C10.9679,18.5982 11.1069,18.4022 11.2449,18.1992 C11.3079,18.1042 11.3709,18.0092 11.4319,17.9132 C11.5239,17.7892 11.5379,17.6242 11.4699,17.4872 C11.4009,17.3492 11.2619,17.2612 11.1079,17.2591912 C10.9539,17.2582 10.8119,17.3422 10.7409,17.4792 C10.6829,17.5692 10.6249,17.6592 10.5649,17.7472 C10.4379,17.9362 10.3049,18.1212 10.1679,18.3022 C10.0319,18.4832 9.8889,18.6602 9.7409,18.8352 C9.5929,19.0082 9.4409,19.1762 9.2839,19.3402 C9.1279,19.5042 8.9659,19.6632 8.7999,19.8182 C8.6349,19.9722 8.4629,20.1232 8.2889,20.2682 C8.1149,20.4132 7.9349,20.5552 7.7519,20.6892 C7.6109,20.7942 7.5529,20.9792 7.6089,21.1462 C7.6649,21.3132 7.8209,21.4262 7.9979,21.4262 L7.9959,21.4252 Z" id="Fill-33"></path>
                <path d="M5.3345,19.2679 C5.4085,19.2679 5.4815,19.2479 5.5445,19.2099 C5.7155,19.1069 5.8835,18.9989 6.0485,18.8849 C6.2125,18.7719 6.3735,18.6529 6.5285,18.5299 C6.6845,18.4069 6.8365,18.2789 6.9835,18.1469 C7.0725,18.0679 7.1595,17.9879 7.2435,17.9049 C7.4065,17.7479 7.4115,17.4889 7.2545,17.3259 C7.0975,17.1629 6.8385,17.1579 6.6755,17.3149 C6.5975,17.3889 6.5185,17.4629 6.4385,17.5349 C6.3015,17.6569 6.1625,17.7729 6.0215,17.8859 C5.8785,17.9979 5.7325,18.1069 5.5835,18.2099 C5.4335,18.3129 5.2795,18.4119 5.1235,18.5059 C4.9655,18.6009 4.8895,18.7889 4.9385,18.9669 C4.9885,19.1439 5.1505,19.2669 5.3345,19.2669 L5.3345,19.2679 Z" id="Fill-35"></path>
                <path d="M9.71,10.7218 C9.484,10.7218 9.301,10.9048 9.301,11.1308 C9.301,11.3278 9.294,11.5218 9.281,11.7138 C9.267,11.9068 9.249,12.0968 9.224,12.2868 C9.198,12.4778 9.167,12.6628 9.129,12.8468 C9.092,13.0318 9.048,13.2158 9,13.3938 C8.952,13.5728 8.896,13.7518 8.836,13.9268 C8.776,14.1008 8.71,14.2748 8.639,14.4448 C8.567,14.6148 8.492,14.7818 8.41,14.9468 C8.328,15.1108 8.242,15.2718 8.151,15.4288 C8.061,15.5868 7.963,15.7418 7.862,15.8938 C7.79,16.0018 7.716,16.1078 7.64,16.2118 C7.553,16.3298 7.536,16.4848 7.595,16.6188 C7.654,16.7528 7.78,16.8448 7.925,16.8608 C8.071,16.8768 8.214,16.8138 8.3,16.6958 C8.382,16.5828 8.464,16.4658 8.543,16.3488 C8.654,16.1818 8.759,16.0128 8.86,15.8398 C8.961,15.6658 9.055,15.4898 9.144,15.3108 C9.233,15.1308 9.317,14.9468 9.395,14.7608 C9.473,14.5738 9.544,14.3858 9.61,14.1938 C9.676,14.0018 9.736,13.8068 9.79,13.6088 C9.844,13.4098 9.891,13.2108 9.932,13.0088 C9.973,12.8068 10.008,12.6018 10.035,12.3948 C10.063,12.1878 10.084,11.9788 10.099,11.7678 C10.113,11.5578 10.12,11.3438 10.12,11.1298 C10.119,10.9048 9.936,10.7218 9.71,10.7218" id="Fill-37"></path>
                <path d="M10.3296,8.2648 C10.2376,8.3758 10.1506,8.4918 10.0696,8.6118 C9.9886,8.7318 9.9136,8.8578 9.8446,8.9828 C9.7816,9.0958 9.7246,9.2138 9.6736,9.3328 C9.5856,9.5418 9.6826,9.7818 9.8906,9.8698 C9.9416,9.8918 9.9956,9.9028 10.0506,9.9028 C10.2146,9.9028 10.3626,9.8048 10.4266,9.6538 C10.4686,9.5578 10.5136,9.4638 10.5646,9.3728 C10.6216,9.2688 10.6826,9.1678 10.7486,9.0698 C10.8156,8.9728 10.8856,8.8778 10.9606,8.7868 C11.0366,8.6948 11.1156,8.6078 11.1986,8.5248 C11.2816,8.4418 11.3696,8.3608 11.4616,8.2868 C11.5526,8.2118 11.6466,8.1408 11.7446,8.0748 C11.8416,8.0088 11.9436,7.9468 12.0486,7.8898 C12.1536,7.8328 12.2606,7.7808 12.3706,7.7348 C12.5936,7.6398 12.8246,7.5688 13.0616,7.5198 C13.1816,7.4948 13.3046,7.4768 13.4286,7.4638 C13.6786,7.4388 13.9316,7.4388 14.1826,7.4638 C14.3056,7.4768 14.4276,7.4948 14.5486,7.5198 C14.6696,7.5448 14.7856,7.5748 14.9016,7.6108 C14.9456,7.6238 14.9886,7.6388 15.0316,7.6518 C15.1706,7.7058 15.3276,7.6788 15.4416,7.5838 C15.5556,7.4878 15.6096,7.3368 15.5806,7.1908 C15.5516,7.0448 15.4456,6.9258 15.3036,6.8798 C15.2516,6.8608 15.1976,6.8428 15.1446,6.8268 C14.8586,6.7378 14.5636,6.6778 14.2656,6.6478 C13.9596,6.6168 13.6506,6.6168 13.3446,6.6478 C13.1946,6.6628 13.0456,6.6848 12.8986,6.7158 C12.7526,6.7448 12.6086,6.7828 12.4666,6.8268 C12.3246,6.8708 12.1866,6.9208 12.0516,6.9788 C11.9166,7.0358 11.7856,7.0988 11.6576,7.1678 C11.5306,7.2368 11.4066,7.3128 11.2856,7.3938 C11.1646,7.4758 11.0496,7.5618 10.9396,7.6528 C10.8286,7.7448 10.7226,7.8418 10.6196,7.9438 C10.5176,8.0458 10.4206,8.1528 10.3296,8.2648" id="Fill-39"></path>
                <path d="M17.4167,12.7243 C17.3917,12.9863 17.3607,13.2473 17.3237,13.5053 C17.3067,13.6283 17.2987,13.7333 17.2897,13.8363 C17.2827,13.9543 17.2687,14.0733 17.2487,14.1903 C17.2167,14.3353 17.2667,14.4863 17.3787,14.5853 C17.4907,14.6833 17.6467,14.7133 17.7867,14.6633 C17.9277,14.6123 18.0287,14.4903 18.0527,14.3433 C18.0797,14.1973 18.0977,14.0503 18.1077,13.9033 C18.1147,13.8153 18.1217,13.7253 18.1367,13.6203 C18.1747,13.3493 18.2077,13.0763 18.2337,12.8013 C18.2597,12.5273 18.2797,12.2503 18.2917,11.9713 C18.3057,11.6933 18.3117,11.4133 18.3117,11.1323 C18.3117,10.9763 18.3037,10.8233 18.2887,10.6713 C18.2737,10.5203 18.2507,10.3713 18.2197,10.2243 C18.1907,10.0793 18.1537,9.9353 18.1087,9.7933 C18.0657,9.6523 18.0147,9.5133 17.9567,9.3773 C17.8997,9.2433 17.8367,9.1123 17.7677,8.9843 C17.6977,8.8553 17.6227,8.7313 17.5417,8.6123 C17.4597,8.4923 17.3737,8.3773 17.2837,8.2673 C17.2017,8.1673 17.1147,8.0713 17.0247,7.9803 C16.9227,7.8753 16.7717,7.8333 16.6297,7.8703 C16.4887,7.9063 16.3767,8.0153 16.3377,8.1563 C16.2977,8.2973 16.3367,8.4493 16.4397,8.5533 C16.5137,8.6293 16.5837,8.7073 16.6517,8.7893 C16.7267,8.8803 16.7967,8.9753 16.8627,9.0723 C16.9297,9.1713 16.9907,9.2733 17.0477,9.3763 C17.1037,9.4793 17.1567,9.5893 17.2027,9.6993 C17.2497,9.8093 17.2907,9.9223 17.3257,10.0373 C17.3617,10.1533 17.3927,10.2713 17.4167,10.3903 C17.4417,10.5113 17.4597,10.6333 17.4727,10.7563 C17.4857,10.8813 17.4917,11.0073 17.4917,11.1333 C17.4917,11.4023 17.4857,11.6693 17.4727,11.9353 C17.4597,12.2013 17.4417,12.4643 17.4167,12.7243" id="Fill-41"></path>
                <path d="M13.5235,22.9999 C13.6395,22.9999 13.7505,22.9499 13.8285,22.8639 C14.0035,22.6689 14.1725,22.4699 14.3385,22.2679 C14.5015,22.0659 14.6655,21.8589 14.8215,21.6509 C14.9765,21.4429 15.1295,21.2269 15.2755,21.0109 C15.3575,20.8929 15.4355,20.7729 15.5145,20.6509 C15.5785,20.5509 15.6425,20.4509 15.7035,20.3509 C15.8415,20.1279 15.9745,19.9009 16.1025,19.6709 C16.2305,19.4399 16.3535,19.2069 16.4705,18.9709 C16.5875,18.7349 16.7005,18.4959 16.8075,18.2539 C16.9145,18.0129 17.0165,17.7679 17.1135,17.5169 C17.2105,17.2669 17.3015,17.0199 17.3865,16.7669 C17.4625,16.5419 17.5345,16.3159 17.6015,16.0869 C17.6655,15.8699 17.5405,15.6419 17.3235,15.5779 C17.1065,15.5149 16.8795,15.6389 16.8155,15.8559 C16.7515,16.0749 16.6835,16.2909 16.6105,16.5049 C16.5285,16.7459 16.4425,16.9839 16.3505,17.2199 C16.2585,17.4559 16.1615,17.6889 16.0585,17.9199 C15.9565,18.1509 15.8495,18.3789 15.7375,18.6039 C15.6255,18.8279 15.5075,19.0509 15.3855,19.2699 C15.2635,19.4899 15.1375,19.7049 15.0055,19.9189 C14.9465,20.0159 14.8855,20.1119 14.8265,20.2059 C14.7515,20.3209 14.6755,20.4359 14.5985,20.5499 C14.4575,20.7569 14.3135,20.9599 14.1635,21.1599 C14.0145,21.3589 13.8605,21.5559 13.7035,21.7489 C13.5455,21.9419 13.3835,22.1309 13.2175,22.3169 C13.1105,22.4369 13.0835,22.6099 13.1495,22.7569 C13.2155,22.9039 13.3615,22.9989 13.5225,22.9989 L13.5235,22.9999 Z" id="Fill-43"></path>
                <path d="M4.3071,17.9656059 C4.3771,17.9656059 4.4461,17.9476 4.5071,17.9136 C4.6551,17.8296 4.8011,17.7416 4.9421,17.6496 C5.0841,17.5566 5.2231,17.4596 5.3581,17.3586 C5.4921,17.2576 5.6261,17.1516 5.7541,17.0426 C5.8821,16.9326 6.0071,16.8186 6.1271,16.7016 C6.2481,16.5846 6.3651,16.4626 6.4791,16.3366 C6.5921,16.2106 6.7011,16.0826 6.8061,15.9496 C6.9111,15.8176 7.0111,15.6816 7.1081,15.5406 C7.2061,15.3996 7.2961,15.2586 7.3821,15.1146 C7.4691,14.9696 7.5521,14.8196 7.6281,14.6676 C7.7041,14.5156 7.7791,14.3616 7.8471,14.2036 C7.9161,14.0456 7.9781,13.8866 8.0351,13.7256 C8.0921,13.5646 8.1451,13.3976 8.1921,13.2306 C8.2381,13.0636 8.2801,12.8946 8.3141,12.7236 C8.3491,12.5516 8.3801,12.3786 8.4051,12.2026 C8.4291,12.0266 8.4461,11.8496 8.4601,11.6696 C8.4741,11.4896 8.4781,11.3106 8.4781,11.1286 C8.4781,10.9466 8.4881,10.7646 8.5061,10.5836 C8.5241,10.4086 8.5511,10.2296 8.5881,10.0546 C8.6221,9.8876 8.6661,9.7156 8.7191,9.5456 C8.7721,9.3756 8.8311,9.2156 8.8981,9.0576 C8.9651,8.8986 9.0401,8.7426 9.1221,8.5916 C9.2041,8.4416 9.2931,8.2946 9.3881,8.1526 C9.4621,8.0436 9.5651,7.9226 9.6581,7.8126 L9.7401,7.7136 C9.8361,7.6016 9.8651,7.4456 9.8141,7.3056 C9.7631,7.1666 9.6411,7.0656 9.4941,7.0416 C9.3481,7.0186 9.2001,7.0756 9.1081,7.1926 L9.0291,7.2856 C8.9201,7.4176 8.7981,7.5636 8.7101,7.6956 C8.6011,7.8566 8.4971,8.0266 8.4021,8.2016 C8.3071,8.3776 8.2211,8.5546 8.1431,8.7396 C8.0651,8.9246 7.9961,9.1126 7.9361,9.3046 C7.8771,9.4966 7.8251,9.6996 7.7851,9.8936 C7.7441,10.0946 7.7131,10.2996 7.6921,10.5026 C7.6711,10.7056 7.6601,10.9206 7.6601,11.1306 C7.6601,11.2946 7.6551,11.4556 7.6441,11.6156 C7.6331,11.7756 7.6161,11.9346 7.5951,12.0906 C7.5741,12.2466 7.5461,12.4026 7.5131,12.5556 C7.4801,12.7096 7.4441,12.8606 7.4021,13.0106 C7.3591,13.1596 7.3141,13.3066 7.2621,13.4526 C7.2101,13.5986 7.1541,13.7396 7.0941,13.8806 C7.0331,14.0226 6.9681,14.1596 6.8981,14.2956 C6.8291,14.4306 6.7551,14.5636 6.6771,14.6946 C6.5981,14.8256 6.5161,14.9526 6.4311,15.0766 C6.3461,15.1996 6.2551,15.3216 6.1611,15.4406 C6.0671,15.5606 5.9691,15.6756 5.8681,15.7866 C5.7671,15.8986 5.6631,16.0076 5.5541,16.1146 C5.4441,16.2216 5.3341,16.3216 5.2191,16.4206 C5.1031,16.5186 4.9861,16.6126 4.8651,16.7036 C4.7431,16.7946 4.6191,16.8816 4.4921,16.9636 C4.3661,17.0466 4.2361,17.1256 4.1041,17.1996 C3.9411,17.2906 3.8611,17.4796 3.9081,17.6606 C3.9551,17.8406 4.1181,17.9666 4.3041,17.9656059 L4.3071,17.9656059 Z" id="Fill-45"></path>
                <path d="M18.7107,9.06 C18.7787,9.22 18.8377,9.382 18.8897,9.548 C18.9337,9.69 18.9727,9.834 19.0047,9.981 C19.0337,10.126 19.1387,10.245 19.2797,10.291 C19.4207,10.337 19.5757,10.303 19.6847,10.202 C19.7937,10.101 19.8397,9.949 19.8047,9.805 C19.7677,9.636 19.7227,9.469 19.6717,9.305 C19.6127,9.114 19.5437,8.925 19.4647,8.741 C19.3887,8.559 19.3007,8.379 19.2057,8.203 C19.1117,8.028 19.0097,7.861 18.8987,7.697 C18.7877,7.533 18.6707,7.376 18.5457,7.224 C18.4197,7.071 18.2877,6.926 18.1497,6.788 C18.0117,6.65 17.8647,6.517 17.7127,6.391 C17.5607,6.265 17.4027,6.148 17.2397,6.038 C17.0767,5.928 16.9077,5.825 16.7337,5.731 C16.5597,5.636 16.3797,5.549 16.1967,5.471 C16.0137,5.394 15.8217,5.324 15.6317,5.265 C15.4377,5.204 15.2417,5.154 15.0427,5.114 C14.8417,5.073 14.6367,5.041 14.4337,5.02 C14.0157,4.978 13.5947,4.978 13.1777,5.02 C12.9727,5.041 12.7677,5.073 12.5687,5.114 C12.3697,5.154 12.1727,5.204 11.9787,5.265 C11.7867,5.324 11.5967,5.394 11.4137,5.471 C11.2307,5.549 11.0517,5.635 10.8767,5.73 C10.6777,5.838 10.6047,6.087 10.7127,6.286 C10.8207,6.484 11.0687,6.558 11.2677,6.45 C11.4187,6.368 11.5737,6.293 11.7337,6.226 C11.8937,6.158 12.0567,6.098 12.2217,6.047 C12.3907,5.995 12.5627,5.951 12.7327,5.916 C12.9067,5.88 13.0827,5.852 13.2607,5.834 C13.6227,5.797 13.9877,5.797 14.3497,5.834 C14.5277,5.852 14.7037,5.88 14.8787,5.916 C15.0477,5.95 15.2197,5.994 15.3887,6.046 C15.5577,6.098 15.7167,6.158 15.8777,6.225 C16.0387,6.293 16.1917,6.368 16.3427,6.45 C16.4937,6.532 16.6397,6.62 16.7817,6.716 C16.9237,6.813 17.0597,6.914 17.1907,7.023 C17.3217,7.131 17.4487,7.246 17.5697,7.367 C17.6897,7.487 17.8047,7.612 17.9127,7.745 C18.0217,7.877 18.1237,8.013 18.2197,8.154 C18.3157,8.296 18.4047,8.441 18.4857,8.593 C18.5677,8.745 18.6447,8.902 18.7107,9.06" id="Fill-47"></path>
                <path d="M15.7777,22.8347 C15.9067,22.8347 16.0277,22.7737 16.1057,22.6707 C16.2557,22.4697 16.4027,22.2657 16.5457,22.0587 C16.6887,21.8527 16.8277,21.6427 16.9627,21.4297 C17.0977,21.2167 17.2287,21.0007 17.3557,20.7827 C17.4827,20.5647 17.6057,20.3437 17.7247,20.1197 C17.8417,19.8967 17.9557,19.6707 18.0667,19.4417 C18.1757,19.2127 18.2817,18.9817 18.3817,18.7487 C18.4817,18.5157 18.5797,18.2787 18.6707,18.0407 C18.7617,17.8017 18.8497,17.5607 18.9317,17.3187 C19.0127,17.0757 19.0917,16.8307 19.1647,16.5817 C19.2367,16.3317 19.3057,16.0857 19.3697,15.8347 C19.4327,15.5847 19.4917,15.3307 19.5437,15.0757 C19.5957,14.8207 19.6447,14.5637 19.6887,14.3057 C19.7317,14.0477 19.7707,13.7877 19.8017,13.5277 C19.8327,13.2677 19.8607,13.0027 19.8827,12.7367 C19.9047,12.4717 19.9207,12.2327 19.9307,11.9647 C19.9397,11.7397 19.7637,11.5497 19.5377,11.5407 L19.5207,11.5407 C19.3007,11.5407 19.1197,11.7137 19.1107,11.9337 C19.1007,12.1897 19.0857,12.4187 19.0647,12.6707 C19.0447,12.9227 19.0177,13.1767 18.9867,13.4267 C18.9557,13.6777 18.9197,13.9267 18.8787,14.1747 C18.8367,14.4227 18.7907,14.6657 18.7397,14.9117 C18.6897,15.1577 18.6337,15.3977 18.5727,15.6387 C18.5127,15.8787 18.4477,16.1167 18.3777,16.3537 C18.3087,16.5907 18.2337,16.8237 18.1547,17.0567 C18.0757,17.2897 17.9907,17.5197 17.9047,17.7477 C17.8187,17.9757 17.7247,18.2007 17.6277,18.4247 C17.5307,18.6487 17.4317,18.8707 17.3267,19.0887 C17.2217,19.3067 17.1117,19.5237 16.9987,19.7377 C16.8857,19.9517 16.7687,20.1637 16.6467,20.3727 C16.5247,20.5817 16.4007,20.7887 16.2717,20.9917 C16.1417,21.1947 16.0087,21.3957 15.8717,21.5947 C15.7347,21.7937 15.5937,21.9877 15.4497,22.1807 C15.3567,22.3047 15.3417,22.4707 15.4107,22.6097 C15.4807,22.7487 15.6227,22.8357 15.7777,22.8357 L15.7777,22.8347 Z" id="Fill-49"></path>
                <path d="M20.7283,20.5128 C20.8273,20.5568 20.9403,20.5598 21.0413,20.5208 C21.1433,20.4828 21.2253,20.4048 21.2693,20.3058 C21.3473,20.1308 21.4233,19.9548 21.4983,19.7768 C21.5723,19.5988 21.6443,19.4198 21.7133,19.2408 C21.7823,19.0608 21.8493,18.8808 21.9153,18.6978 C21.9803,18.5148 22.0423,18.3338 22.1033,18.1488 C22.1633,17.9648 22.2213,17.7808 22.2773,17.5938 C22.3333,17.4078 22.3873,17.2208 22.4373,17.0328 C22.4883,16.8458 22.5383,16.6558 22.5843,16.4658 C22.6303,16.2758 22.6743,16.0848 22.7163,15.8928 C22.7573,15.7008 22.7983,15.5078 22.8333,15.3148 C22.8673,15.1208 22.9043,14.9258 22.9353,14.7318 C22.9663,14.5368 22.9963,14.3398 23.0223,14.1428 C23.0483,13.9458 23.0733,13.7468 23.0943,13.5498 C23.1153,13.3518 23.1353,13.1508 23.1503,12.9528 L23.1623,12.8028 C23.1813,12.5768 23.0133,12.3788 22.7883,12.3608 C22.5623,12.3418 22.3643,12.5098 22.3463,12.7348 L22.3333,12.8858 C22.3183,13.0778 22.3003,13.2698 22.2803,13.4618 C22.2593,13.6538 22.2363,13.8438 22.2103,14.0348 C22.1853,14.2268 22.1573,14.4138 22.1283,14.6028 C22.1003,14.7918 22.0653,14.9778 22.0303,15.1648 C21.9953,15.3518 21.9573,15.5368 21.9173,15.7218 C21.8773,15.9058 21.8353,16.0898 21.7903,16.2728 C21.7443,16.4558 21.6993,16.6378 21.6503,16.8198 C21.6003,17.0028 21.5493,17.1818 21.4953,17.3608 C21.4413,17.5398 21.3843,17.7188 21.3273,17.8928 C21.2703,18.0668 21.2083,18.2468 21.1453,18.4218 C21.0833,18.5968 21.0183,18.7718 20.9513,18.9448 C20.8843,19.1178 20.8143,19.2908 20.7443,19.4608 C20.6733,19.6318 20.5993,19.8028 20.5233,19.9718 C20.4303,20.1778 20.5223,20.4198 20.7283,20.5128" id="Fill-51"></path>
                <path d="M23.1752,10.169 C23.1122,9.545 22.9862,8.929 22.8002,8.33 C22.7792,8.263 22.7592,8.197 22.7362,8.132 C22.6902,7.993 22.5732,7.889 22.4292,7.86 C22.2862,7.83 22.1372,7.88 22.0402,7.989 C21.9432,8.099 21.9122,8.252 21.9582,8.391 L22.0172,8.574 C22.1012,8.845 22.1722,9.122 22.2292,9.398 C22.2872,9.68 22.3302,9.965 22.3592,10.252 C22.3892,10.544 22.4042,10.837 22.4052,11.131 C22.4052,11.357 22.5882,11.541 22.8142,11.541 C23.0402,11.541 23.2242,11.357 23.2242,11.131 C23.2242,10.81 23.2072,10.489 23.1752,10.169" id="Fill-53"></path>
                <path d="M19.2755,4.4973 C19.4875,4.6733 19.6935,4.8593 19.8865,5.0523 C20.0785,5.2453 20.2665,5.4513 20.4415,5.6633 C20.6165,5.8763 20.7815,6.0963 20.9365,6.3253 C21.0915,6.5553 21.2355,6.7923 21.3675,7.0343 C21.4375,7.1633 21.5705,7.2443 21.7165,7.2483 C21.8625,7.2523 22.0005,7.1773 22.0765,7.0533 C22.1535,6.9283 22.1565,6.7723 22.0875,6.6433 C21.9425,6.3783 21.7845,6.1173 21.6155,5.8653 C21.4465,5.6143 21.2625,5.3703 21.0725,5.1403 C20.8825,4.9103 20.6765,4.6833 20.4655,4.4723 C20.2545,4.2613 20.0295,4.0563 19.7965,3.8633 C19.5635,3.6713 19.3195,3.4893 19.0715,3.3223 C18.9505,3.2363 18.7925,3.2223 18.6585,3.2863 C18.5235,3.3503 18.4345,3.4823 18.4255,3.6303 C18.4165,3.7783 18.4885,3.9203 18.6135,4.0003 C18.8395,4.1533 19.0625,4.3203 19.2755,4.4973" id="Fill-55"></path>
                <path d="M11.5856,2.8206 C11.7466,2.7776 11.9086,2.7396 12.0716,2.7056 C12.3536,2.6486 12.6386,2.6056 12.9256,2.5766 C13.5106,2.5166 14.1006,2.5166 14.6866,2.5766 C14.9726,2.6056 15.2576,2.6486 15.5396,2.7056 C15.8156,2.7626 16.0926,2.8336 16.3636,2.9176 C16.5926,2.9896 16.8236,3.0726 17.0506,3.1636 C17.2606,3.2496 17.4996,3.1486 17.5846,2.9386 C17.6696,2.7296 17.5686,2.4906 17.3596,2.4046 C17.1116,2.3046 16.8576,2.2136 16.6066,2.1356 C16.3106,2.0426 16.0056,1.9646 15.7056,1.9026 C15.3966,1.8396 15.0846,1.7926 14.7706,1.7606 C14.1306,1.6956 13.4856,1.6956 12.8456,1.7606 C12.5326,1.7926 12.2196,1.8396 11.9106,1.9026 C11.7316,1.9396 11.5536,1.9816 11.3786,2.0286 C11.1596,2.0866 11.0296,2.3106 11.0876,2.5296 C11.1466,2.7476 11.3706,2.8786 11.5896,2.8196 L11.5856,2.8206 Z" id="Fill-57"></path>
                <path d="M4.6374,12.3336 C4.7434,12.3556 4.8544,12.3336 4.9454,12.2736 C5.0354,12.2126 5.0984,12.1186 5.1184,12.0116 C5.1384,11.9176 5.1534,11.8206 5.1664,11.7256 C5.1794,11.6296 5.1894,11.5286 5.1954,11.4306 C5.2024,11.3326 5.2054,11.2316 5.2054,11.1316 C5.2054,10.5496 5.2644,9.9686 5.3804,9.3976 C5.4374,9.1216 5.5084,8.8446 5.5924,8.5736 C5.6764,8.3026 5.7724,8.0416 5.8814,7.7836 C5.9904,7.5266 6.1104,7.2756 6.2434,7.0326 C6.3764,6.7896 6.5204,6.5496 6.6744,6.3236 C6.8274,6.0966 6.9934,5.8726 7.1694,5.6616 C7.3444,5.4496 7.5314,5.2436 7.7244,5.0506 C7.9174,4.8576 8.1234,4.6706 8.3354,4.4956 C8.5474,4.3196 8.7684,4.1546 8.9974,3.9996 C9.2274,3.8456 9.4634,3.7006 9.7074,3.5696 C9.8714,3.4806 10.0374,3.3966 10.2054,3.3186 C10.3424,3.2606 10.4374,3.1316 10.4524,2.9836 C10.4674,2.8346 10.4004,2.6896 10.2774,2.6046 C10.1544,2.5206 9.9954,2.5086 9.8624,2.5756 C9.6764,2.6606 9.4944,2.7526 9.3154,2.8496 C9.0494,2.9936 8.7884,3.1536 8.5374,3.3216 C8.2864,3.4896 8.0424,3.6736 7.8124,3.8636 C7.5824,4.0536 7.3554,4.2596 7.1444,4.4706 C6.9324,4.6826 6.7294,4.9066 6.5374,5.1406 C6.3454,5.3736 6.1634,5.6166 5.9954,5.8646 C5.8284,6.1136 5.6674,6.3736 5.5234,6.6426 C5.3794,6.9116 5.2454,7.1866 5.1264,7.4666 C5.0084,7.7466 4.9004,8.0396 4.8104,8.3316 C4.7174,8.6286 4.6404,8.9306 4.5774,9.2356 C4.5154,9.5416 4.4674,9.8556 4.4344,10.1706 C4.4024,10.4896 4.3864,10.8106 4.3864,11.1316 C4.3864,11.2136 4.3844,11.2946 4.3784,11.3766 C4.3724,11.4586 4.3654,11.5356 4.3544,11.6166 C4.3434,11.6966 4.3314,11.7736 4.3154,11.8516 C4.2944,11.9576 4.3164,12.0686 4.3764,12.1596 C4.4364,12.2496 4.5304,12.3126 4.6374,12.3336" id="Fill-59"></path>
                <path d="M3.7914,13.138 C3.7504,13.202 3.7064,13.265 3.6604,13.325 C3.6154,13.387 3.5674,13.448 3.5184,13.505 C3.4694,13.561 3.4174,13.62 3.3654,13.675 C3.3144,13.729 3.2574,13.784 3.2014,13.836 C3.1454,13.889 3.0884,13.938 3.0304,13.985 C2.9724,14.033 2.9104,14.08 2.8474,14.125 C2.7854,14.17 2.7214,14.213 2.6574,14.253 C2.5044,14.351 2.4344,14.537 2.4844,14.711 C2.5344,14.885 2.6924,15.005 2.8734,15.007 C2.9504,15.008 3.0254,14.986 3.0904,14.945 C3.1704,14.895 3.2484,14.843 3.3234,14.789 C3.3994,14.735 3.4734,14.678 3.5464,14.618 C3.6194,14.559 3.6884,14.498 3.7564,14.435 C3.8244,14.373 3.8914,14.307 3.9574,14.239 C4.0224,14.171 4.0824,14.103 4.1434,14.032 C4.2034,13.961 4.2604,13.888 4.3164,13.814 C4.3714,13.739 4.4264,13.662 4.4774,13.583 C4.5674,13.461 4.5814,13.298 4.5154,13.162 C4.4484,13.025 4.3124,12.937 4.1604,12.932 C4.0084,12.927 3.8664,13.006 3.7914,13.138" id="Fill-61"></path>
                <path d="M4.3643,16.0594 C4.4703,15.9774 4.5753,15.8954 4.6773,15.8104 C4.7793,15.7244 4.8783,15.6334 4.9743,15.5404 C5.0703,15.4474 5.1633,15.3514 5.2533,15.2534 C5.3523,15.1454 5.3853,14.9934 5.3403,14.8534 C5.2963,14.7134 5.1803,14.6084 5.0373,14.5774 C4.8943,14.5464 4.7453,14.5944 4.6473,14.7024 C4.5683,14.7884 4.4883,14.8714 4.4053,14.9524 C4.3223,15.0324 4.2363,15.1104 4.1473,15.1854 C4.0593,15.2604 3.9683,15.3334 3.8753,15.4024 C3.7823,15.4714 3.6863,15.5384 3.5883,15.6014 C3.4903,15.6654 3.3913,15.7244 3.2893,15.7814 C3.1043,15.8974 3.0423,16.1374 3.1493,16.3274 C3.2553,16.5184 3.4913,16.5924 3.6873,16.4964 C3.8053,16.4304 3.9213,16.3604 4.0333,16.2884 C4.1453,16.2154 4.2563,16.1394 4.3643,16.0594" id="Fill-63"></path>
                <path d="M18.0224,22.0603 C18.2154,22.1773 18.4674,22.1153 18.5844,21.9223 C18.7034,21.7253 18.8194,21.5263 18.9324,21.3253 C19.0454,21.1233 19.1554,20.9203 19.2604,20.7163 C19.3664,20.5113 19.4694,20.3043 19.5694,20.0953 C19.6684,19.8853 19.7544,19.6983 19.8464,19.4853 C19.9054,19.3513 19.8874,19.1963 19.8004,19.0783 C19.7134,18.9603 19.5704,18.8983 19.4254,18.9143 C19.2794,18.9313 19.1544,19.0233 19.0954,19.1573 C19.0074,19.3623 18.9244,19.5413 18.8294,19.7423 C18.7334,19.9433 18.6344,20.1413 18.5324,20.3383 C18.4304,20.5353 18.3254,20.7303 18.2184,20.9233 C18.1104,21.1173 17.9984,21.3073 17.8844,21.4963 C17.8274,21.5903 17.8104,21.7013 17.8364,21.8073 C17.8624,21.9133 17.9294,22.0043 18.0224,22.0603" id="Fill-65"></path>
                <path d="M20.0801,18.1668 C20.2551,18.1668 20.4111,18.0548 20.4671,17.8888 C20.5111,17.7598 20.5551,17.6308 20.5961,17.5008 C20.6671,17.2778 20.7361,17.0528 20.8011,16.8258 C20.8651,16.5998 20.9241,16.3718 20.9821,16.1428 C21.0401,15.9148 21.0911,15.6828 21.1401,15.4498 C21.1891,15.2178 21.2341,14.9848 21.2751,14.7488 C21.3171,14.5128 21.3531,14.2778 21.3861,14.0398 C21.4201,13.8018 21.4481,13.5638 21.4741,13.3228 C21.5001,13.0828 21.5201,12.8418 21.5371,12.5988 C21.5531,12.3568 21.5671,12.1128 21.5741,11.8688 C21.5821,11.6248 21.5871,11.3768 21.5871,11.1308 C21.5871,10.8658 21.5741,10.5988 21.5461,10.3368 C21.5201,10.0768 21.4801,9.8198 21.4281,9.5638 C21.3771,9.3128 21.3131,9.0638 21.2361,8.8188 C21.1621,8.5788 21.0731,8.3388 20.9741,8.1028 C20.8681,7.8508 20.6411,7.4268 20.5481,7.2568 C20.4401,7.0578 20.1921,6.9838 19.9931,7.0918 C19.7941,7.1998 19.7211,7.4488 19.8291,7.6478 C20.0101,7.9808 20.1561,8.2698 20.2201,8.4218 C20.3981,8.8428 20.5341,9.2808 20.6261,9.7288 C20.6731,9.9568 20.7081,10.1868 20.7311,10.4188 C20.7551,10.6558 20.7671,10.8938 20.7671,11.1308 C20.7671,11.3688 20.7631,11.6048 20.7541,11.8408 C20.7461,12.0758 20.7341,12.3098 20.7181,12.5428 C20.7021,12.7758 20.6811,13.0078 20.6581,13.2388 C20.6351,13.4698 20.6051,13.6998 20.5761,13.9268 C20.5461,14.1548 20.5081,14.3828 20.4691,14.6088 C20.4291,14.8338 20.3871,15.0588 20.3391,15.2818 C20.2921,15.5048 20.2411,15.7268 20.1861,15.9478 C20.1321,16.1688 20.0751,16.3868 20.0141,16.6028 C19.9531,16.8188 19.8871,17.0358 19.8181,17.2508 C19.7781,17.3758 19.7371,17.5008 19.6961,17.6248 C19.6231,17.8388 19.7371,18.0708 19.9511,18.1448 C19.9921,18.1588 20.0361,18.1658 20.0801,18.1668" id="Fill-67"></path>
                <path d="M16.8339,3.9624 C16.5999,3.8634 16.3599,3.7754 16.1189,3.7004 C15.6249,3.5474 15.1159,3.4434 14.6009,3.3914 C14.4549,3.3774 14.3129,3.4414 14.2269,3.5594 C14.1419,3.6784 14.1259,3.8334 14.1859,3.9674 C14.2459,4.1004 14.3729,4.1914 14.5189,4.2064 C14.7509,4.2304 14.9819,4.2654 15.2099,4.3124 C15.4349,4.3574 15.6579,4.4154 15.8769,4.4834 C16.0919,4.5504 16.3069,4.6294 16.5169,4.7174 C16.7259,4.8064 16.9259,4.9024 17.1249,5.0104 C17.3229,5.1184 17.5149,5.2344 17.6979,5.3594 C17.8819,5.4834 18.0609,5.6174 18.2339,5.7604 C18.3709,5.8734 18.7159,6.2074 18.9779,6.4694 C19.1389,6.6244 19.3939,6.6214 19.5519,6.4634 C19.7099,6.3054 19.7119,6.0504 19.5559,5.8894 C19.4609,5.7944 18.9739,5.3094 18.7549,5.1274 C18.5609,4.9684 18.3599,4.8174 18.1559,4.6804 C17.9519,4.5434 17.7349,4.4104 17.5139,4.2904 C17.2929,4.1704 17.0619,4.0584 16.8339,3.9624" id="Fill-69"></path>
                <path d="M9.4545,4.6798 C9.2495,4.8188 9.0455,4.9698 8.8555,5.1278 C8.6655,5.2858 8.4785,5.4548 8.3035,5.6298 C8.1285,5.8038 7.9585,5.9908 7.8015,6.1818 C7.6445,6.3728 7.4925,6.5748 7.3535,6.7808 C7.2265,6.9688 7.2755,7.2238 7.4635,7.3508 C7.6515,7.4778 7.9065,7.4288 8.0335,7.2408 C8.1585,7.0558 8.2915,6.8768 8.4335,6.7048 C8.5755,6.5338 8.7265,6.3668 8.8845,6.2098 C9.0435,6.0538 9.2075,5.9018 9.3795,5.7598 C9.5505,5.6168 9.7305,5.4828 9.9145,5.3588 C10.0985,5.2348 10.2925,5.1168 10.4885,5.0098 C10.6835,4.9028 10.8895,4.8048 11.0965,4.7168 C11.3025,4.6278 11.5205,4.5498 11.7355,4.4828 C11.9505,4.4158 12.1795,4.3568 12.4025,4.3118 C12.6245,4.2668 12.7675,4.0498 12.7225,3.8288 C12.6765,3.6068 12.4605,3.4638 12.2385,3.5088 C11.9885,3.5598 11.7375,3.6248 11.4935,3.7008 C11.2485,3.7768 11.0115,3.8648 10.7775,3.9628 C10.5435,4.0608 10.3185,4.1708 10.0975,4.2908 C9.8765,4.4108 9.6605,4.5408 9.4545,4.6798" id="Fill-71"></path>
                <path d="M5.7042,13.9594 C5.9122,14.0494 6.1532,13.9544 6.2432,13.7464 C6.2592,13.7094 6.2852,13.6514 6.3152,13.5874 C6.3812,13.4454 6.4592,13.2734 6.4902,13.1874 C6.5362,13.0584 6.5782,12.9274 6.6132,12.7954 C6.6472,12.6634 6.6832,12.5294 6.7112,12.3934 C6.7392,12.2584 6.7642,12.1204 6.7832,11.9814 C6.8022,11.8414 6.8172,11.7014 6.8272,11.5604 C6.8362,11.4184 6.8412,11.2734 6.8412,11.1314 C6.8412,10.8934 6.8532,10.6554 6.8772,10.4194 C6.9012,10.1854 6.9372,9.9534 6.9822,9.7274 C7.0302,9.4944 7.1502,9.0094 7.2172,8.7964 C7.2612,8.6564 7.2272,8.5044 7.1282,8.3964 C7.0292,8.2884 6.8802,8.2414 6.7372,8.2734 C6.5932,8.3054 6.4792,8.4104 6.4352,8.5504 C6.3592,8.7964 6.2332,9.3044 6.1802,9.5614 C6.1282,9.8174 6.0892,10.0754 6.0622,10.3344 C6.0362,10.5964 6.0212,10.8634 6.0212,11.1294 C6.0212,11.2524 6.0172,11.3784 6.0082,11.5014 C5.9992,11.6254 5.9872,11.7474 5.9712,11.8664 C5.9542,11.9864 5.9332,12.1054 5.9082,12.2244 C5.8832,12.3434 5.8552,12.4574 5.8232,12.5734 C5.7912,12.6884 5.7552,12.7994 5.7162,12.9104 C5.6902,12.9824 5.6242,13.1244 5.5692,13.2424 C5.5362,13.3134 5.5072,13.3774 5.4872,13.4184 C5.4432,13.5194 5.4422,13.6324 5.4832,13.7344 C5.5232,13.8364 5.6032,13.9174 5.7042,13.9594" id="Fill-73"></path>
            </g>
            <line x1="15.9552" y1="40.8236" x2="43.9882" y2="12.4906" id="Stroke-76" stroke="#79C5B9" stroke-width="0.944" stroke-linecap="round"></line>
        </g>
    </g>
</svg>