<?xml version="1.0" encoding="UTF-8"?>
<svg width="60px" height="53px" viewBox="0 0 60 53" version="1.1" xmlns="http://www.w3.org/2000/svg" xmlns:xlink="http://www.w3.org/1999/xlink">
    <!-- Generator: Sketch 61 (89581) - https://sketch.com -->
    <title>icon-age-4</title>
    <desc>Created with Sketch.</desc>
    <g id="icon-age-4" stroke="none" stroke-width="1" fill="none" fill-rule="evenodd">
        <g id="Group-35">
            <g id="Group-33" transform="translate(0.000000, 0.264400)">
                <path d="M43.1006,2.0744 L17.1226,2.0744 C16.4826,2.0744 15.8866,2.4184 15.5676,2.9724 L2.5786,25.4704 C2.2586,26.0234 2.2586,26.7114 2.5786,27.2654 L15.5676,49.7634 C15.8866,50.3174 16.4826,50.6614 17.1226,50.6614 L43.1006,50.6614 C43.7406,50.6614 44.3356,50.3174 44.6556,49.7634 L57.6446,27.2654 C57.9646,26.7124 57.9646,26.0234 57.6446,25.4704 L44.6556,2.9724 C44.3356,2.4184 43.7406,2.0744 43.1006,2.0744" id="Fill-1" fill="#FEFEFE"></path>
                <path d="M43.1006,1.2948 L17.1226,1.2948 C16.2046,1.2948 15.3506,1.7888 14.8916,2.5828 L1.9036,25.0798 C1.4446,25.8748 1.4446,26.8608 1.9036,27.6558 L14.8926,50.1528 C15.3506,50.9468 16.2056,51.4408 17.1226,51.4408 L43.1006,51.4408 C44.0176,51.4408 44.8726,50.9478 45.3306,50.1528 L58.3196,27.6558 C58.7786,26.8608 58.7786,25.8748 58.3206,25.0808 L45.3306,2.5828 C44.8726,1.7878 44.0176,1.2948 43.1006,1.2948" id="Stroke-3" stroke="#FEFEFE" stroke-width="3.118" stroke-linejoin="round"></path>
                <path d="M43.1006,2.0744 L17.1226,2.0744 C16.4826,2.0744 15.8866,2.4184 15.5676,2.9724 L2.5786,25.4704 C2.2586,26.0234 2.2586,26.7114 2.5786,27.2654 L15.5676,49.7634 C15.8866,50.3174 16.4826,50.6614 17.1226,50.6614 L43.1006,50.6614 C43.7406,50.6614 44.3356,50.3174 44.6556,49.7634 L57.6446,27.2654 C57.9646,26.7124 57.9646,26.0234 57.6446,25.4704 L44.6556,2.9724 C44.3356,2.4184 43.7406,2.0744 43.1006,2.0744" id="Stroke-5" stroke="#E66879" stroke-width="1.559" stroke-linejoin="round"></path>
                <path d="M43.1006,-0.004 L17.1226,-0.004 C15.7426,-0.004 14.4566,0.739 13.7666,1.934 L0.7786,24.431 C0.0886,25.626 0.0886,27.11 0.7786,28.305 L13.7676,50.803 C14.4566,51.997 15.7426,52.74 17.1226,52.74 L43.1006,52.74 C44.4806,52.74 45.7656,51.997 46.4556,50.803 L59.4446,28.305 C60.1346,27.11 60.1346,25.626 59.4456,24.432 L46.4556,1.933 C45.7656,0.738 44.4806,-0.004 43.1006,-0.004" id="Stroke-7" stroke="#E66879" stroke-width="0.521" stroke-linejoin="round"></path>
                <path d="M32.2135,23.328 C32.3575,23.101 32.2895,22.801 32.0625,22.657 C31.8355,22.514 31.5355,22.582 31.3925,22.808 C31.0975,23.273 30.4575,23.574 29.7615,23.574 C29.0655,23.574 28.4255,23.273 28.1315,22.808 C27.9875,22.582 27.6875,22.514 27.4605,22.657 C27.2335,22.801 27.1665,23.101 27.3095,23.328 C27.7855,24.079 28.7245,24.546 29.7615,24.546 C30.7985,24.546 31.7385,24.079 32.2135,23.328" id="Fill-9" fill="#E66879"></path>
                <path d="M32.2135,23.328 C32.3575,23.101 32.2895,22.801 32.0625,22.657 C31.8355,22.514 31.5355,22.582 31.3925,22.808 C31.0975,23.273 30.4575,23.574 29.7615,23.574 C29.0655,23.574 28.4255,23.273 28.1315,22.808 C27.9875,22.582 27.6875,22.514 27.4605,22.657 C27.2335,22.801 27.1665,23.101 27.3095,23.328 C27.7855,24.079 28.7245,24.546 29.7615,24.546 C30.7985,24.546 31.7385,24.079 32.2135,23.328 Z" id="Stroke-11" stroke="#FEFEFE" stroke-width="0.15"></path>
                <path d="M32.8863,19.5807 C33.1543,19.5807 33.3723,19.3627 33.3723,19.0947 L33.3723,18.6957 C33.3723,18.4277 33.1543,18.2097 32.8863,18.2097 C32.6173,18.2097 32.4003,18.4277 32.4003,18.6957 L32.4003,19.0947 C32.4003,19.3627 32.6173,19.5807 32.8863,19.5807" id="Fill-13" fill="#E66879"></path>
                <path d="M32.8863,19.5807 C33.1543,19.5807 33.3723,19.3627 33.3723,19.0947 L33.3723,18.6957 C33.3723,18.4277 33.1543,18.2097 32.8863,18.2097 C32.6173,18.2097 32.4003,18.4277 32.4003,18.6957 L32.4003,19.0947 C32.4003,19.3627 32.6173,19.5807 32.8863,19.5807 Z" id="Stroke-15" stroke="#FEFEFE" stroke-width="0.15"></path>
                <path d="M26.6369,18.21 C26.3679,18.21 26.1509,18.428 26.1509,18.696 L26.1509,19.095 C26.1509,19.363 26.3679,19.581 26.6369,19.581 C26.9049,19.581 27.1229,19.363 27.1229,19.095 L27.1229,18.696 C27.1229,18.428 26.9049,18.21 26.6369,18.21" id="Fill-17" fill="#E66879"></path>
                <path d="M26.6369,18.21 C26.3679,18.21 26.1509,18.428 26.1509,18.696 L26.1509,19.095 C26.1509,19.363 26.3679,19.581 26.6369,19.581 C26.9049,19.581 27.1229,19.363 27.1229,19.095 L27.1229,18.696 C27.1229,18.428 26.9049,18.21 26.6369,18.21 Z" id="Stroke-19" stroke="#FEFEFE" stroke-width="0.15"></path>
                <path d="M39.8624,30.4449 C38.1494,29.5759 36.3294,28.9299 34.4504,28.5269 C34.4464,28.5259 34.4424,28.5249 34.4384,28.5239 C34.2824,28.4909 34.1434,28.4619 34.0134,28.4369 C33.3374,28.3059 32.8464,27.7169 32.8464,27.0359 L32.8464,26.8559 C33.1734,26.6979 33.4964,26.5139 33.8054,26.2969 C34.9074,25.5279 36.2074,24.0959 36.3624,21.5769 C37.3554,21.4939 38.1374,20.6589 38.1374,19.6459 L38.1374,18.9589 C38.1374,18.3869 37.8884,17.8729 37.4944,17.5179 L37.4944,15.9859 C37.4944,12.5309 34.6834,9.7199 31.2284,9.7199 L28.2944,9.7199 C24.8394,9.7199 22.0284,12.5309 22.0284,15.9859 L22.0284,17.5179 C21.6344,17.8729 21.3854,18.3869 21.3854,18.9589 L21.3854,19.6459 C21.3854,20.6669 22.1794,21.5069 23.1824,21.5789 C23.3344,23.9869 24.6464,25.4219 25.7574,26.2149 C26.0574,26.4279 26.3664,26.6129 26.6764,26.7719 L26.6764,27.0359 C26.6764,27.7169 26.1854,28.3059 25.5094,28.4369 C25.3804,28.4619 25.2404,28.4909 25.0844,28.5239 C25.0804,28.5249 25.0764,28.5259 25.0724,28.5269 C23.1934,28.9299 21.3734,29.5759 19.6604,30.4449 C18.1394,31.2169 17.1944,32.7559 17.1944,34.4619 L17.1944,36.1719 C17.1944,36.4399 17.4124,36.6579 17.6804,36.6579 C17.9484,36.6579 18.1664,36.4399 18.1664,36.1719 L18.1664,34.4619 C18.1664,33.1239 18.9074,31.9169 20.1004,31.3119 C21.5874,30.5569 23.1594,29.9779 24.7814,29.5889 C25.2314,30.9399 27.2574,31.9309 29.7614,31.9309 C32.2644,31.9309 34.2914,30.9399 34.7414,29.5889 C36.3634,29.9779 37.9354,30.5569 39.4224,31.3119 C40.6154,31.9169 41.3564,33.1239 41.3564,34.4619 L41.3564,36.1829 C41.3564,36.4519 41.5734,36.6689 41.8424,36.6689 C42.1104,36.6689 42.3284,36.4519 42.3284,36.1829 L42.3284,34.4619 C42.3284,32.7559 41.3834,31.2169 39.8624,30.4449 L39.8624,30.4449 Z M37.1654,19.6459 C37.1654,20.1179 36.8244,20.5129 36.3764,20.5959 L36.3654,18.0069 C36.8194,18.0849 37.1654,18.4819 37.1654,18.9589 L37.1654,19.6459 Z M23.0004,15.9859 C23.0004,13.0659 25.3754,10.6909 28.2944,10.6909 L31.2284,10.6909 C34.1474,10.6909 36.5224,13.0659 36.5224,15.9859 L36.5224,17.0479 C36.4474,17.0349 36.3704,17.0259 36.2924,17.0229 C36.2364,16.8739 36.1464,16.7389 36.0284,16.6249 C35.8134,16.4189 35.5304,16.3119 35.2314,16.3229 C34.9434,16.3339 33.9064,16.2269 32.6454,14.4039 C32.5064,14.2019 32.2854,14.0789 32.0414,14.0649 C31.7944,14.0519 31.5604,14.1519 31.3974,14.3389 C30.4574,15.4229 29.0004,15.9059 27.9424,16.1209 C26.5704,16.3999 25.2864,16.3619 24.5414,16.2329 C24.1944,16.1729 23.8414,16.2689 23.5724,16.4959 C23.4044,16.6379 23.2824,16.8209 23.2134,17.0229 C23.1414,17.0269 23.0704,17.0359 23.0004,17.0469 L23.0004,15.9859 Z M22.3574,19.6459 L22.3574,18.9589 C22.3574,18.4839 22.7014,18.0879 23.1534,18.0069 L23.1654,20.5989 C22.7084,20.5239 22.3574,20.1249 22.3574,19.6459 L22.3574,19.6459 Z M24.1404,21.1109 L24.1224,17.4059 C24.1224,17.2739 24.2454,17.1679 24.3754,17.1909 C25.2074,17.3349 26.6324,17.3789 28.1364,17.0739 C29.2874,16.8399 30.8644,16.3159 31.9794,15.1449 C33.3724,17.0649 34.6314,17.3189 35.2684,17.2939 C35.3334,17.2929 35.3904,17.3429 35.3904,17.4089 C35.3904,17.4089 35.4064,21.1069 35.4064,21.1129 C35.3964,23.0319 34.6704,24.5079 33.2494,25.4999 C32.0814,26.3159 30.6584,26.6219 29.7924,26.6359 C28.8984,26.6269 27.4804,26.2489 26.3224,25.4229 C24.8744,24.3909 24.1404,22.9409 24.1404,21.1109 L24.1404,21.1109 Z M29.7614,30.9589 C27.8374,30.9589 26.1214,30.2559 25.7394,29.3819 C26.7974,29.1559 27.5754,28.2529 27.6434,27.1889 C28.4674,27.4809 29.2374,27.6029 29.7894,27.6079 L29.8014,27.6079 C30.3744,27.5989 31.1124,27.4899 31.8834,27.2409 C31.9734,28.2819 32.7424,29.1599 33.7834,29.3819 C33.4014,30.2559 31.6854,30.9589 29.7614,30.9589 L29.7614,30.9589 Z" id="Fill-21" fill="#E66879"></path>
                <path d="M39.8624,30.4449 C38.1494,29.5759 36.3294,28.9299 34.4504,28.5269 C34.4464,28.5259 34.4424,28.5249 34.4384,28.5239 C34.2824,28.4909 34.1434,28.4619 34.0134,28.4369 C33.3374,28.3059 32.8464,27.7169 32.8464,27.0359 L32.8464,26.8559 C33.1734,26.6979 33.4964,26.5139 33.8054,26.2969 C34.9074,25.5279 36.2074,24.0959 36.3624,21.5769 C37.3554,21.4939 38.1374,20.6589 38.1374,19.6459 L38.1374,18.9589 C38.1374,18.3869 37.8884,17.8729 37.4944,17.5179 L37.4944,15.9859 C37.4944,12.5309 34.6834,9.7199 31.2284,9.7199 L28.2944,9.7199 C24.8394,9.7199 22.0284,12.5309 22.0284,15.9859 L22.0284,17.5179 C21.6344,17.8729 21.3854,18.3869 21.3854,18.9589 L21.3854,19.6459 C21.3854,20.6669 22.1794,21.5069 23.1824,21.5789 C23.3344,23.9869 24.6464,25.4219 25.7574,26.2149 C26.0574,26.4279 26.3664,26.6129 26.6764,26.7719 L26.6764,27.0359 C26.6764,27.7169 26.1854,28.3059 25.5094,28.4369 C25.3804,28.4619 25.2404,28.4909 25.0844,28.5239 C25.0804,28.5249 25.0764,28.5259 25.0724,28.5269 C23.1934,28.9299 21.3734,29.5759 19.6604,30.4449 C18.1394,31.2169 17.1944,32.7559 17.1944,34.4619 L17.1944,36.1719 C17.1944,36.4399 17.4124,36.6579 17.6804,36.6579 C17.9484,36.6579 18.1664,36.4399 18.1664,36.1719 L18.1664,34.4619 C18.1664,33.1239 18.9074,31.9169 20.1004,31.3119 C21.5874,30.5569 23.1594,29.9779 24.7814,29.5889 C25.2314,30.9399 27.2574,31.9309 29.7614,31.9309 C32.2644,31.9309 34.2914,30.9399 34.7414,29.5889 C36.3634,29.9779 37.9354,30.5569 39.4224,31.3119 C40.6154,31.9169 41.3564,33.1239 41.3564,34.4619 L41.3564,36.1829 C41.3564,36.4519 41.5734,36.6689 41.8424,36.6689 C42.1104,36.6689 42.3284,36.4519 42.3284,36.1829 L42.3284,34.4619 C42.3284,32.7559 41.3834,31.2169 39.8624,30.4449 Z M37.1654,19.6459 C37.1654,20.1179 36.8244,20.5129 36.3764,20.5959 L36.3654,18.0069 C36.8194,18.0849 37.1654,18.4819 37.1654,18.9589 L37.1654,19.6459 Z M23.0004,15.9859 C23.0004,13.0659 25.3754,10.6909 28.2944,10.6909 L31.2284,10.6909 C34.1474,10.6909 36.5224,13.0659 36.5224,15.9859 L36.5224,17.0479 C36.4474,17.0349 36.3704,17.0259 36.2924,17.0229 C36.2364,16.8739 36.1464,16.7389 36.0284,16.6249 C35.8134,16.4189 35.5304,16.3119 35.2314,16.3229 C34.9434,16.3339 33.9064,16.2269 32.6454,14.4039 C32.5064,14.2019 32.2854,14.0789 32.0414,14.0649 C31.7944,14.0519 31.5604,14.1519 31.3974,14.3389 C30.4574,15.4229 29.0004,15.9059 27.9424,16.1209 C26.5704,16.3999 25.2864,16.3619 24.5414,16.2329 C24.1944,16.1729 23.8414,16.2689 23.5724,16.4959 C23.4044,16.6379 23.2824,16.8209 23.2134,17.0229 C23.1414,17.0269 23.0704,17.0359 23.0004,17.0469 L23.0004,15.9859 Z M22.3574,19.6459 L22.3574,18.9589 C22.3574,18.4839 22.7014,18.0879 23.1534,18.0069 L23.1654,20.5989 C22.7084,20.5239 22.3574,20.1249 22.3574,19.6459 Z M24.1404,21.1109 L24.1224,17.4059 C24.1224,17.2739 24.2454,17.1679 24.3754,17.1909 C25.2074,17.3349 26.6324,17.3789 28.1364,17.0739 C29.2874,16.8399 30.8644,16.3159 31.9794,15.1449 C33.3724,17.0649 34.6314,17.3189 35.2684,17.2939 C35.3334,17.2929 35.3904,17.3429 35.3904,17.4089 C35.3904,17.4089 35.4064,21.1069 35.4064,21.1129 C35.3964,23.0319 34.6704,24.5079 33.2494,25.4999 C32.0814,26.3159 30.6584,26.6219 29.7924,26.6359 C28.8984,26.6269 27.4804,26.2489 26.3224,25.4229 C24.8744,24.3909 24.1404,22.9409 24.1404,21.1109 Z M29.7614,30.9589 C27.8374,30.9589 26.1214,30.2559 25.7394,29.3819 C26.7974,29.1559 27.5754,28.2529 27.6434,27.1889 C28.4674,27.4809 29.2374,27.6029 29.7894,27.6079 L29.8014,27.6079 C30.3744,27.5989 31.1124,27.4899 31.8834,27.2409 C31.9734,28.2819 32.7424,29.1599 33.7834,29.3819 C33.4014,30.2559 31.6854,30.9589 29.7614,30.9589 Z" id="Stroke-23" stroke="#FEFEFE" stroke-width="0.15"></path>
                <path d="M41.8423,38.0376 C41.5733,38.0376 41.3563,38.2556 41.3563,38.5236 L41.3563,41.5066 C41.3563,41.7366 41.1693,41.9236 40.9393,41.9236 L38.5143,41.9236 L38.5143,36.5486 C38.5143,36.2796 38.2963,36.0626 38.0283,36.0626 C37.7593,36.0626 37.5423,36.2796 37.5423,36.5486 L37.5423,41.9236 L21.9803,41.9236 L21.9803,36.5476 C21.9803,36.2796 21.7633,36.0616 21.4943,36.0616 C21.2263,36.0616 21.0083,36.2796 21.0083,36.5476 L21.0083,41.9236 L18.5833,41.9236 C18.3543,41.9236 18.1663,41.7366 18.1663,41.5066 L18.1663,38.5316 C18.1663,38.2636 17.9493,38.0456 17.6803,38.0456 C17.4123,38.0456 17.1943,38.2636 17.1943,38.5316 L17.1943,41.5066 C17.1943,42.2726 17.8173,42.8956 18.5833,42.8956 L40.9393,42.8956 C41.7053,42.8956 42.3283,42.2726 42.3283,41.5066 L42.3283,38.5236 C42.3283,38.2556 42.1103,38.0376 41.8423,38.0376" id="Fill-25" fill="#E66879"></path>
                <path d="M41.8423,38.0376 C41.5733,38.0376 41.3563,38.2556 41.3563,38.5236 L41.3563,41.5066 C41.3563,41.7366 41.1693,41.9236 40.9393,41.9236 L38.5143,41.9236 L38.5143,36.5486 C38.5143,36.2796 38.2963,36.0626 38.0283,36.0626 C37.7593,36.0626 37.5423,36.2796 37.5423,36.5486 L37.5423,41.9236 L21.9803,41.9236 L21.9803,36.5476 C21.9803,36.2796 21.7633,36.0616 21.4943,36.0616 C21.2263,36.0616 21.0083,36.2796 21.0083,36.5476 L21.0083,41.9236 L18.5833,41.9236 C18.3543,41.9236 18.1663,41.7366 18.1663,41.5066 L18.1663,38.5316 C18.1663,38.2636 17.9493,38.0456 17.6803,38.0456 C17.4123,38.0456 17.1943,38.2636 17.1943,38.5316 L17.1943,41.5066 C17.1943,42.2726 17.8173,42.8956 18.5833,42.8956 L40.9393,42.8956 C41.7053,42.8956 42.3283,42.2726 42.3283,41.5066 L42.3283,38.5236 C42.3283,38.2556 42.1103,38.0376 41.8423,38.0376 Z" id="Stroke-27" stroke="#FEFEFE" stroke-width="0.15"></path>
                <path d="M33.4424,39.3885 C33.9174,39.6235 34.4814,39.2015 34.9054,38.9915 C35.2244,38.8335 35.5434,38.6755 35.8624,38.5185 C36.1174,38.3915 36.2764,38.1355 36.2764,37.8505 L36.2764,35.3205 C36.2764,34.9105 35.9424,34.5765 35.5314,34.5765 L32.0154,34.5765 C31.6044,34.5765 31.2704,34.9105 31.2704,35.3205 L31.2704,37.8505 C31.2704,38.1355 31.4284,38.3915 31.6844,38.5185 C31.6844,38.5185 33.4424,39.3885 33.4424,39.3885 L33.4424,39.3885 Z M32.2424,35.5475 L35.3044,35.5475 L35.3044,37.7095 L33.7734,38.4675 L32.2424,37.7095 L32.2424,35.5475 Z" id="Fill-29" fill="#E66879"></path>
                <path d="M33.4424,39.3885 C33.9174,39.6235 34.4814,39.2015 34.9054,38.9915 C35.2244,38.8335 35.5434,38.6755 35.8624,38.5185 C36.1174,38.3915 36.2764,38.1355 36.2764,37.8505 L36.2764,35.3205 C36.2764,34.9105 35.9424,34.5765 35.5314,34.5765 L32.0154,34.5765 C31.6044,34.5765 31.2704,34.9105 31.2704,35.3205 L31.2704,37.8505 C31.2704,38.1355 31.4284,38.3915 31.6844,38.5185 C31.6844,38.5185 33.4424,39.3885 33.4424,39.3885 Z M32.2424,35.5475 L35.3044,35.5475 L35.3044,37.7095 L33.7734,38.4675 L32.2424,37.7095 L32.2424,35.5475 Z" id="Stroke-31" stroke="#FEFEFE" stroke-width="0.15"></path>
            </g>
            <polygon id="Fill-34" fill="#FEFEFE" points="18.067 43.2954 41.453 43.2954 41.453 41.7774 18.067 41.7774"></polygon>
        </g>
    </g>
</svg>