<?xml version="1.0" encoding="UTF-8"?>
<svg width="60px" height="53px" viewBox="0 0 60 53" version="1.1" xmlns="http://www.w3.org/2000/svg" xmlns:xlink="http://www.w3.org/1999/xlink">
    <!-- Generator: Sketch 61 (89581) - https://sketch.com -->
    <title>icon-rollstuhl</title>
    <desc>Created with Sketch.</desc>
    <g id="icon-rollstuhl" stroke="none" stroke-width="1" fill="none" fill-rule="evenodd">
        <g id="Group-17">
            <path d="M43.1006,2.3388 L17.1226,2.3388 C16.4826,2.3388 15.8866,2.6828 15.5676,3.2368 L2.5786,25.7348 C2.2586,26.2878 2.2586,26.9758 2.5786,27.5298 L15.5676,50.0278 C15.8866,50.5818 16.4826,50.9258 17.1226,50.9258 L43.1006,50.9258 C43.7396,50.9258 44.3356,50.5818 44.6556,50.0278 L57.6446,27.5298 C57.9646,26.9768 57.9646,26.2878 57.6446,25.7348 L44.6556,3.2368 C44.3356,2.6828 43.7406,2.3388 43.1006,2.3388" id="Fill-1" fill="#FEFEFE"></path>
            <path d="M43.1006,1.5592 L17.1226,1.5592 C16.2046,1.5592 15.3506,2.0532 14.8916,2.8472 L1.9036,25.3442 C1.4446,26.1392 1.4446,27.1252 1.9036,27.9202 L14.8926,50.4172 C15.3506,51.2112 16.2056,51.7052 17.1226,51.7052 L43.1006,51.7052 C44.0176,51.7052 44.8726,51.2122 45.3306,50.4172 L58.3196,27.9202 C58.7786,27.1252 58.7786,26.1392 58.3206,25.3452 L45.3306,2.8472 C44.8726,2.0522 44.0176,1.5592 43.1006,1.5592" id="Stroke-3" stroke="#FEFEFE" stroke-width="3.118" stroke-linejoin="round"></path>
            <path d="M43.1006,2.3388 L17.1226,2.3388 C16.4826,2.3388 15.8866,2.6828 15.5676,3.2368 L2.5786,25.7348 C2.2586,26.2878 2.2586,26.9758 2.5786,27.5298 L15.5676,50.0278 C15.8866,50.5818 16.4826,50.9258 17.1226,50.9258 L43.1006,50.9258 C43.7396,50.9258 44.3356,50.5818 44.6556,50.0278 L57.6446,27.5298 C57.9646,26.9768 57.9646,26.2878 57.6446,25.7348 L44.6556,3.2368 C44.3356,2.6828 43.7406,2.3388 43.1006,2.3388" id="Stroke-5" stroke="#79C5B9" stroke-width="1.559" stroke-linejoin="round"></path>
            <path d="M43.1006,0.2604 L17.1226,0.2604 C15.7426,0.2604 14.4566,1.0034 13.7666,2.1984 L0.7786,24.6954 C0.0886,25.8904 0.0886,27.3744 0.7786,28.5694 L13.7676,51.0674 C14.4566,52.2614 15.7426,53.0044 17.1226,53.0044 L43.1006,53.0044 C44.4806,53.0044 45.7656,52.2614 46.4556,51.0674 L59.4446,28.5694 C60.1346,27.3744 60.1346,25.8904 59.4456,24.6964 L46.4556,2.1974 C45.7656,1.0024 44.4806,0.2604 43.1006,0.2604" id="Stroke-7" stroke="#79C5B9" stroke-width="0.521" stroke-linejoin="round"></path>
            <path d="M34.5404,36.8496 C34.5404,37.4886 35.0594,38.0076 35.6984,38.0076 C36.3374,38.0076 36.8564,37.4886 36.8564,36.8496 C36.8564,36.2106 36.3374,35.6916 35.6984,35.6916 C35.0594,35.6916 34.5404,36.2106 34.5404,36.8496 M36.0844,36.8496 C36.0844,37.0626 35.9114,37.2356 35.6984,37.2356 C35.4854,37.2356 35.3124,37.0626 35.3124,36.8496 C35.3124,36.6366 35.4854,36.4636 35.6984,36.4636 C35.9114,36.4636 36.0844,36.6366 36.0844,36.8496" id="Fill-9" fill="#79C5B9"></path>
            <path d="M24.1184,26.4276 C20.9254,26.4276 18.3284,29.0246 18.3284,32.2176 C18.3284,35.4106 20.9254,38.0076 24.1184,38.0076 C27.3114,38.0076 29.9084,35.4106 29.9084,32.2176 C29.9084,29.0246 27.3114,26.4276 24.1184,26.4276 M24.1184,37.2356 C21.3514,37.2356 19.1004,34.9846 19.1004,32.2176 C19.1004,29.4506 21.3514,27.1996 24.1184,27.1996 C26.8854,27.1996 29.1364,29.4506 29.1364,32.2176 C29.1364,34.9846 26.8854,37.2356 24.1184,37.2356" id="Fill-11" fill="#79C5B9"></path>
            <path d="M24.1184,30.6736 C23.2674,30.6736 22.5744,31.3666 22.5744,32.2176 C22.5744,33.0686 23.2674,33.7616 24.1184,33.7616 C24.9694,33.7616 25.6624,33.0686 25.6624,32.2176 C25.6624,31.3666 24.9694,30.6736 24.1184,30.6736 M24.1184,32.9896 C23.6924,32.9896 23.3464,32.6436 23.3464,32.2176 C23.3464,31.7916 23.6924,31.4456 24.1184,31.4456 C24.5444,31.4456 24.8904,31.7916 24.8904,32.2176 C24.8904,32.6436 24.5444,32.9896 24.1184,32.9896" id="Fill-13" fill="#79C5B9"></path>
            <path d="M42.7493,34.9196 L39.6693,34.9196 L38.7443,30.2956 C38.5643,29.3966 37.7683,28.7436 36.8513,28.7436 L36.0843,28.7436 L36.0843,22.9536 C36.0843,21.8896 35.2183,21.0236 34.1543,21.0236 L32.9573,21.0236 C32.7783,20.1436 31.9983,19.4796 31.0663,19.4796 L25.2763,19.4796 L25.2763,16.6746 C25.2763,15.6106 24.4103,14.7446 23.3463,14.7446 L17.9423,14.7446 C17.6123,14.7446 17.2963,14.8866 17.0763,15.1356 C16.8563,15.3826 16.7533,15.7136 16.7923,16.0426 C16.8623,16.6236 17.3653,17.0606 17.9623,17.0606 L22.9603,17.0606 L22.9603,24.9756 C19.4643,25.5326 16.7842006,28.5676 16.7842006,32.2176 C16.7842006,36.2616 20.0743,39.5516 24.1183,39.5516 C28.1623,39.5516 31.4523,36.2616 31.4523,32.2176 C31.4523,31.2636 31.2693,30.3526 30.9363,29.5156 L35.3123,29.5156 L35.3123,31.8316 L32.6103,31.8316 C32.3973,31.8316 32.2243,32.0046 32.2243,32.2176 C32.2243,32.4306 32.3973,32.6036 32.6103,32.6036 L35.3123,32.6036 L35.3123,34.1756 C34.0043,34.3636 32.9963,35.4906 32.9963,36.8496 C32.9963,38.3396 34.2083,39.5516 35.6983,39.5516 C37.1883,39.5516 38.4003,38.3396 38.4003,36.8496 C38.4003,35.4906 37.3923,34.3636 36.0843,34.1756 L36.0843,29.5156 L36.8513,29.5156 C37.4013,29.5156 37.8793,29.9076 37.9873,30.4466 L38.9723,35.3746 C38.9733,35.3796 38.9743,35.3846 38.9753,35.3886 L39.2833,36.9256 C39.3193,37.1056 39.4773,37.2356 39.6613,37.2356 L42.7493,37.2356 C42.9623,37.2356 43.1353,37.0626 43.1353,36.8496 L43.1353,35.3056 C43.1353,35.0926 42.9623,34.9196 42.7493,34.9196 L42.7493,34.9196 Z M37.6283,36.8496 C37.6283,37.9136 36.7623,38.7796 35.6983,38.7796 C34.6343,38.7796 33.7683,37.9136 33.7683,36.8496 C33.7683,35.7856 34.6343,34.9196 35.6983,34.9196 C36.7623,34.9196 37.6283,35.7856 37.6283,36.8496 L37.6283,36.8496 Z M31.0663,20.2516 C31.5693,20.2516 31.9983,20.5746 32.1583,21.0236 L25.2763,21.0236 L25.2763,20.2516 L31.0663,20.2516 Z M17.9623,16.2886 C17.7593,16.2886 17.5823,16.1406 17.5593,15.9506 C17.5463,15.8396 17.5793,15.7316 17.6543,15.6476 C17.7273,15.5646 17.8333,15.5166 17.9423,15.5166 L22.9603,15.5166 L22.9603,16.2886 L17.9623,16.2886 Z M23.7323,15.5826 C24.1813,15.7426 24.5043,16.1716 24.5043,16.6746 L24.5043,24.8936 C24.3763,24.8866 24.2483,24.8836 24.1183,24.8836 C23.9893,24.8836 23.8603,24.8866 23.7323,24.8936 L23.7323,15.5826 Z M24.1183,38.7796 C20.5003,38.7796 17.5563,35.8356 17.5563,32.2176 C17.5563,28.5996 20.5003,25.6556 24.1183,25.6556 C27.7363,25.6556 30.6803,28.5996 30.6803,32.2176 C30.6803,35.8356 27.7363,38.7796 24.1183,38.7796 L24.1183,38.7796 Z M30.5763,28.7436 C29.5113,26.7716 27.5693,25.3406 25.2763,24.9756 L25.2763,24.1116 L32.6103,24.1116 C32.8233,24.1116 32.9963,23.9386 32.9963,23.7256 C32.9963,23.5126 32.8233,23.3396 32.6103,23.3396 L25.2763,23.3396 L25.2763,21.7956 L34.1543,21.7956 C34.7933,21.7956 35.3123,22.3146 35.3123,22.9536 L35.3123,23.3396 L34.1543,23.3396 C33.9413,23.3396 33.7683,23.5126 33.7683,23.7256 C33.7683,23.9386 33.9413,24.1116 34.1543,24.1116 L35.3123,24.1116 L35.3123,28.7436 L30.5763,28.7436 Z M42.3633,36.4636 L39.9773,36.4636 L39.8233,35.6916 L42.3633,35.6916 L42.3633,36.4636 Z" id="Fill-15" fill="#79C5B9"></path>
        </g>
    </g>
</svg>