<?xml version="1.0" encoding="UTF-8"?>
<svg width="60px" height="53px" viewBox="0 0 60 53" version="1.1" xmlns="http://www.w3.org/2000/svg" xmlns:xlink="http://www.w3.org/1999/xlink">
    <!-- Generator: Sketch 61 (89581) - https://sketch.com -->
    <title>icon-hear</title>
    <desc>Created with Sketch.</desc>
    <g id="icon-hear" stroke="none" stroke-width="1" fill="none" fill-rule="evenodd">
        <g id="Group-17">
            <g id="Group-15" transform="translate(0.000000, 0.264400)">
                <path d="M43.1006,2.0744 L17.1226,2.0744 C16.4826,2.0744 15.8866,2.4184 15.5676,2.9724 L2.5786,25.4704 C2.2586,26.0234 2.2586,26.7114 2.5786,27.2654 L15.5676,49.7634 C15.8866,50.3174 16.4826,50.6614 17.1226,50.6614 L43.1006,50.6614 C43.7406,50.6614 44.3356,50.3174 44.6556,49.7634 L57.6446,27.2654 C57.9646,26.7124 57.9646,26.0234 57.6446,25.4704 L44.6556,2.9724 C44.3356,2.4184 43.7406,2.0744 43.1006,2.0744" id="Fill-1" fill="#FEFEFE"></path>
                <path d="M43.1006,1.2948 L17.1226,1.2948 C16.2046,1.2948 15.3506,1.7888 14.8916,2.5828 L1.9036,25.0798 C1.4446,25.8748 1.4446,26.8608 1.9036,27.6558 L14.8926,50.1528 C15.3506,50.9468 16.2056,51.4408 17.1226,51.4408 L43.1006,51.4408 C44.0176,51.4408 44.8726,50.9478 45.3306,50.1528 L58.3196,27.6558 C58.7786,26.8608 58.7786,25.8748 58.3206,25.0808 L45.3306,2.5828 C44.8726,1.7878 44.0176,1.2948 43.1006,1.2948" id="Stroke-3" stroke="#FEFEFE" stroke-width="3.118" stroke-linejoin="round"></path>
                <path d="M43.1006,2.0744 L17.1226,2.0744 C16.4826,2.0744 15.8866,2.4184 15.5676,2.9724 L2.5786,25.4704 C2.2586,26.0234 2.2586,26.7114 2.5786,27.2654 L15.5676,49.7634 C15.8866,50.3174 16.4826,50.6614 17.1226,50.6614 L43.1006,50.6614 C43.7406,50.6614 44.3356,50.3174 44.6556,49.7634 L57.6446,27.2654 C57.9646,26.7124 57.9646,26.0234 57.6446,25.4704 L44.6556,2.9724 C44.3356,2.4184 43.7406,2.0744 43.1006,2.0744" id="Stroke-5" stroke="#79C5B9" stroke-width="1.559" stroke-linejoin="round"></path>
                <path d="M43.1006,-0.004 L17.1226,-0.004 C15.7426,-0.004 14.4566,0.739 13.7666,1.934 L0.7786,24.431 C0.0886,25.626 0.0886,27.11 0.7786,28.305 L13.7676,50.803 C14.4566,51.997 15.7426,52.74 17.1226,52.74 L43.1006,52.74 C44.4806,52.74 45.7656,51.997 46.4556,50.803 L59.4446,28.305 C60.1346,27.11 60.1346,25.626 59.4456,24.432 L46.4556,1.933 C45.7656,0.738 44.4806,-0.004 43.1006,-0.004" id="Stroke-7" stroke="#79C5B9" stroke-width="0.521" stroke-linejoin="round"></path>
                <path d="M31.0378,12.5546 C26.1058,12.5546 22.0928,16.5676 22.0928,21.4996 L22.0928,34.5356 C22.0928,35.7466 22.4438,36.9146 23.1088,37.9126 C23.2348,38.1016 23.4898,38.1526 23.6798,38.0266 C23.8688,37.9006 23.9198,37.6456 23.7938,37.4566 C23.2198,36.5936 22.9158,35.5836 22.9158,34.5356 L22.9158,21.4996 C22.9158,17.0216 26.5598,13.3776 31.0378,13.3776 C35.5158,13.3776 39.1598,17.0216 39.1598,21.4996 C39.1598,25.7526 37.5638,27.8886 35.8748,30.1506 C34.7238,31.6906 33.5338,33.2836 32.8858,35.5726 C32.4488,37.1156 31.8678,38.1946 31.1088,38.8726 C30.3778,39.5256 29.4748,39.8296 28.2668,39.8296 C27.0778,39.8296 25.9548,39.4566 25.0178,38.7516 C24.8358,38.6146 24.5778,38.6516 24.4408,38.8326 C24.3048,39.0146 24.3408,39.2726 24.5228,39.4096 C25.6028,40.2226 26.8978,40.6526 28.2668,40.6526 C31.0578,40.6526 32.7258,39.1556 33.6778,35.7976 C34.2848,33.6546 35.3768,32.1916 36.5338,30.6426 C38.2298,28.3736 39.9828,26.0256 39.9828,21.4996 C39.9828,16.5676 35.9698,12.5546 31.0378,12.5546" id="Fill-9" fill="#79C5B9"></path>
                <path d="M34.3753,17.4377 C33.3233,16.5977 32.0023,16.1347 30.6573,16.1347 C27.3663,16.1347 24.6893,18.8117 24.6893,22.1027 C24.6893,22.3307 24.8733,22.5147 25.1003,22.5147 C25.3283,22.5147 25.5123,22.3307 25.5123,22.1027 C25.5123,21.2567 25.7173,20.4577 26.0813,19.7537 C26.9803,19.1617 28.9753,19.2807 30.4103,20.3487 C32.3893,21.8217 31.9573,24.0187 31.5233,25.1967 C31.4443,25.4107 31.5533,25.6467 31.7673,25.7257 C31.8143,25.7427 31.8623,25.7507 31.9093,25.7507 C32.0763,25.7507 32.2343,25.6477 32.2953,25.4817 C32.7643,24.2077 32.8463,23.0317 32.5383,21.9867 C32.2723,21.0817 31.7063,20.2877 30.9023,19.6887 C29.7243,18.8117 28.1433,18.4317 26.8753,18.6187 C27.8163,17.5987 29.1633,16.9577 30.6573,16.9577 C31.8333,16.9577 32.9413,17.3467 33.8613,18.0807 C34.7553,18.7947 35.3933,19.7947 35.6593,20.8967 C35.7123,21.1177 35.9343,21.2537 36.1553,21.2007 C36.3763,21.1467 36.5123,20.9247 36.4593,20.7037 C36.1503,19.4247 35.4103,18.2647 34.3753,17.4377" id="Fill-11" fill="#79C5B9"></path>
                <path d="M26.0596,32.1237 C26.4506,33.2717 27.3966,34.0497 28.5906,34.2057 C28.7576,34.2277 28.9196,34.2387 29.0776,34.2387 C29.8826,34.2387 30.5736,33.9547 31.1786,33.3777 C31.7756,32.8087 32.1946,32.0357 32.5646,31.3537 C32.7486,31.0147 32.9226,30.6937 33.1016,30.4247 C33.1036,30.4217 33.1056,30.4197 33.1076,30.4167 C33.3876,29.9737 33.6906,29.5357 33.9836,29.1107 C35.2586,27.2657 36.4626,25.5227 36.6106,22.6827 C36.6216,22.4557 36.4476,22.2617 36.2206,22.2507 C35.9936,22.2387 35.7996,22.4127 35.7876,22.6397 C35.6526,25.2467 34.5126,26.8967 33.3056,28.6437 C33.0096,29.0727 32.7026,29.5167 32.4146,29.9717 C32.2156,30.2707 32.0336,30.6067 31.8406,30.9617 C31.1346,32.2647 30.4046,33.6117 28.6976,33.3897 C27.8206,33.2757 27.1266,32.7027 26.8386,31.8587 C26.5436,30.9897 26.7446,30.0647 27.3636,29.4457 C27.7906,29.0177 28.0256,28.4497 28.0256,27.8457 C28.0256,26.5977 27.0116,25.5837 25.7636,25.5837 C25.5366,25.5837 25.3516,25.7677 25.3516,25.9947 C25.3516,26.2227 25.5366,26.4067 25.7636,26.4067 C26.5576,26.4067 27.2026,27.0517 27.2026,27.8457 C27.2026,28.2297 27.0536,28.5917 26.7816,28.8637 C25.9386,29.7057 25.6626,30.9557 26.0596,32.1237" id="Fill-13" fill="#79C5B9"></path>
            </g>
            <line x1="18.3314" y1="38.8319" x2="41.8914" y2="12.8189" id="Stroke-16" stroke="#79C5B9" stroke-width="0.944" stroke-linecap="round"></line>
        </g>
    </g>
</svg>