<?xml version="1.0" encoding="UTF-8"?>
<svg width="60px" height="53px" viewBox="0 0 60 53" version="1.1" xmlns="http://www.w3.org/2000/svg" xmlns:xlink="http://www.w3.org/1999/xlink">
    <!-- Generator: Sketch 61 (89581) - https://sketch.com -->
    <title>icon-glasses</title>
    <desc>Created with Sketch.</desc>
    <g id="icon-glasses" stroke="none" stroke-width="1" fill="none" fill-rule="evenodd">
        <g id="Group-24">
            <g id="Group-9" transform="translate(0.000000, 0.264400)">
                <path d="M43.1006,2.0744 L17.1226,2.0744 C16.4826,2.0744 15.8866,2.4184 15.5676,2.9724 L2.5786,25.4704 C2.2586,26.0234 2.2586,26.7114 2.5786,27.2654 L15.5676,49.7634 C15.8866,50.3174 16.4826,50.6614 17.1226,50.6614 L43.1006,50.6614 C43.7396,50.6614 44.3356,50.3174 44.6556,49.7634 L57.6446,27.2654 C57.9646,26.7124 57.9646,26.0234 57.6446,25.4704 L44.6556,2.9724 C44.3356,2.4184 43.7406,2.0744 43.1006,2.0744" id="Fill-1" fill="#FEFEFE"></path>
                <path d="M43.1006,1.2948 L17.1226,1.2948 C16.2046,1.2948 15.3506,1.7888 14.8916,2.5828 L1.9036,25.0798 C1.4446,25.8748 1.4446,26.8608 1.9036,27.6558 L14.8926,50.1528 C15.3506,50.9468 16.2056,51.4408 17.1226,51.4408 L43.1006,51.4408 C44.0176,51.4408 44.8726,50.9478 45.3306,50.1528 L58.3196,27.6558 C58.7786,26.8608 58.7786,25.8748 58.3206,25.0808 L45.3306,2.5828 C44.8726,1.7878 44.0176,1.2948 43.1006,1.2948" id="Stroke-3" stroke="#FEFEFE" stroke-width="3.118" stroke-linejoin="round"></path>
                <path d="M43.1006,2.0744 L17.1226,2.0744 C16.4826,2.0744 15.8866,2.4184 15.5676,2.9724 L2.5786,25.4704 C2.2586,26.0234 2.2586,26.7114 2.5786,27.2654 L15.5676,49.7634 C15.8866,50.3174 16.4826,50.6614 17.1226,50.6614 L43.1006,50.6614 C43.7396,50.6614 44.3356,50.3174 44.6556,49.7634 L57.6446,27.2654 C57.9646,26.7124 57.9646,26.0234 57.6446,25.4704 L44.6556,2.9724 C44.3356,2.4184 43.7406,2.0744 43.1006,2.0744" id="Stroke-5" stroke="#79C5B9" stroke-width="1.559" stroke-linejoin="round"></path>
                <path d="M43.1006,-0.004 L17.1226,-0.004 C15.7426,-0.004 14.4566,0.739 13.7666,1.934 L0.7786,24.431 C0.0886,25.626 0.0886,27.11 0.7786,28.305 L13.7676,50.803 C14.4566,51.997 15.7426,52.74 17.1226,52.74 L43.1006,52.74 C44.4806,52.74 45.7656,51.997 46.4556,50.803 L59.4446,28.305 C60.1346,27.11 60.1346,25.626 59.4456,24.432 L46.4556,1.933 C45.7656,0.738 44.4806,-0.004 43.1006,-0.004" id="Stroke-7" stroke="#79C5B9" stroke-width="0.521" stroke-linejoin="round"></path>
            </g>
            <line x1="41.6239" y1="16.7956" x2="39.7679" y2="21.0386" id="Stroke-10" stroke="#FEFEFE" stroke-width="1.871" stroke-linecap="round"></line>
            <g id="Group-23" transform="translate(13.000000, 20.264400)">
                <path d="M13.7453,3.4962 C12.7383,2.6102 11.2283,2.1792 9.1293,2.1792 C7.0793,2.1792 5.4933,2.7322 4.4153,3.8212 C3.4583,4.7892 2.9523,6.1572 2.9523,7.7772 C2.9523,9.2772 3.6133,10.6902 4.8143,11.7572 C5.9883,12.8002 7.5203,13.3752 9.1293,13.3752 C10.7143,13.3752 12.2343,12.6812 13.4093,11.4232 C14.5253,10.2282 15.1643,8.6812 15.1643,7.1782 C15.1643,5.5412 14.7003,4.3372 13.7453,3.4962 M12.6223,10.6872 C11.6533,11.7262 10.4123,12.2972 9.1293,12.2972 C6.3653,12.2972 4.0303,10.2272 4.0303,7.7772 C4.0303,4.8622 5.8413,3.2572 9.1293,3.2572 C10.9293,3.2572 12.2433,3.6092 13.0333,4.3052 C13.7423,4.9292 14.0873,5.8692 14.0873,7.1782 C14.0873,8.4112 13.5533,9.6902 12.6223,10.6872" id="Fill-11" fill="#79C5B9"></path>
                <path d="M13.7453,3.4962 C12.7383,2.6102 11.2283,2.1792 9.1293,2.1792 C7.0793,2.1792 5.4933,2.7322 4.4153,3.8212 C3.4583,4.7892 2.9523,6.1572 2.9523,7.7772 C2.9523,9.2772 3.6133,10.6902 4.8143,11.7572 C5.9883,12.8002 7.5203,13.3752 9.1293,13.3752 C10.7143,13.3752 12.2343,12.6812 13.4093,11.4232 C14.5253,10.2282 15.1643,8.6812 15.1643,7.1782 C15.1643,5.5412 14.7003,4.3372 13.7453,3.4962 Z M12.6223,10.6872 C11.6533,11.7262 10.4123,12.2972 9.1293,12.2972 C6.3653,12.2972 4.0303,10.2272 4.0303,7.7772 C4.0303,4.8622 5.8413,3.2572 9.1293,3.2572 C10.9293,3.2572 12.2433,3.6092 13.0333,4.3052 C13.7423,4.9292 14.0873,5.8692 14.0873,7.1782 C14.0873,8.4112 13.5533,9.6902 12.6223,10.6872 Z" id="Stroke-13" stroke="#FEFEFE" stroke-width="0.165"></path>
                <path d="M35.3099,11.1692 L34.9679,10.2042 C34.8769,9.9482 34.7119,9.7312 34.4909,9.5762 L34.3829,9.5012 C34.5279,8.9432 34.6039,8.3662 34.6039,7.7772 C34.6039,7.5092 34.5949,7.2432 34.5859,6.9862 C34.5589,6.1652 34.5329,5.3902 34.8209,4.9142 C34.9479,4.7052 35.0149,4.4602 35.0139,4.2072 L35.0139,4.2072 C35.0139,3.9322 35.0129,3.6292 35.0129,3.3382 L35.0119,2.9132 C35.0109,2.4102 34.7119,1.9602 34.2489,1.7662 C32.3469,0.9682 28.7999,0.4322 26.6799,0.4322 C24.1369,0.4322 22.2499,1.0062 20.9099,2.1852 C20.5559,2.4962 20.2439,2.8502 19.9809,3.2372 C19.4569,2.9422 18.8629,2.7862 18.2619,2.7862 L17.5479,2.7862 C16.9459,2.7862 16.3519,2.9422 15.8279,3.2372 C15.5659,2.8502 15.2529,2.4962 14.8999,2.1852 C13.5599,1.0062 11.6719,0.4322 9.1299,0.4322 C7.0099,0.4322 3.4629,0.9682 1.5599,1.7662 C1.0979,1.9602 0.7989,2.4102 0.7979,2.9122 L0.7969,3.3382 C0.7959,3.6292 0.7959,3.9332 0.7949,4.2072 C0.7949,4.4602 0.8619,4.7052 0.9889,4.9142 C1.2769,5.3902 1.2509,6.1652 1.2229,6.9862 C1.2149,7.2432 1.2059,7.5092 1.2059,7.7772 C1.2059,8.3662 1.2809,8.9432 1.4269,9.5012 L1.3189,9.5762 C1.0969,9.7312 0.9319,9.9482 0.8419,10.2032 L0.4999,11.1692 C0.3739,11.5232 0.4279,11.9192 0.6439,12.2272 C0.8589,12.5352 1.2129,12.7212 1.5889,12.7242 L2.6129,12.7332 C2.6169,12.7332 2.6209,12.7332 2.6239,12.7332 C2.8189,12.7332 3.0089,12.6892 3.1819,12.6062 C3.3309,12.7632 3.4879,12.9162 3.6539,13.0632 C5.1479,14.3902 7.0919,15.1212 9.1299,15.1212 C11.2039,15.1212 13.1769,14.2312 14.6869,12.6152 C16.1009,11.1002 16.9119,9.1192 16.9119,7.1782 C16.9119,6.7562 16.8839,6.3462 16.8299,5.9542 C17.0249,5.8342 17.3259,5.7432 17.9049,5.7432 C18.4839,5.7432 18.7839,5.8342 18.9799,5.9542 C18.9259,6.3462 18.8979,6.7562 18.8979,7.1782 C18.8979,9.1192 19.7089,11.1002 21.1229,12.6152 C22.6329,14.2312 24.6059,15.1212 26.6799,15.1212 C28.7169,15.1212 30.6619,14.3902 32.1559,13.0632 C32.3209,12.9162 32.4779,12.7632 32.6279,12.6062 C32.8009,12.6892 32.9899,12.7332 33.1849,12.7332 C33.1889,12.7332 33.1929,12.7332 33.1969,12.7332 L34.2209,12.7242 C34.5969,12.7212 34.9499,12.5352 35.1659,12.2272 C35.3819,11.9192 35.4359,11.5232 35.3099,11.1692 L35.3099,11.1692 Z M1.5979,11.6472 C1.5679,11.6472 1.5429,11.6342 1.5259,11.6092 C1.5089,11.5842 1.5049,11.5572 1.5149,11.5292 L1.8319,10.6342 C1.9949,10.9862 2.1879,11.3272 2.4099,11.6542 L1.5979,11.6472 Z M31.4399,12.2572 C30.1429,13.4102 28.4529,14.0442 26.6799,14.0442 C24.9079,14.0442 23.2139,13.2752 21.9099,11.8802 C20.6809,10.5632 19.9749,8.8492 19.9749,7.1782 C19.9749,6.7052 20.0139,6.2502 20.0909,5.8272 C20.1229,5.6512 20.0649,5.4702 19.9359,5.3452 C19.4389,4.8622 18.8499,4.6652 17.9049,4.6652 C16.9589,4.6652 16.3709,4.8622 15.8729,5.3452 C15.7449,5.4702 15.6859,5.6512 15.7179,5.8272 C15.7949,6.2502 15.8339,6.7052 15.8339,7.1782 C15.8339,8.8492 15.1289,10.5632 13.8989,11.8802 C12.5959,13.2752 10.9019,14.0442 9.1299,14.0442 C7.3559,14.0442 5.6659,13.4102 4.3689,12.2572 C3.0239,11.0622 2.2829,9.4702 2.2829,7.7772 C2.2829,7.5272 2.2919,7.2702 2.2999,7.0222 C2.3329,6.0362 2.3639,5.1052 1.9099,4.3562 C1.8849,4.3152 1.8719,4.2642 1.8719,4.2082 C1.8729,3.9342 1.8729,3.6312 1.8739,3.3402 L1.8749,2.9142 C1.8749,2.8462 1.9149,2.7852 1.9769,2.7602 C3.5639,2.0942 6.9069,1.5102 9.1289,1.5102 C11.3989,1.5102 13.0529,1.9952 14.1879,2.9942 C14.4839,3.2542 14.7439,3.5522 14.9599,3.8772 C15.2579,4.3252 15.8589,4.4642 16.3279,4.1922 C16.6979,3.9782 17.1199,3.8642 17.5479,3.8642 L18.2619,3.8642 C18.6899,3.8642 19.1109,3.9782 19.4819,4.1922 C19.9499,4.4642 20.5509,4.3252 20.8489,3.8772 C21.0649,3.5522 21.3249,3.2542 21.6219,2.9942 C22.7559,1.9952 24.4109,1.5102 26.6799,1.5102 C28.9019,1.5102 32.2449,2.0942 33.8319,2.7602 C33.8939,2.7852 33.9339,2.8462 33.9339,2.9142 L33.9349,3.3402 C33.9359,3.6312 33.9369,3.9342 33.9369,4.2082 C33.9369,4.2642 33.9239,4.3152 33.8989,4.3562 C33.4449,5.1052 33.4759,6.0362 33.5089,7.0222 C33.5179,7.2702 33.5259,7.5272 33.5259,7.7772 C33.5259,9.4712 32.7859,11.0622 31.4399,12.2572 L31.4399,12.2572 Z M34.2829,11.6092 C34.2659,11.6342 34.2419,11.6472 34.2119,11.6472 L33.3989,11.6542 C33.6209,11.3272 33.8149,10.9862 33.9769,10.6342 L34.2939,11.5292 C34.3039,11.5572 34.3009,11.5842 34.2829,11.6092 L34.2829,11.6092 Z" id="Fill-15" fill="#79C5B9"></path>
                <path d="M35.3099,11.1692 L34.9679,10.2042 C34.8769,9.9482 34.7119,9.7312 34.4909,9.5762 L34.3829,9.5012 C34.5279,8.9432 34.6039,8.3662 34.6039,7.7772 C34.6039,7.5092 34.5949,7.2432 34.5859,6.9862 C34.5589,6.1652 34.5329,5.3902 34.8209,4.9142 C34.9479,4.7052 35.0149,4.4602 35.0139,4.2072 L35.0139,4.2072 C35.0139,3.9322 35.0129,3.6292 35.0129,3.3382 L35.0119,2.9132 C35.0109,2.4102 34.7119,1.9602 34.2489,1.7662 C32.3469,0.9682 28.7999,0.4322 26.6799,0.4322 C24.1369,0.4322 22.2499,1.0062 20.9099,2.1852 C20.5559,2.4962 20.2439,2.8502 19.9809,3.2372 C19.4569,2.9422 18.8629,2.7862 18.2619,2.7862 L17.5479,2.7862 C16.9459,2.7862 16.3519,2.9422 15.8279,3.2372 C15.5659,2.8502 15.2529,2.4962 14.8999,2.1852 C13.5599,1.0062 11.6719,0.4322 9.1299,0.4322 C7.0099,0.4322 3.4629,0.9682 1.5599,1.7662 C1.0979,1.9602 0.7989,2.4102 0.7979,2.9122 L0.7969,3.3382 C0.7959,3.6292 0.7959,3.9332 0.7949,4.2072 C0.7949,4.4602 0.8619,4.7052 0.9889,4.9142 C1.2769,5.3902 1.2509,6.1652 1.2229,6.9862 C1.2149,7.2432 1.2059,7.5092 1.2059,7.7772 C1.2059,8.3662 1.2809,8.9432 1.4269,9.5012 L1.3189,9.5762 C1.0969,9.7312 0.9319,9.9482 0.8419,10.2032 L0.4999,11.1692 C0.3739,11.5232 0.4279,11.9192 0.6439,12.2272 C0.8589,12.5352 1.2129,12.7212 1.5889,12.7242 L2.6129,12.7332 C2.6169,12.7332 2.6209,12.7332 2.6239,12.7332 C2.8189,12.7332 3.0089,12.6892 3.1819,12.6062 C3.3309,12.7632 3.4879,12.9162 3.6539,13.0632 C5.1479,14.3902 7.0919,15.1212 9.1299,15.1212 C11.2039,15.1212 13.1769,14.2312 14.6869,12.6152 C16.1009,11.1002 16.9119,9.1192 16.9119,7.1782 C16.9119,6.7562 16.8839,6.3462 16.8299,5.9542 C17.0249,5.8342 17.3259,5.7432 17.9049,5.7432 C18.4839,5.7432 18.7839,5.8342 18.9799,5.9542 C18.9259,6.3462 18.8979,6.7562 18.8979,7.1782 C18.8979,9.1192 19.7089,11.1002 21.1229,12.6152 C22.6329,14.2312 24.6059,15.1212 26.6799,15.1212 C28.7169,15.1212 30.6619,14.3902 32.1559,13.0632 C32.3209,12.9162 32.4779,12.7632 32.6279,12.6062 C32.8009,12.6892 32.9899,12.7332 33.1849,12.7332 C33.1889,12.7332 33.1929,12.7332 33.1969,12.7332 L34.2209,12.7242 C34.5969,12.7212 34.9499,12.5352 35.1659,12.2272 C35.3819,11.9192 35.4359,11.5232 35.3099,11.1692 Z M1.5979,11.6472 C1.5679,11.6472 1.5429,11.6342 1.5259,11.6092 C1.5089,11.5842 1.5049,11.5572 1.5149,11.5292 L1.8319,10.6342 C1.9949,10.9862 2.1879,11.3272 2.4099,11.6542 L1.5979,11.6472 Z M31.4399,12.2572 C30.1429,13.4102 28.4529,14.0442 26.6799,14.0442 C24.9079,14.0442 23.2139,13.2752 21.9099,11.8802 C20.6809,10.5632 19.9749,8.8492 19.9749,7.1782 C19.9749,6.7052 20.0139,6.2502 20.0909,5.8272 C20.1229,5.6512 20.0649,5.4702 19.9359,5.3452 C19.4389,4.8622 18.8499,4.6652 17.9049,4.6652 C16.9589,4.6652 16.3709,4.8622 15.8729,5.3452 C15.7449,5.4702 15.6859,5.6512 15.7179,5.8272 C15.7949,6.2502 15.8339,6.7052 15.8339,7.1782 C15.8339,8.8492 15.1289,10.5632 13.8989,11.8802 C12.5959,13.2752 10.9019,14.0442 9.1299,14.0442 C7.3559,14.0442 5.6659,13.4102 4.3689,12.2572 C3.0239,11.0622 2.2829,9.4702 2.2829,7.7772 C2.2829,7.5272 2.2919,7.2702 2.2999,7.0222 C2.3329,6.0362 2.3639,5.1052 1.9099,4.3562 C1.8849,4.3152 1.8719,4.2642 1.8719,4.2082 C1.8729,3.9342 1.8729,3.6312 1.8739,3.3402 L1.8749,2.9142 C1.8749,2.8462 1.9149,2.7852 1.9769,2.7602 C3.5639,2.0942 6.9069,1.5102 9.1289,1.5102 C11.3989,1.5102 13.0529,1.9952 14.1879,2.9942 C14.4839,3.2542 14.7439,3.5522 14.9599,3.8772 C15.2579,4.3252 15.8589,4.4642 16.3279,4.1922 C16.6979,3.9782 17.1199,3.8642 17.5479,3.8642 L18.2619,3.8642 C18.6899,3.8642 19.1109,3.9782 19.4819,4.1922 C19.9499,4.4642 20.5509,4.3252 20.8489,3.8772 C21.0649,3.5522 21.3249,3.2542 21.6219,2.9942 C22.7559,1.9952 24.4109,1.5102 26.6799,1.5102 C28.9019,1.5102 32.2449,2.0942 33.8319,2.7602 C33.8939,2.7852 33.9339,2.8462 33.9339,2.9142 L33.9349,3.3402 C33.9359,3.6312 33.9369,3.9342 33.9369,4.2082 C33.9369,4.2642 33.9239,4.3152 33.8989,4.3562 C33.4449,5.1052 33.4759,6.0362 33.5089,7.0222 C33.5179,7.2702 33.5259,7.5272 33.5259,7.7772 C33.5259,9.4712 32.7859,11.0622 31.4399,12.2572 Z M34.2829,11.6092 C34.2659,11.6342 34.2419,11.6472 34.2119,11.6472 L33.3989,11.6542 C33.6209,11.3272 33.8149,10.9862 33.9769,10.6342 L34.2939,11.5292 C34.3039,11.5572 34.3009,11.5842 34.2829,11.6092 Z" id="Stroke-17" stroke="#FEFEFE" stroke-width="0.165"></path>
                <path d="M26.6799,2.1795 C24.5809,2.1795 23.0709,2.6105 22.0639,3.4965 C21.1089,4.3365 20.6449,5.5415 20.6449,7.1785 C20.6449,8.6815 21.2839,10.2285 22.3999,11.4225 C23.5749,12.6815 25.0949,13.3745 26.6799,13.3745 C28.2889,13.3745 29.8209,12.8005 30.9949,11.7575 C32.1959,10.6905 32.8569,9.2765 32.8569,7.7775 C32.8569,6.1565 32.3509,4.7885 31.3939,3.8215 C30.3159,2.7315 28.7299,2.1795 26.6799,2.1795 M26.6799,12.2975 C25.3969,12.2975 24.1569,11.7255 23.1869,10.6875 C22.2559,9.6905 21.7219,8.4115 21.7219,7.1785 C21.7219,5.8695 22.0669,4.9295 22.7759,4.3055 C23.5659,3.6095 24.8799,3.2565 26.6799,3.2565 C29.9689,3.2565 31.7799,4.8625 31.7799,7.7775 C31.7799,10.2275 29.4439,12.2975 26.6799,12.2975" id="Fill-19" fill="#79C5B9"></path>
                <path d="M26.6799,2.1795 C24.5809,2.1795 23.0709,2.6105 22.0639,3.4965 C21.1089,4.3365 20.6449,5.5415 20.6449,7.1785 C20.6449,8.6815 21.2839,10.2285 22.3999,11.4225 C23.5749,12.6815 25.0949,13.3745 26.6799,13.3745 C28.2889,13.3745 29.8209,12.8005 30.9949,11.7575 C32.1959,10.6905 32.8569,9.2765 32.8569,7.7775 C32.8569,6.1565 32.3509,4.7885 31.3939,3.8215 C30.3159,2.7315 28.7299,2.1795 26.6799,2.1795 Z M26.6799,12.2975 C25.3969,12.2975 24.1569,11.7255 23.1869,10.6875 C22.2559,9.6905 21.7219,8.4115 21.7219,7.1785 C21.7219,5.8695 22.0669,4.9295 22.7759,4.3055 C23.5659,3.6095 24.8799,3.2565 26.6799,3.2565 C29.9689,3.2565 31.7799,4.8625 31.7799,7.7775 C31.7799,10.2275 29.4439,12.2975 26.6799,12.2975 Z" id="Stroke-21" stroke="#FEFEFE" stroke-width="0.165"></path>
            </g>
        </g>
    </g>
</svg>