<?xml version="1.0" encoding="UTF-8"?>
<svg width="60px" height="53px" viewBox="0 0 60 53" version="1.1" xmlns="http://www.w3.org/2000/svg" xmlns:xlink="http://www.w3.org/1999/xlink">
    <!-- Generator: Sketch 61 (89581) - https://sketch.com -->
    <title>icon-divers</title>
    <desc>Created with Sketch.</desc>
    <g id="icon-divers" stroke="none" stroke-width="1" fill="none" fill-rule="evenodd">
        <g id="Group-12">
            <g id="Group-11" transform="translate(0.000000, 0.264400)">
                <path d="M43.1006,2.0744 L17.1226,2.0744 C16.4826,2.0744 15.8866,2.4184 15.5676,2.9724 L2.5786,25.4704 C2.2586,26.0234 2.2586,26.7114 2.5786,27.2654 L15.5676,49.7634 C15.8866,50.3174 16.4826,50.6614 17.1226,50.6614 L43.1006,50.6614 C43.7396,50.6614 44.3356,50.3174 44.6556,49.7634 L57.6446,27.2654 C57.9646,26.7124 57.9646,26.0234 57.6446,25.4704 L44.6556,2.9724 C44.3356,2.4184 43.7406,2.0744 43.1006,2.0744" id="Fill-1" fill="#FEFEFE"></path>
                <path d="M43.1006,1.2948 L17.1226,1.2948 C16.2046,1.2948 15.3506,1.7888 14.8916,2.5828 L1.9036,25.0798 C1.4446,25.8748 1.4446,26.8608 1.9036,27.6558 L14.8926,50.1528 C15.3506,50.9468 16.2056,51.4408 17.1226,51.4408 L43.1006,51.4408 C44.0176,51.4408 44.8726,50.9478 45.3306,50.1528 L58.3196,27.6558 C58.7786,26.8608 58.7786,25.8748 58.3206,25.0808 L45.3306,2.5828 C44.8726,1.7878 44.0176,1.2948 43.1006,1.2948" id="Stroke-3" stroke="#FEFEFE" stroke-width="3.118" stroke-linejoin="round"></path>
                <path d="M43.1006,2.0744 L17.1226,2.0744 C16.4826,2.0744 15.8866,2.4184 15.5676,2.9724 L2.5786,25.4704 C2.2586,26.0234 2.2586,26.7114 2.5786,27.2654 L15.5676,49.7634 C15.8866,50.3174 16.4826,50.6614 17.1226,50.6614 L43.1006,50.6614 C43.7396,50.6614 44.3356,50.3174 44.6556,49.7634 L57.6446,27.2654 C57.9646,26.7124 57.9646,26.0234 57.6446,25.4704 L44.6556,2.9724 C44.3356,2.4184 43.7406,2.0744 43.1006,2.0744" id="Stroke-5" stroke="#61388D" stroke-width="1.559" stroke-linejoin="round"></path>
                <path d="M43.1006,-0.0041 L17.1226,-0.0041 C15.7426,-0.0041 14.4566,0.7389 13.7666,1.9339 L0.7786,24.4309 C0.0886,25.6259 0.0886,27.1099 0.7786,28.3049 L13.7676,50.8029 C14.4566,51.9969 15.7426,52.7399 17.1226,52.7399 L43.1006,52.7399 C44.4806,52.7399 45.7656,51.9969 46.4556,50.8029 L59.4446,28.3049 C60.1346,27.1099 60.1346,25.6259 59.4456,24.4319 L46.4556,1.9329 C45.7656,0.7379 44.4806,-0.0041 43.1006,-0.0041" id="Stroke-7" stroke="#61388D" stroke-width="0.521" stroke-linejoin="round"></path>
                <path d="M30.1115,37.8151 C29.3315,37.8151 28.6965,37.1801 28.6965,36.4001 L28.6965,35.3031 L28.0185,35.3031 C27.2385,35.3031 26.6035,34.6681 26.6035,33.8881 C26.6035,33.1081 27.2385,32.4741 28.0185,32.4741 L28.6965,32.4741 L28.6965,29.0941 C25.0395,28.4201 22.3245,25.1911 22.3245,21.4361 C22.3245,19.9381 22.7475,18.4971 23.5515,17.2441 L23.1975,16.9141 L22.9115,17.2281 C22.3925,17.7971 21.4825,17.8401 20.9135,17.3201 C20.3435,16.8011 20.3015,15.8921 20.8215,15.3221 L21.1305,14.9831 L20.6765,14.5591 L20.6785,14.6501 C20.6885,15.0281 20.5505,15.3871 20.2905,15.6611 C20.0245,15.9411 19.6505,16.1011 19.2645,16.1011 C18.4915,16.1011 17.8705,15.4961 17.8505,14.7231 L17.7615,11.2581 C17.7425,10.4921 18.3495,9.8421 19.1155,9.8091 L22.5785,9.6621 C23.3495,9.6261 24.0195,10.2451 24.0515,11.0151 C24.0845,11.7851 23.4695,12.4551 22.6985,12.4881 L22.6075,12.4921 L23.0365,12.8931 L23.4445,12.4451 C23.9695,11.8691 24.8665,11.8281 25.4425,12.3531 C25.7225,12.6081 25.8855,12.9561 25.9025,13.3331 C25.9205,13.7111 25.7895,14.0721 25.5345,14.3521 L25.1045,14.8241 L25.4835,15.1781 C26.8185,14.1901 28.4475,13.6491 30.1115,13.6491 C31.7755,13.6491 33.4045,14.1901 34.7395,15.1781 L37.6155,12.4921 L37.5245,12.4881 C37.1465,12.4721 36.7985,12.3101 36.5425,12.0311 C36.2875,11.7531 36.1555,11.3921 36.1715,11.0151 C36.1875,10.6361 36.3505,10.2861 36.6295,10.0311 C36.9085,9.7751 37.2695,9.6441 37.6455,9.6621 L41.1075,9.8091 C41.8735,9.8421 42.4805,10.4921 42.4615,11.2581 L42.3725,14.7231 C42.3525,15.4961 41.7315,16.1011 40.9585,16.1011 C40.9465,16.1011 40.9345,16.1011 40.9225,16.1011 C40.1425,16.0811 39.5245,15.4301 39.5445,14.6511 L39.5465,14.5591 L36.6715,17.2441 C37.4755,18.4971 37.8985,19.9381 37.8985,21.4371 C37.8985,21.6661 37.7125,21.8521 37.4825,21.8521 C37.2535,21.8521 37.0665,21.6661 37.0665,21.4371 C37.0665,19.9901 36.6255,18.6021 35.7895,17.4231 C35.6685,17.2541 35.6925,17.0211 35.8445,16.8791 L39.7045,13.2741 C39.9685,13.0271 40.4135,13.2281 40.4035,13.5881 L40.3765,14.6721 C40.3685,14.9931 40.6225,15.2611 40.9435,15.2691 L40.9585,15.2691 C41.2715,15.2691 41.5325,15.0151 41.5405,14.7021 L41.6295,11.2371 C41.6375,10.9211 41.3875,10.6541 41.0725,10.6401 L37.6095,10.4931 C37.2925,10.4771 37.0155,10.7331 37.0025,11.0501 C36.9895,11.3671 37.2425,11.6431 37.5595,11.6571 L38.6425,11.7031 C39.0035,11.7181 39.1735,12.1751 38.9095,12.4221 L35.0485,16.0281 C34.8965,16.1701 34.6625,16.1781 34.5015,16.0461 C33.2645,15.0371 31.7055,14.4811 30.1115,14.4811 C28.5175,14.4811 26.9585,15.0371 25.7215,16.0461 C25.5605,16.1781 25.3265,16.1701 25.1745,16.0281 L24.2355,15.1511 C24.0695,14.9961 24.0585,14.7351 24.2125,14.5671 L24.9205,13.7911 C25.1345,13.5561 25.1165,13.1821 24.8825,12.9681 C24.6445,12.7521 24.2755,12.7691 24.0595,13.0061 L23.3675,13.7651 C23.2145,13.9331 22.9435,13.9441 22.7765,13.7881 L21.3145,12.4221 C21.0495,12.1751 21.2195,11.7181 21.5805,11.7031 L22.6635,11.6561 C22.9775,11.6431 23.2335,11.3641 23.2205,11.0501 C23.2075,10.7361 22.9295,10.4791 22.6145,10.4931 L19.1515,10.6401 C18.8355,10.6541 18.5855,10.9211 18.5935,11.2371 L18.6825,14.7021 C18.6905,15.0151 18.9515,15.2691 19.2645,15.2691 C19.5875,15.2681 19.8555,14.9971 19.8465,14.6721 L19.8195,13.5881 C19.8095,13.2281 20.2545,13.0271 20.5185,13.2741 L21.9985,14.6561 C22.1655,14.8111 22.1755,15.0721 22.0225,15.2401 L21.4365,15.8831 C21.2225,16.1171 21.2395,16.4921 21.4735,16.7061 C21.7095,16.9191 22.0825,16.9021 22.2965,16.6681 L22.8665,16.0431 C23.0205,15.8741 23.2915,15.8631 23.4585,16.0191 L24.3785,16.8791 C24.5305,17.0211 24.5545,17.2531 24.4335,17.4231 C23.5985,18.6021 23.1565,19.9901 23.1565,21.4361 C23.1565,24.8991 25.7415,27.8611 29.1695,28.3271 C29.3755,28.3561 29.5295,28.5321 29.5295,28.7401 L29.5295,32.8901 C29.5295,33.1201 29.3425,33.3061 29.1135,33.3061 L28.0185,33.3061 C27.6965,33.3061 27.4355,33.5671 27.4355,33.8881 C27.4355,34.2091 27.6965,34.4711 28.0185,34.4711 L29.1135,34.4711 C29.3425,34.4711 29.5295,34.6571 29.5295,34.8871 L29.5295,36.4001 C29.5295,36.7221 29.7905,36.9831 30.1115,36.9831 C30.4325,36.9831 30.6945,36.7221 30.6945,36.4001 L30.6945,34.8871 C30.6945,34.6571 30.8805,34.4711 31.1095,34.4711 L32.2055,34.4711 C32.5265,34.4711 32.7875,34.2091 32.7875,33.8881 C32.7875,33.5671 32.5265,33.3061 32.2055,33.3061 L31.1095,33.3061 C30.8805,33.3061 30.6945,33.1191 30.6945,32.8901 L30.6945,31.7061 C30.6945,31.4761 30.8805,31.2901 31.1095,31.2901 C31.3395,31.2901 31.5255,31.4761 31.5255,31.7061 L31.5255,32.4741 L32.2055,32.4741 C32.9845,32.4741 33.6195,33.1081 33.6195,33.8881 C33.6195,34.6681 32.9855,35.3031 32.2055,35.3031 L31.5255,35.3031 L31.5255,36.4001 C31.5255,37.1801 30.8915,37.8151 30.1115,37.8151 M31.1095,30.4581 C30.8805,30.4581 30.6935,30.2711 30.6935,30.0421 L30.6935,28.7401 C30.6935,28.5321 30.8475,28.3561 31.0535,28.3271 C33.8735,27.9441 36.2135,25.8251 36.8765,23.0561 C36.9305,22.8321 37.1545,22.6941 37.3775,22.7481 C37.6015,22.8011 37.7395,23.0261 37.6855,23.2491 C37.3215,24.7711 36.5125,26.1361 35.3475,27.1961 C34.2645,28.1811 32.9495,28.8331 31.5255,29.0951 L31.5255,30.0421 C31.5255,30.2711 31.3395,30.4581 31.1095,30.4581 M30.1115,27.2271 C26.9185,27.2271 24.3215,24.6291 24.3215,21.4361 C24.3215,21.2061 24.5075,21.0201 24.7375,21.0201 C24.9665,21.0201 25.1535,21.2061 25.1535,21.4361 C25.1535,24.1701 27.3775,26.3951 30.1115,26.3951 C32.8455,26.3951 35.0695,24.1701 35.0695,21.4361 C35.0695,18.7021 32.8455,16.4781 30.1115,16.4781 C27.9505,16.4781 26.0535,17.8611 25.3905,19.9191 C25.3195,20.1381 25.0855,20.2581 24.8665,20.1881 C24.6485,20.1171 24.5285,19.8831 24.5985,19.6641 C24.9715,18.5071 25.6875,17.5101 26.6705,16.7821 C27.6725,16.0391 28.8625,15.6461 30.1115,15.6461 C33.3045,15.6461 35.9015,18.2431 35.9015,21.4361 C35.9015,24.6291 33.3045,27.2271 30.1115,27.2271" id="Fill-9" fill="#61388D"></path>
            </g>
            <text id="divers" font-family="Stolzl-Medium, Stolzl" font-size="7" font-weight="400" letter-spacing="0.2614" fill="#6E4997">
                <tspan x="18.946" y="47.609283">d</tspan>
                <tspan x="23.9394" y="47.609283" letter-spacing="0.1606">i</tspan>
                <tspan x="25.906" y="47.609283" letter-spacing="0.001">v</tspan>
                <tspan x="29.813" y="47.609283" letter-spacing="0.2054">e</tspan>
                <tspan x="34.5824" y="47.609283" letter-spacing="0.1508">r</tspan>
                <tspan x="37.7082" y="47.609283" letter-spacing="0.001">s</tspan>
            </text>
        </g>
    </g>
</svg>