<?xml version="1.0" encoding="UTF-8"?>
<svg width="60px" height="53px" viewBox="0 0 60 53" version="1.1" xmlns="http://www.w3.org/2000/svg" xmlns:xlink="http://www.w3.org/1999/xlink">
    <!-- Generator: Sketch 61 (89581) - https://sketch.com -->
    <title>icon-blind</title>
    <desc>Created with Sketch.</desc>
    <g id="icon-blind" stroke="none" stroke-width="1" fill="none" fill-rule="evenodd">
        <g id="Group-19">
            <path d="M43.1006,2.3388 L17.1226,2.3388 C16.4826,2.3388 15.8866,2.6828 15.5676,3.2368 L2.5786,25.7348 C2.2586,26.2878 2.2586,26.9758 2.5786,27.5298 L15.5676,50.0278 C15.8866,50.5818 16.4826,50.9258 17.1226,50.9258 L43.1006,50.9258 C43.7396,50.9258 44.3356,50.5818 44.6556,50.0278 L57.6446,27.5298 C57.9646,26.9768 57.9646,26.2878 57.6446,25.7348 L44.6556,3.2368 C44.3356,2.6828 43.7406,2.3388 43.1006,2.3388" id="Fill-1" fill="#FEFEFE"></path>
            <path d="M43.1006,1.5592 L17.1226,1.5592 C16.2046,1.5592 15.3506,2.0532 14.8916,2.8472 L1.9036,25.3442 C1.4446,26.1392 1.4446,27.1252 1.9036,27.9202 L14.8926,50.4172 C15.3506,51.2112 16.2056,51.7052 17.1226,51.7052 L43.1006,51.7052 C44.0176,51.7052 44.8726,51.2122 45.3306,50.4172 L58.3196,27.9202 C58.7786,27.1252 58.7786,26.1392 58.3206,25.3452 L45.3306,2.8472 C44.8726,2.0522 44.0176,1.5592 43.1006,1.5592" id="Stroke-3" stroke="#FEFEFE" stroke-width="3.118" stroke-linejoin="round"></path>
            <path d="M43.1006,2.3388 L17.1226,2.3388 C16.4826,2.3388 15.8866,2.6828 15.5676,3.2368 L2.5786,25.7348 C2.2586,26.2878 2.2586,26.9758 2.5786,27.5298 L15.5676,50.0278 C15.8866,50.5818 16.4826,50.9258 17.1226,50.9258 L43.1006,50.9258 C43.7396,50.9258 44.3356,50.5818 44.6556,50.0278 L57.6446,27.5298 C57.9646,26.9768 57.9646,26.2878 57.6446,25.7348 L44.6556,3.2368 C44.3356,2.6828 43.7406,2.3388 43.1006,2.3388" id="Stroke-5" stroke="#79C5B9" stroke-width="1.559" stroke-linejoin="round"></path>
            <path d="M43.1006,0.2604 L17.1226,0.2604 C15.7426,0.2604 14.4566,1.0034 13.7666,2.1984 L0.7786,24.6954 C0.0886,25.8904 0.0886,27.3744 0.7786,28.5694 L13.7676,51.0674 C14.4566,52.2614 15.7426,53.0044 17.1226,53.0044 L43.1006,53.0044 C44.4806,53.0044 45.7656,52.2614 46.4556,51.0674 L59.4446,28.5694 C60.1346,27.3744 60.1346,25.8904 59.4456,24.6964 L46.4556,2.1974 C45.7656,1.0024 44.4806,0.2604 43.1006,0.2604" id="Stroke-7" stroke="#79C5B9" stroke-width="0.521" stroke-linejoin="round"></path>
            <path d="M21.7465,32.4734 C21.2475,32.0804 20.7645,31.7044 20.2865,31.3234 C18.6955,30.0564 17.1065,28.7874 15.5175,27.5174 C14.9225,27.0424 14.9235,26.3854 15.5205,25.9104 C17.4885,24.3444 19.4485,22.7694 21.4295,21.2204 C23.6295,19.4994 26.1405,18.5384 28.9245,18.3444 C29.8445,18.2804 30.7755,18.3614 31.7005,18.3974 C31.9155,18.4054 32.0425,18.3604 32.1715,18.1824 C33.4135,16.4744 34.6655,14.7754 35.9145,13.0734 C36.1455,12.7584 36.4545,12.5974 36.8435,12.6694 C37.2215,12.7404 37.4905,12.9624 37.6005,13.3464 C37.6995,13.6944 37.5575,13.9764 37.3595,14.2474 C36.3655,15.6094 35.3715,16.9724 34.3805,18.3364 C31.4645,22.3474 28.5495,26.3594 25.6345,30.3714 C24.0055,32.6114 22.3755,34.8514 20.7455,37.0904 C20.6735,37.1894 20.5985,37.2894 20.5125,37.3754 C20.1525,37.7304 19.5715,37.7594 19.1985,37.4474 C18.8375,37.1454 18.7655,36.6324 19.0615,36.2084 C19.5985,35.4404 20.1555,34.6854 20.7045,33.9234 C21.0495,33.4454 21.3925,32.9654 21.7465,32.4734 M24.4625,28.7684 C22.9865,27.0094 22.3605,25.0314 22.6975,22.6844 C20.9295,24.0594 19.2355,25.3774 17.5135,26.7164 C19.3185,28.1544 21.0785,29.5564 22.8615,30.9754 C23.4275,30.1944 23.9385,29.4904 24.4625,28.7684 M25.5805,27.2204 C27.2935,24.8504 28.9695,22.5304 30.6465,20.2094 C30.5995,20.1784 30.5835,20.1584 30.5665,20.1584 C28.7775,20.1104 27.0505,20.4104 25.3985,21.1004 C25.2785,21.1504 25.1715,21.2764 25.1045,21.3934 C24.7485,22.0134 24.5635,22.6904 24.4995,23.3964 C24.3735,24.7844 24.7305,26.0414 25.5805,27.2204" id="Fill-9" fill="#79C5B9"></path>
            <path d="M21.7465,32.4734 C21.2475,32.0804 20.7645,31.7044 20.2865,31.3234 C18.6955,30.0564 17.1065,28.7874 15.5175,27.5174 C14.9225,27.0424 14.9235,26.3854 15.5205,25.9104 C17.4885,24.3444 19.4485,22.7694 21.4295,21.2204 C23.6295,19.4994 26.1405,18.5384 28.9245,18.3444 C29.8445,18.2804 30.7755,18.3614 31.7005,18.3974 C31.9155,18.4054 32.0425,18.3604 32.1715,18.1824 C33.4135,16.4744 34.6655,14.7754 35.9145,13.0734 C36.1455,12.7584 36.4545,12.5974 36.8435,12.6694 C37.2215,12.7404 37.4905,12.9624 37.6005,13.3464 C37.6995,13.6944 37.5575,13.9764 37.3595,14.2474 C36.3655,15.6094 35.3715,16.9724 34.3805,18.3364 C31.4645,22.3474 28.5495,26.3594 25.6345,30.3714 C24.0055,32.6114 22.3755,34.8514 20.7455,37.0904 C20.6735,37.1894 20.5985,37.2894 20.5125,37.3754 C20.1525,37.7304 19.5715,37.7594 19.1985,37.4474 C18.8375,37.1454 18.7655,36.6324 19.0615,36.2084 C19.5985,35.4404 20.1555,34.6854 20.7045,33.9234 C21.0495,33.4454 21.3925,32.9654 21.7465,32.4734 Z M24.4625,28.7684 C22.9865,27.0094 22.3605,25.0314 22.6975,22.6844 C20.9295,24.0594 19.2355,25.3774 17.5135,26.7164 C19.3185,28.1544 21.0785,29.5564 22.8615,30.9754 C23.4275,30.1944 23.9385,29.4904 24.4625,28.7684 Z M25.5805,27.2204 C27.2935,24.8504 28.9695,22.5304 30.6465,20.2094 C30.5995,20.1784 30.5835,20.1584 30.5665,20.1584 C28.7775,20.1104 27.0505,20.4104 25.3985,21.1004 C25.2785,21.1504 25.1715,21.2764 25.1045,21.3934 C24.7485,22.0134 24.5635,22.6904 24.4995,23.3964 C24.3735,24.7844 24.7305,26.0414 25.5805,27.2204 Z" id="Stroke-11" stroke="#FEFEFE" stroke-width="0.75"></path>
            <path d="M42.6994,26.7072 C40.9754,25.3322 39.2834,23.9822 37.5234,22.5782 C37.5394,22.7532 37.5444,22.8332 37.5544,22.9122 C38.1764,27.5682 34.4404,31.6262 29.7314,31.3912 C29.2214,31.3662 28.7114,31.2552 28.2104,31.1452 C27.6864,31.0312 27.4024,30.5652 27.5024,30.0612 C27.6004,29.5712 28.0574,29.2562 28.5794,29.3262 C29.0544,29.3902 29.5284,29.5102 30.0054,29.5192 C33.2664,29.5772 35.8704,26.9192 35.7424,23.6672 C35.7034,22.6792 35.4164,21.7562 34.8644,20.9262 C34.6214,20.5602 34.5984,20.2262 34.8114,19.8992 C35.0474,19.5352 35.4354,19.3652 35.8544,19.4682 C36.0254,19.5102 36.1874,19.5942 36.3484,19.6702 C37.7884,20.3512 39.0094,21.3502 40.2384,22.3392 C41.7104,23.5232 43.1894,24.6982 44.6644,25.8792 C45.3124,26.3972 45.3144,27.0352 44.6654,27.5522 C42.6994,29.1212 40.7574,30.7222 38.7564,32.2452 C35.8414,34.4652 32.5184,35.4012 28.8684,35.0942 C27.8724,35.0102 26.8854,34.7782 25.9044,34.5672 C25.2464,34.4262 24.9424,33.8972 25.1074,33.3262 C25.2714,32.7592 25.8084,32.4982 26.4494,32.6882 C29.5274,33.6002 32.5264,33.3882 35.4494,32.0682 C36.7804,31.4672 37.9044,30.5652 39.0284,29.6592 C40.1854,28.7252 41.3504,27.8012 42.5114,26.8722 C42.5624,26.8312 42.6104,26.7862 42.6994,26.7072" id="Fill-13" fill="#79C5B9"></path>
            <path d="M42.6994,26.7072 C40.9754,25.3322 39.2834,23.9822 37.5234,22.5782 C37.5394,22.7532 37.5444,22.8332 37.5544,22.9122 C38.1764,27.5682 34.4404,31.6262 29.7314,31.3912 C29.2214,31.3662 28.7114,31.2552 28.2104,31.1452 C27.6864,31.0312 27.4024,30.5652 27.5024,30.0612 C27.6004,29.5712 28.0574,29.2562 28.5794,29.3262 C29.0544,29.3902 29.5284,29.5102 30.0054,29.5192 C33.2664,29.5772 35.8704,26.9192 35.7424,23.6672 C35.7034,22.6792 35.4164,21.7562 34.8644,20.9262 C34.6214,20.5602 34.5984,20.2262 34.8114,19.8992 C35.0474,19.5352 35.4354,19.3652 35.8544,19.4682 C36.0254,19.5102 36.1874,19.5942 36.3484,19.6702 C37.7884,20.3512 39.0094,21.3502 40.2384,22.3392 C41.7104,23.5232 43.1894,24.6982 44.6644,25.8792 C45.3124,26.3972 45.3144,27.0352 44.6654,27.5522 C42.6994,29.1212 40.7574,30.7222 38.7564,32.2452 C35.8414,34.4652 32.5184,35.4012 28.8684,35.0942 C27.8724,35.0102 26.8854,34.7782 25.9044,34.5672 C25.2464,34.4262 24.9424,33.8972 25.1074,33.3262 C25.2714,32.7592 25.8084,32.4982 26.4494,32.6882 C29.5274,33.6002 32.5264,33.3882 35.4494,32.0682 C36.7804,31.4672 37.9044,30.5652 39.0284,29.6592 C40.1854,28.7252 41.3504,27.8012 42.5114,26.8722 C42.5624,26.8312 42.6104,26.7862 42.6994,26.7072 Z" id="Stroke-15" stroke="#FEFEFE" stroke-width="0.75"></path>
            <path d="M18.3877,23.7179 C18.0687,24.0049 18.0437,24.4959 18.3307,24.8139 C18.6167,25.1329 19.1077,25.1589 19.4267,24.8719 L20.5127,23.8939 C20.8317,23.6069 20.8567,23.1159 20.5707,22.7969 C20.2837,22.4789 19.7927,22.4529 19.4737,22.7399 L18.3877,23.7179 Z" id="Fill-17" fill="#FEFEFE"></path>
        </g>
    </g>
</svg>