<?xml version="1.0" encoding="UTF-8"?>
<svg width="60px" height="53px" viewBox="0 0 60 53" version="1.1" xmlns="http://www.w3.org/2000/svg" xmlns:xlink="http://www.w3.org/1999/xlink">
    <!-- Generator: Sketch 61 (89581) - https://sketch.com -->
    <title>icon-single</title>
    <desc>Created with Sketch.</desc>
    <defs>
        <polyline id="path-1" points="0.413 1.06 1.587 26.534 25.547 26.534 25.547 0.678"></polyline>
        <polyline id="path-3" points="0.413 1.06 1.587 26.534 25.547 26.534 25.547 0.678"></polyline>
    </defs>
    <g id="icon-single" stroke="none" stroke-width="1" fill="none" fill-rule="evenodd">
        <g id="Group-26">
            <g id="Group-13" transform="translate(0.000000, 0.264400)">
                <path d="M43.1006,2.0744 L17.1226,2.0744 C16.4826,2.0744 15.8866,2.4184 15.5676,2.9724 L2.5786,25.4704 C2.2586,26.0234 2.2586,26.7114 2.5786,27.2654 L15.5676,49.7634 C15.8866,50.3174 16.4826,50.6614 17.1226,50.6614 L43.1006,50.6614 C43.7396,50.6614 44.3356,50.3174 44.6556,49.7634 L57.6446,27.2654 C57.9646,26.7124 57.9646,26.0234 57.6446,25.4704 L44.6556,2.9724 C44.3356,2.4184 43.7406,2.0744 43.1006,2.0744" id="Fill-1" fill="#FEFEFE"></path>
                <path d="M43.1006,1.2948 L17.1226,1.2948 C16.2046,1.2948 15.3506,1.7888 14.8916,2.5828 L1.9036,25.0798 C1.4446,25.8748 1.4446,26.8608 1.9036,27.6558 L14.8926,50.1528 C15.3506,50.9468 16.2056,51.4408 17.1226,51.4408 L43.1006,51.4408 C44.0176,51.4408 44.8726,50.9478 45.3306,50.1528 L58.3196,27.6558 C58.7786,26.8608 58.7786,25.8748 58.3206,25.0808 L45.3306,2.5828 C44.8726,1.7878 44.0176,1.2948 43.1006,1.2948" id="Stroke-3" stroke="#FEFEFE" stroke-width="3.118" stroke-linejoin="round"></path>
                <path d="M43.1006,2.0744 L17.1226,2.0744 C16.4826,2.0744 15.8866,2.4184 15.5676,2.9724 L2.5786,25.4704 C2.2586,26.0234 2.2586,26.7114 2.5786,27.2654 L15.5676,49.7634 C15.8866,50.3174 16.4826,50.6614 17.1226,50.6614 L43.1006,50.6614 C43.7396,50.6614 44.3356,50.3174 44.6556,49.7634 L57.6446,27.2654 C57.9646,26.7124 57.9646,26.0234 57.6446,25.4704 L44.6556,2.9724 C44.3356,2.4184 43.7406,2.0744 43.1006,2.0744" id="Stroke-5" stroke="#313365" stroke-width="1.559" stroke-linejoin="round"></path>
                <path d="M43.1006,-0.004 L17.1226,-0.004 C15.7426,-0.004 14.4566,0.739 13.7666,1.934 L0.7786,24.431 C0.0886,25.626 0.0886,27.11 0.7786,28.305 L13.7676,50.803 C14.4566,51.997 15.7426,52.74 17.1226,52.74 L43.1006,52.74 C44.4806,52.74 45.7656,51.997 46.4556,50.803 L59.4446,28.305 C60.1346,27.11 60.1346,25.626 59.4456,24.432 L46.4556,1.933 C45.7656,0.738 44.4806,-0.004 43.1006,-0.004" id="Stroke-7" stroke="#313365" stroke-width="0.521" stroke-linejoin="round"></path>
                <path d="M35.4836,14.107 L35.4756,14.107 C34.3816,14.088 33.4746,13.213 33.4536,12.155 C33.4386,11.271 34.1976,10.52 35.1656,10.436 C35.2496,9.486 36.0146,8.769 36.9456,8.784 C38.0396,8.802 38.9466,9.677 38.9666,10.734 L38.9666,10.751 L38.9146,13.613 C38.9086,13.855 38.7066,14.051 38.4546,14.055 L35.4926,14.107 L35.4836,14.107 Z M36.9156,9.688 C36.4276,9.688 36.1096,10.144 36.0946,10.573 L36.0936,10.601 C36.0866,10.795 36.0796,10.996 35.9086,11.158 C35.7396,11.32 35.5416,11.326 35.3316,11.332 L35.3066,11.334 C34.8596,11.348 34.3816,11.66 34.3896,12.139 C34.4006,12.713 34.8916,13.189 35.4846,13.204 L37.9866,13.16 L38.0316,10.743 C38.0156,10.18 37.5126,9.697 36.9286,9.688 L36.9156,9.688 Z" id="Fill-9" fill="#313365"></path>
                <path d="M22.7501,10.4311 C22.5491,10.4311 22.3631,10.3061 22.3021,10.1091 L21.8631,8.6921 C21.7871,8.4531 21.9281,8.2011 22.1771,8.1291 C22.4241,8.0581 22.6841,8.1941 22.7591,8.4321 L23.1991,9.8501 C23.2721,10.0891 23.1331,10.3411 22.8851,10.4121 L22.7501,10.4311 Z" id="Fill-11" fill="#313365"></path>
            </g>
            <g id="Group-20" transform="translate(16.000000, 4.264400)">
                <g id="Group-16">
                    <mask id="mask-2" fill="white">
                        <use xlink:href="#path-1"></use>
                    </mask>
                    <g id="Clip-15"></g>
                    <path d="M3.5181,7.6151 C3.4351,7.6151 3.3521,7.5941 3.2771,7.5501 L1.9071,6.7541 C1.6841,6.6251 1.6131,6.3481 1.7471,6.1331 C1.8801,5.9201 2.1671,5.8511 2.3901,5.9801 L3.7601,6.7751 C3.9811,6.9051 4.0521,7.1821 3.9181,7.3961 C3.8311,7.5371 3.6761,7.6151 3.5181,7.6151" id="Fill-14" fill="#313365" mask="url(#mask-2)"></path>
                </g>
                <g id="Group-19">
                    <mask id="mask-4" fill="white">
                        <use xlink:href="#path-3"></use>
                    </mask>
                    <g id="Clip-18"></g>
                    <path d="M10.1244,5.6991 L9.9224,5.6551 C9.6894,5.5481 9.5914,5.2781 9.7024,5.0521 L10.3924,3.6591 C10.5024,3.4341 10.7824,3.3391 11.0154,3.4471 C11.2494,3.5541 11.3474,3.8231 11.2354,4.0481 L10.5464,5.4431 C10.4664,5.6041 10.2984,5.6991 10.1244,5.6991" id="Fill-17" fill="#313365" mask="url(#mask-4)"></path>
                </g>
            </g>
            <g id="Group-25" transform="translate(18.000000, 10.264400)" fill="#313365">
                <path d="M22.2596,16.2486 C22.4416,15.8866 22.5946,15.5096 22.7146,15.1216 C23.3846,12.9636 23.0226,10.6546 21.7206,8.7836 C21.5766,8.5766 21.2846,8.5216 21.0706,8.6606 C20.8566,8.8006 20.7986,9.0806 20.9426,9.2876 C22.0886,10.9326 22.4076,12.9646 21.8186,14.8626 C21.7496,15.0846 21.6666,15.3036 21.5746,15.5186 C21.3726,15.0856 21.0096,14.7476 20.5736,14.5876 L20.5986,14.5076 C21.4786,11.6786 19.8106,8.6866 16.8806,7.8376 C16.0436,7.5936 15.1586,7.5466 14.3036,7.6956 C13.9356,7.3366 13.5286,7.0146 13.0876,6.7316 C14.4256,6.2896 15.8736,6.2596 17.2476,6.6586 C17.4636,6.7206 17.6806,6.7956 17.8936,6.8786 C18.1326,6.9746 18.4056,6.8646 18.5046,6.6326 C18.6026,6.4026 18.4886,6.1386 18.2486,6.0436 C18.0066,5.9466 17.7606,5.8636 17.5156,5.7936 C15.6936,5.2636 13.7576,5.3966 12.0376,6.1666 C10.9426,5.6756 9.7626,5.4436 8.5776,5.4776 L9.4286,3.2756 C9.4926,3.1106 9.4506,2.9256 9.3226,2.7996 L7.5916,1.1116 C7.4696,0.9936 7.2896,0.9486 7.1236,0.9976 L3.3516,2.0896 C3.1856,2.1386 3.0606,2.2706 3.0266,2.4346 L2.5436,4.7646 C2.5086,4.9366 2.5796,5.1136 2.7276,5.2176 L4.6926,6.6026 C3.5526,7.2836 2.6106,8.2456 1.9576,9.4176 C0.9756,11.1796 0.7626,13.2056 1.3586,15.1216 C1.4076,15.2806 1.4636,15.4366 1.5236,15.5906 L1.4626,15.6486 C0.7026,16.4096 0.7026,17.6476 1.4626,18.4086 L1.4736,18.4206 L3.6066,20.4076 C3.6976,20.4926 3.8146,20.5346 3.9306,20.5346 C4.0486,20.5346 4.1656,20.4926 4.2566,20.4076 L5.1446,19.5796 C6.2736,20.1596 7.5306,20.4576 8.7946,20.4576 C9.5426,20.4576 10.2926,20.3536 11.0196,20.1426 C11.3696,20.0406 11.7106,19.9156 12.0376,19.7706 C12.3636,19.9156 12.7026,20.0406 13.0556,20.1426 C13.7866,20.3546 14.5376,20.4596 15.2866,20.4596 C16.4086,20.4596 17.5256,20.2226 18.5616,19.7566 L21.4156,19.8056 L21.4246,19.8056 L21.4336,19.8056 C22.5276,19.7856 23.4346,18.9106 23.4536,17.8536 C23.4676,17.1346 22.9676,16.5036 22.2596,16.2486 L22.2596,16.2486 Z M7.1236,1.9406 L8.1096,2.9016 L3.6146,4.2046 L3.8896,2.8776 L7.1236,1.9406 Z M4.0396,5.0236 L8.2226,3.8116 L7.5416,5.5736 C7.2116,5.6256 6.8826,5.6986 6.5576,5.7936 C6.2326,5.8876 5.9176,6.0016 5.6126,6.1326 L4.0396,5.0236 Z M2.7816,9.8456 C3.6456,8.2956 5.0826,7.1636 6.8266,6.6586 C8.5726,6.1526 10.4166,6.3326 12.0216,7.1676 C13.6246,8.0006 14.7966,9.3886 15.3206,11.0736 C15.9846,13.2076 15.4706,15.5436 13.9826,17.2376 L13.9596,17.2316 C13.5276,17.1076 13.1296,16.9256 12.7696,16.6986 C14.1616,15.3156 14.6846,13.3056 14.1006,11.4276 C13.6746,10.0566 12.7216,8.9286 11.4166,8.2506 C10.1136,7.5726 8.6126,7.4256 7.1946,7.8376 C5.7746,8.2486 4.6066,9.1696 3.9046,10.4286 C3.2016,11.6886 3.0496,13.1376 3.4766,14.5066 C3.5946,14.8846 3.7526,15.2476 3.9506,15.5876 L3.9306,15.6026 C3.4766,15.2336 2.8956,15.0956 2.3666,15.1886 C2.3266,15.0806 2.2886,14.9716 2.2546,14.8626 C1.7316,13.1766 1.9186,11.3946 2.7816,9.8456 L2.7816,9.8456 Z M12.0386,16.1276 C10.8716,15.0056 10.3636,13.3146 10.8696,11.6876 C11.0926,10.9696 11.4936,10.3256 12.0386,9.8066 C12.5786,10.3236 12.9806,10.9646 13.2046,11.6876 C13.6986,13.2756 13.2396,14.9766 12.0386,16.1276 L12.0386,16.1276 Z M9.0466,17.4136 C8.3366,17.4516 7.6256,17.3316 6.9696,17.0586 C6.9766,16.5486 6.7866,16.0376 6.3996,15.6496 C5.9836,15.2326 5.3756,15.0826 4.7966,15.1976 C4.6186,14.8996 4.4766,14.5806 4.3726,14.2476 C4.0186,13.1076 4.1456,11.9046 4.7296,10.8566 C5.3126,9.8086 6.2836,9.0446 7.4636,8.7026 C7.9826,8.5526 8.5146,8.4916 9.0416,8.5186 C8.5136,9.2086 8.1166,9.9766 7.8566,10.8136 C7.1276,13.1576 7.6486,15.5806 9.0466,17.4136 L9.0466,17.4136 Z M3.9306,19.4546 L2.1306,17.7766 C1.7216,17.3606 1.7236,16.6896 2.1356,16.2766 C2.4816,15.9306 3.0466,16.0376 3.3726,16.3316 L3.3936,16.3506 C3.5396,16.4826 3.6916,16.6196 3.9306,16.6196 C4.1696,16.6196 4.3216,16.4836 4.4676,16.3516 L4.4886,16.3316 C4.8146,16.0376 5.3816,15.9326 5.7266,16.2766 C6.1376,16.6896 6.1406,17.3606 5.7316,17.7766 L3.9306,19.4546 Z M10.7496,19.2766 C9.1276,19.7476 7.3766,19.6116 5.8576,18.9146 L6.3876,18.4206 L6.3996,18.4086 C6.5396,18.2686 6.6536,18.1116 6.7426,17.9456 C7.3956,18.1966 8.0916,18.3246 8.7896,18.3246 C9.1196,18.3246 9.4496,18.2956 9.7756,18.2386 C10.1406,18.5966 10.5456,18.9196 10.9856,19.2036 C10.9086,19.2286 10.8286,19.2536 10.7496,19.2766 L10.7496,19.2766 Z M13.3246,19.2766 C9.7216,18.2326 7.6716,14.5536 8.7526,11.0736 C9.0286,10.1866 9.4786,9.3886 10.0926,8.6956 C10.3936,8.7806 10.6886,8.8986 10.9736,9.0466 C11.0876,9.1066 11.1966,9.1696 11.3046,9.2376 C10.6876,9.8496 10.2316,10.5976 9.9736,11.4276 C9.0946,14.2566 10.7606,17.2486 13.6906,18.0976 C14.2126,18.2496 14.7486,18.3236 15.2816,18.3236 C16.2146,18.3236 17.1386,18.0946 17.9636,17.6576 L17.9896,19.0156 C16.5136,19.6306 14.8686,19.7246 13.3246,19.2766 L13.3246,19.2766 Z M17.9426,16.4336 L17.9426,16.4496 L17.9446,16.6046 C17.0886,17.1866 16.0596,17.4666 15.0316,17.4126 C15.6446,16.6076 16.0906,15.6876 16.3326,14.7146 C16.6526,13.4316 16.6126,12.0836 16.2176,10.8136 C15.9576,9.9776 15.5566,9.2046 15.0346,8.5206 C15.5656,8.4936 16.0986,8.5536 16.6116,8.7026 C19.0476,9.4086 20.4336,11.8966 19.7026,14.2476 C19.6746,14.3376 19.6426,14.4286 19.6066,14.5206 C18.6776,14.6986 17.9586,15.4936 17.9426,16.4336 L17.9426,16.4336 Z M21.4236,18.9026 L18.9226,18.8586 L18.8776,16.4416 C18.8916,15.8786 19.3946,15.3966 19.9806,15.3866 L19.9936,15.3866 C20.4806,15.3866 20.7976,15.8436 20.8146,16.2706 L20.8146,16.2946 C20.8206,16.4896 20.8276,16.6906 20.9966,16.8546 C21.1666,17.0186 21.3756,17.0246 21.5766,17.0306 L21.6016,17.0316 C22.0496,17.0466 22.5266,17.3586 22.5176,17.8376 C22.5076,18.4116 22.0176,18.8866 21.4236,18.9026 L21.4236,18.9026 Z" id="Fill-21"></path>
                <path d="M19.8687,7.9456 L19.6607,7.8976 L19.6587,7.8966 C19.4277,7.7846 19.3337,7.5136 19.4487,7.2906 C19.5657,7.0676 19.8457,6.9766 20.0767,7.0886 C20.3087,7.2006 20.4037,7.4716 20.2877,7.6946 C20.2057,7.8536 20.0407,7.9456 19.8687,7.9456" id="Fill-23"></path>
            </g>
            <text id="verheiratet" font-family="Stolzl-Medium, Stolzl" font-size="5.6133" font-weight="400" letter-spacing="-0.12429506" fill="#413F70">
                <tspan x="12.4724" y="42.3660263">v</tspan>
                <tspan x="15.4803263" y="42.3660263" letter-spacing="0.03792931">e</tspan>
                <tspan x="19.1781273" y="42.3660263" letter-spacing="-0.00248645">r</tspan>
                <tspan x="21.5612933" y="42.3660263" letter-spacing="0.034">he</tspan>
                <tspan x="28.8030907" y="42.3660263" letter-spacing="0.07441576">i</tspan>
                <tspan x="30.3257379" y="42.3660263" letter-spacing="-0.01034507">r</tspan>
                <tspan x="32.6898187" y="42.3660263" letter-spacing="0.03736798">a</tspan>
                <tspan x="36.4768711" y="42.3660263" letter-spacing="-0.06254876">t</tspan>
                <tspan x="39.2097457" y="42.3660263" letter-spacing="-0.0052931">e</tspan>
                <tspan x="42.8643242" y="42.3660263" letter-spacing="0.034">t</tspan>
            </text>
        </g>
    </g>
</svg>