<?xml version="1.0" encoding="UTF-8"?>
<svg width="60px" height="53px" viewBox="0 0 60 53" version="1.1" xmlns="http://www.w3.org/2000/svg" xmlns:xlink="http://www.w3.org/1999/xlink">
    <!-- Generator: Sketch 61 (89581) - https://sketch.com -->
    <title>icon-talk</title>
    <desc>Created with Sketch.</desc>
    <g id="icon-talk" stroke="none" stroke-width="1" fill="none" fill-rule="evenodd">
        <g id="Group-30">
            <g id="Group-9" transform="translate(0.000000, 0.264400)">
                <path d="M43.1006,2.0744 L17.1226,2.0744 C16.4826,2.0744 15.8866,2.4184 15.5676,2.9724 L2.5786,25.4704 C2.2586,26.0234 2.2586,26.7114 2.5786,27.2654 L15.5676,49.7634 C15.8866,50.3174 16.4826,50.6614 17.1226,50.6614 L43.1006,50.6614 C43.7396,50.6614 44.3356,50.3174 44.6556,49.7634 L57.6446,27.2654 C57.9646,26.7124 57.9646,26.0234 57.6446,25.4704 L44.6556,2.9724 C44.3356,2.4184 43.7406,2.0744 43.1006,2.0744" id="Fill-1" fill="#FEFEFE"></path>
                <path d="M43.1006,1.2948 L17.1226,1.2948 C16.2046,1.2948 15.3506,1.7888 14.8916,2.5828 L1.9036,25.0798 C1.4446,25.8748 1.4446,26.8608 1.9036,27.6558 L14.8926,50.1528 C15.3506,50.9468 16.2056,51.4408 17.1226,51.4408 L43.1006,51.4408 C44.0176,51.4408 44.8726,50.9478 45.3306,50.1528 L58.3196,27.6558 C58.7786,26.8608 58.7786,25.8748 58.3206,25.0808 L45.3306,2.5828 C44.8726,1.7878 44.0176,1.2948 43.1006,1.2948" id="Stroke-3" stroke="#FEFEFE" stroke-width="3.118" stroke-linejoin="round"></path>
                <path d="M43.1006,2.0744 L17.1226,2.0744 C16.4826,2.0744 15.8866,2.4184 15.5676,2.9724 L2.5786,25.4704 C2.2586,26.0234 2.2586,26.7114 2.5786,27.2654 L15.5676,49.7634 C15.8866,50.3174 16.4826,50.6614 17.1226,50.6614 L43.1006,50.6614 C43.7396,50.6614 44.3356,50.3174 44.6556,49.7634 L57.6446,27.2654 C57.9646,26.7124 57.9646,26.0234 57.6446,25.4704 L44.6556,2.9724 C44.3356,2.4184 43.7406,2.0744 43.1006,2.0744" id="Stroke-5" stroke="#79C5B9" stroke-width="1.559" stroke-linejoin="round"></path>
                <path d="M43.1006,-0.004 L17.1226,-0.004 C15.7426,-0.004 14.4566,0.739 13.7666,1.934 L0.7786,24.431 C0.0886,25.626 0.0886,27.11 0.7786,28.305 L13.7676,50.803 C14.4566,51.997 15.7426,52.74 17.1226,52.74 L43.1006,52.74 C44.4806,52.74 45.7656,51.997 46.4556,50.803 L59.4446,28.305 C60.1346,27.11 60.1346,25.626 59.4456,24.432 L46.4556,1.933 C45.7656,0.738 44.4806,-0.004 43.1006,-0.004" id="Stroke-7" stroke="#79C5B9" stroke-width="0.521" stroke-linejoin="round"></path>
            </g>
            <line x1="41.6239" y1="16.7956" x2="39.7679" y2="21.0386" id="Stroke-10" stroke="#FEFEFE" stroke-width="1.871" stroke-linecap="round"></line>
            <g id="Group-29" transform="translate(15.000000, 12.264400)">
                <path d="M17.2653,12.3797 C17.1793,12.3797 17.0933,12.3597 17.0133,12.3207 C16.8223,12.2247 16.7023,12.0297 16.7023,11.8167 L16.7023,10.1817 L10.5253,10.1817 C9.4563,10.1817 8.5873,9.3127 8.5873,8.2447 L8.5873,2.4557 C8.5873,1.3877 9.4563,0.5187 10.5253,0.5187 L27.8143,0.5187 C28.8833,0.5187 29.7523,1.3877 29.7523,2.4557 L29.7523,8.2447 C29.7523,9.3127 28.8833,10.1817 27.8143,10.1817 L20.3833,10.1817 L17.6033,12.2667 C17.5043,12.3417 17.3853,12.3797 17.2653,12.3797 L17.2653,12.3797 Z M10.5253,1.6447 C10.0773,1.6447 9.7133,2.0087 9.7133,2.4557 L9.7133,8.2447 C9.7133,8.6917 10.0773,9.0557 10.5253,9.0557 L17.2653,9.0557 C17.5763,9.0557 17.8283,9.3077 17.8283,9.6187 L17.8283,10.6907 L19.8583,9.1687 C19.9553,9.0957 20.0743,9.0557 20.1963,9.0557 L27.8143,9.0557 C28.2623,9.0557 28.6263,8.6917 28.6263,8.2447 L28.6263,2.4557 C28.6263,2.0087 28.2623,1.6447 27.8143,1.6447 L10.5253,1.6447 Z" id="Fill-11" fill="#79C5B9"></path>
                <path d="M17.2653,12.3797 C17.1793,12.3797 17.0933,12.3597 17.0133,12.3207 C16.8223,12.2247 16.7023,12.0297 16.7023,11.8167 L16.7023,10.1817 L10.5253,10.1817 C9.4563,10.1817 8.5873,9.3127 8.5873,8.2447 L8.5873,2.4557 C8.5873,1.3877 9.4563,0.5187 10.5253,0.5187 L27.8143,0.5187 C28.8833,0.5187 29.7523,1.3877 29.7523,2.4557 L29.7523,8.2447 C29.7523,9.3127 28.8833,10.1817 27.8143,10.1817 L20.3833,10.1817 L17.6033,12.2667 C17.5043,12.3417 17.3853,12.3797 17.2653,12.3797 Z M10.5253,1.6447 C10.0773,1.6447 9.7133,2.0087 9.7133,2.4557 L9.7133,8.2447 C9.7133,8.6917 10.0773,9.0557 10.5253,9.0557 L17.2653,9.0557 C17.5763,9.0557 17.8283,9.3077 17.8283,9.6187 L17.8283,10.6907 L19.8583,9.1687 C19.9553,9.0957 20.0743,9.0557 20.1963,9.0557 L27.8143,9.0557 C28.2623,9.0557 28.6263,8.6917 28.6263,8.2447 L28.6263,2.4557 C28.6263,2.0087 28.2623,1.6447 27.8143,1.6447 L10.5253,1.6447 Z" id="Stroke-13" stroke="#FEFEFE" stroke-width="0.15"></path>
                <path d="M20.3404,4.2747 L12.1434,4.2747 C11.8324,4.2747 11.5804,4.0227 11.5804,3.7117 C11.5804,3.4007 11.8324,3.1487 12.1434,3.1487 L20.3404,3.1487 C20.6514,3.1487 20.9034,3.4007 20.9034,3.7117 C20.9034,4.0227 20.6514,4.2747 20.3404,4.2747" id="Fill-15" fill="#79C5B9"></path>
                <path d="M16.3917,6.9162 L12.1437,6.9162 C11.8327,6.9162 11.5807,6.6642 11.5807,6.3532 C11.5807,6.0422 11.8327,5.7902 12.1437,5.7902 L16.3917,5.7902 C16.7027,5.7902 16.9547,6.0422 16.9547,6.3532 C16.9547,6.6642 16.7027,6.9162 16.3917,6.9162" id="Fill-17" fill="#79C5B9"></path>
                <path d="M26.196,6.9162 L19.376,6.9162 C19.065,6.9162 18.813,6.6642 18.813,6.3532 C18.813,6.0422 19.065,5.7902 19.376,5.7902 L26.196,5.7902 C26.507,5.7902 26.759,6.0422 26.759,6.3532 C26.759,6.6642 26.507,6.9162 26.196,6.9162" id="Fill-19" fill="#79C5B9"></path>
                <path d="M26.196,4.2747 L23.143,4.2747 C22.832,4.2747 22.58,4.0227 22.58,3.7117 C22.58,3.4007 22.832,3.1487 23.143,3.1487 L26.196,3.1487 C26.507,3.1487 26.759,3.4007 26.759,3.7117 C26.759,4.0227 26.507,4.2747 26.196,4.2747" id="Fill-21" fill="#79C5B9"></path>
                <path d="M18.3273,24.085 C18.1793,24.085 18.0343,24.025 17.9293,23.92 C17.9033,23.894 17.8793,23.866 17.8593,23.835 C17.8393,23.804 17.8213,23.771 17.8073,23.737 C17.7933,23.703 17.7823,23.668 17.7753,23.632 C17.7683,23.596 17.7643,23.559 17.7643,23.522 C17.7643,23.485 17.7683,23.448 17.7753,23.412 C17.7823,23.376 17.7933,23.341 17.8073,23.306 C17.8213,23.273 17.8393,23.24 17.8593,23.209 C17.8793,23.179 17.9033,23.15 17.9293,23.124 C18.0603,22.993 18.2543,22.933 18.4373,22.97 C18.4733,22.977 18.5083,22.988 18.5433,23.002 C18.5763,23.016 18.6093,23.033 18.6393,23.054 C18.6703,23.074 18.6993,23.098 18.7253,23.124 C18.7513,23.15 18.7753,23.179 18.7953,23.209 C18.8163,23.24 18.8333,23.273 18.8473,23.306 C18.8613,23.341 18.8723,23.376 18.8793,23.412 C18.8873,23.448 18.8903,23.485 18.8903,23.522 C18.8903,23.559 18.8873,23.596 18.8793,23.632 C18.8723,23.668 18.8613,23.703 18.8473,23.737 C18.8323,23.771 18.8163,23.804 18.7953,23.835 C18.7753,23.866 18.7513,23.894 18.7253,23.92 C18.6993,23.946 18.6703,23.97 18.6393,23.99 C18.6093,24.01 18.5763,24.028 18.5433,24.042 C18.5083,24.056 18.4733,24.067 18.4373,24.074 C18.4013,24.081 18.3633,24.085 18.3273,24.085" id="Fill-23" fill="#79C5B9"></path>
                <path d="M23.5047,18.8212 C23.4917,18.6672 23.4157,18.5252 23.2957,18.4282 C23.1137,18.2832 18.8277,15.9812 17.6687,15.1792 C16.7327,14.5312 15.7367,14.3852 14.7107,14.7472 C13.8667,15.0452 13.1337,15.6212 12.4237,16.1782 C12.3537,16.2332 12.2837,16.2882 12.2157,16.3412 C12.1477,16.2882 12.0787,16.2332 12.0077,16.1782 C11.2987,15.6212 10.5647,15.0452 9.7217,14.7482 C8.6947,14.3852 7.6997,14.5312 6.7627,15.1792 C5.6047,15.9812 1.3187,18.2832 1.1367,18.4282 C1.0157,18.5252 0.9397,18.6672 0.9277,18.8212 C0.9147,18.9752 0.9657,19.1282 1.0687,19.2432 C1.0687,19.2432 1.5087,19.8012 1.7337,20.1302 C2.2247,20.8522 2.9687,21.3812 3.9587,22.3992 C6.3487,24.8542 9.2037,26.1522 12.2157,26.1522 C13.7187,26.1522 15.1917,25.8282 16.5927,25.1892 C16.8747,25.0602 16.9997,24.7262 16.8707,24.4432 C16.7417,24.1602 16.4077,24.0362 16.1247,24.1652 C14.8717,24.7362 13.5567,25.0262 12.2157,25.0262 C9.5147,25.0262 6.9387,23.8462 4.7667,21.6132 C3.8437,20.6662 3.1617,20.2272 2.6637,19.4962 C2.5187,19.2832 2.3957,19.1022 2.2867,18.9512 C3.4397,18.0332 6.4917,16.7372 7.4037,16.1052 C8.7357,15.1832 9.7687,15.8522 11.3127,17.0642 C11.4987,17.2102 11.6907,17.3612 11.8797,17.5012 C12.0787,17.6502 12.3527,17.6502 12.5527,17.5012 C12.7407,17.3612 12.9337,17.2102 13.1187,17.0642 C14.6627,15.8522 15.6957,15.1822 17.0277,16.1052 C17.8387,16.6662 20.3387,17.5152 21.6947,18.5932 C20.8587,18.6842 19.6757,18.7332 18.7967,18.4492 C17.4557,18.0152 15.5107,17.5972 14.1107,18.9672 C14.0097,19.0652 13.8917,19.1832 13.7587,19.3172 C13.3377,19.7422 12.7897,19.9762 12.2157,19.9762 C11.6417,19.9762 11.0947,19.7422 10.6727,19.3172 C10.5377,19.1802 10.4177,19.0612 10.3187,18.9642 C8.9207,17.5972 6.9787,18.0122 5.6387,18.4442 C5.3427,18.5392 5.1807,18.8562 5.2757,19.1522 C5.3707,19.4482 5.6887,19.6112 5.9847,19.5162 C7.6947,18.9642 8.7887,19.0422 9.5307,19.7692 C9.6267,19.8622 9.7417,19.9772 9.8737,20.1102 C10.5077,20.7502 11.3397,21.1022 12.2157,21.1022 L12.2157,21.1022 C13.0927,21.1022 13.9247,20.7502 14.5587,20.1102 C14.6877,19.9802 14.8017,19.8662 14.8977,19.7722 C15.6417,19.0442 16.7377,18.9662 18.4507,19.5202 C19.4467,19.8432 20.6957,19.8202 21.6247,19.7332 C21.1877,20.3782 20.5837,20.6662 19.8067,21.4682 L19.6657,21.6132 C19.4487,21.8362 19.4537,22.1932 19.6767,22.4102 C19.7857,22.5162 19.9277,22.5692 20.0697,22.5692 C20.2157,22.5692 20.3627,22.5122 20.4727,22.3992 L20.6157,22.2522 C21.5947,21.2412 22.3007,20.7482 22.7677,20.0502 C22.9707,19.7462 23.3627,19.2442 23.3627,19.2442 C23.4657,19.1282 23.5177,18.9752 23.5047,18.8212" id="Fill-25" fill="#79C5B9"></path>
                <path d="M23.5047,18.8212 C23.4917,18.6672 23.4157,18.5252 23.2957,18.4282 C23.1137,18.2832 18.8277,15.9812 17.6687,15.1792 C16.7327,14.5312 15.7367,14.3852 14.7107,14.7472 C13.8667,15.0452 13.1337,15.6212 12.4237,16.1782 C12.3537,16.2332 12.2837,16.2882 12.2157,16.3412 C12.1477,16.2882 12.0787,16.2332 12.0077,16.1782 C11.2987,15.6212 10.5647,15.0452 9.7217,14.7482 C8.6947,14.3852 7.6997,14.5312 6.7627,15.1792 C5.6047,15.9812 1.3187,18.2832 1.1367,18.4282 C1.0157,18.5252 0.9397,18.6672 0.9277,18.8212 C0.9147,18.9752 0.9657,19.1282 1.0687,19.2432 C1.0687,19.2432 1.5087,19.8012 1.7337,20.1302 C2.2247,20.8522 2.9687,21.3812 3.9587,22.3992 C6.3487,24.8542 9.2037,26.1522 12.2157,26.1522 C13.7187,26.1522 15.1917,25.8282 16.5927,25.1892 C16.8747,25.0602 16.9997,24.7262 16.8707,24.4432 C16.7417,24.1602 16.4077,24.0362 16.1247,24.1652 C14.8717,24.7362 13.5567,25.0262 12.2157,25.0262 C9.5147,25.0262 6.9387,23.8462 4.7667,21.6132 C3.8437,20.6662 3.1617,20.2272 2.6637,19.4962 C2.5187,19.2832 2.3957,19.1022 2.2867,18.9512 C3.4397,18.0332 6.4917,16.7372 7.4037,16.1052 C8.7357,15.1832 9.7687,15.8522 11.3127,17.0642 C11.4987,17.2102 11.6907,17.3612 11.8797,17.5012 C12.0787,17.6502 12.3527,17.6502 12.5527,17.5012 C12.7407,17.3612 12.9337,17.2102 13.1187,17.0642 C14.6627,15.8522 15.6957,15.1822 17.0277,16.1052 C17.8387,16.6662 20.3387,17.5152 21.6947,18.5932 C20.8587,18.6842 19.6757,18.7332 18.7967,18.4492 C17.4557,18.0152 15.5107,17.5972 14.1107,18.9672 C14.0097,19.0652 13.8917,19.1832 13.7587,19.3172 C13.3377,19.7422 12.7897,19.9762 12.2157,19.9762 C11.6417,19.9762 11.0947,19.7422 10.6727,19.3172 C10.5377,19.1802 10.4177,19.0612 10.3187,18.9642 C8.9207,17.5972 6.9787,18.0122 5.6387,18.4442 C5.3427,18.5392 5.1807,18.8562 5.2757,19.1522 C5.3707,19.4482 5.6887,19.6112 5.9847,19.5162 C7.6947,18.9642 8.7887,19.0422 9.5307,19.7692 C9.6267,19.8622 9.7417,19.9772 9.8737,20.1102 C10.5077,20.7502 11.3397,21.1022 12.2157,21.1022 L12.2157,21.1022 C13.0927,21.1022 13.9247,20.7502 14.5587,20.1102 C14.6877,19.9802 14.8017,19.8662 14.8977,19.7722 C15.6417,19.0442 16.7377,18.9662 18.4507,19.5202 C19.4467,19.8432 20.6957,19.8202 21.6247,19.7332 C21.1877,20.3782 20.5837,20.6662 19.8067,21.4682 L19.6657,21.6132 C19.4487,21.8362 19.4537,22.1932 19.6767,22.4102 C19.7857,22.5162 19.9277,22.5692 20.0697,22.5692 C20.2157,22.5692 20.3627,22.5122 20.4727,22.3992 L20.6157,22.2522 C21.5947,21.2412 22.3007,20.7482 22.7677,20.0502 C22.9707,19.7462 23.3627,19.2442 23.3627,19.2442 C23.4657,19.1282 23.5177,18.9752 23.5047,18.8212 Z" id="Stroke-27" stroke="#FEFEFE" stroke-width="0.15"></path>
            </g>
        </g>
    </g>
</svg>