<?xml version="1.0" encoding="UTF-8"?>
<svg width="60px" height="53px" viewBox="0 0 60 53" version="1.1" xmlns="http://www.w3.org/2000/svg" xmlns:xlink="http://www.w3.org/1999/xlink">
    <!-- Generator: Sketch 61 (89581) - https://sketch.com -->
    <title>icon-pregnant</title>
    <desc>Created with Sketch.</desc>
    <g id="icon-pregnant" stroke="none" stroke-width="1" fill="none" fill-rule="evenodd">
        <g id="Group-17">
            <path d="M43.1006,2.3388 L17.1226,2.3388 C16.4826,2.3388 15.8866,2.6828 15.5676,3.2368 L2.5786,25.7348 C2.2586,26.2878 2.2586,26.9758 2.5786,27.5298 L15.5676,50.0278 C15.8866,50.5818 16.4826,50.9258 17.1226,50.9258 L43.1006,50.9258 C43.7406,50.9258 44.3356,50.5818 44.6556,50.0278 L57.6446,27.5298 C57.9646,26.9768 57.9646,26.2878 57.6446,25.7348 L44.6556,3.2368 C44.3356,2.6828 43.7406,2.3388 43.1006,2.3388" id="Fill-1" fill="#FEFEFE"></path>
            <path d="M43.1006,1.5592 L17.1226,1.5592 C16.2046,1.5592 15.3506,2.0532 14.8916,2.8472 L1.9036,25.3442 C1.4446,26.1392 1.4446,27.1252 1.9036,27.9202 L14.8926,50.4172 C15.3506,51.2112 16.2056,51.7052 17.1226,51.7052 L43.1006,51.7052 C44.0176,51.7052 44.8726,51.2122 45.3306,50.4172 L58.3196,27.9202 C58.7786,27.1252 58.7786,26.1392 58.3206,25.3452 L45.3306,2.8472 C44.8726,2.0522 44.0176,1.5592 43.1006,1.5592" id="Stroke-3" stroke="#FEFEFE" stroke-width="3.118" stroke-linejoin="round"></path>
            <path d="M43.1006,2.3388 L17.1226,2.3388 C16.4826,2.3388 15.8866,2.6828 15.5676,3.2368 L2.5786,25.7348 C2.2586,26.2878 2.2586,26.9758 2.5786,27.5298 L15.5676,50.0278 C15.8866,50.5818 16.4826,50.9258 17.1226,50.9258 L43.1006,50.9258 C43.7406,50.9258 44.3356,50.5818 44.6556,50.0278 L57.6446,27.5298 C57.9646,26.9768 57.9646,26.2878 57.6446,25.7348 L44.6556,3.2368 C44.3356,2.6828 43.7406,2.3388 43.1006,2.3388" id="Stroke-5" stroke="#79C5B9" stroke-width="1.559" stroke-linejoin="round"></path>
            <path d="M43.1006,0.2604 L17.1226,0.2604 C15.7426,0.2604 14.4566,1.0034 13.7666,2.1984 L0.7786,24.6954 C0.0886,25.8904 0.0886,27.3744 0.7786,28.5694 L13.7676,51.0674 C14.4566,52.2614 15.7426,53.0044 17.1226,53.0044 L43.1006,53.0044 C44.4806,53.0044 45.7656,52.2614 46.4556,51.0674 L59.4446,28.5694 C60.1346,27.3744 60.1346,25.8904 59.4456,24.6964 L46.4556,2.1974 C45.7656,1.0024 44.4806,0.2604 43.1006,0.2604" id="Stroke-7" stroke="#79C5B9" stroke-width="0.521" stroke-linejoin="round"></path>
            <path d="M23.2885,38.0945 C22.7155,39.4725 22.4035,40.9445 22.3695,42.4365 C22.3695,42.7375 22.6135,42.9815 22.9145,42.9815 L39.2635,42.9815 C39.4235,42.9815 39.5765,42.9105 39.6795,42.7885 C39.7835,42.6665 39.8275,42.5045 39.8015,42.3465 C39.7565,42.0735 38.6735,35.6755 36.4815,31.2935 C35.9805,30.1835 35.7255,28.9775 35.7355,27.7585 C36.8885,27.9885 38.0525,28.1575 39.2225,28.2655 L39.2635,28.2675 C39.5135,28.2675 39.7315,28.0965 39.7925,27.8545 C40.6705,24.3445 40.5115,19.4845 40.4065,16.2685 C40.3785,15.4125 40.3515,14.6705 40.3515,14.1105 C40.3505,13.0355 39.9315,12.0045 39.1835,11.2325 C38.6345,10.6375 37.8655,10.2945 37.0565,10.2834901 L30.6355,10.2834901 C30.0625,10.2815 29.5305,10.5815 29.2365,11.0735 C28.5125,12.3125 27.5305,13.3795 26.3555,14.2035 C26.0665,14.3935 25.7595,14.5545 25.4375,14.6825 C24.1415,15.1875 23.3165,16.4685 23.3925,17.8585 C23.4285,18.8885 23.8785,19.8605 24.6395,20.5555 C24.5255,20.5955 24.4145,20.6435 24.3055,20.6975 C23.6375,21.0205 23.1505,21.6275 22.9815,22.3505 C20.4545,24.0145 18.9825,26.8785 19.0995,29.9015 C19.0995,34.4255 21.2825,36.8345 23.2885,38.0945 L23.2885,38.0945 Z M30.1685,11.6375 C30.2665,11.4735 30.4435,11.3735 30.6355,11.3725 L33.2325,11.3725 C33.1195,12.4285 32.6335,14.6425 30.5445,14.6425 C29.6555,14.6425 28.7695,14.5585 27.8965,14.3915 C28.7855,13.5915 29.5515,12.6625 30.1685,11.6375 L30.1685,11.6375 Z M24.4815,17.8215 C24.4195,16.8915 24.9695,16.0305 25.8385,15.6955 C26.1485,15.5695 26.4475,15.4175 26.7325,15.2425 C27.9775,15.5675 29.2595,15.7325 30.5465,15.7325 C33.2665,15.7325 34.1805,13.1295 34.3345,11.3725 L35.3105,11.3725 C34.4395,14.9675 34.2635,18.6945 34.7905,22.3545 C33.9475,22.1915 33.0935,22.0865 32.2355,22.0405 C31.5405,22.0195 30.8495,21.9245 30.1745,21.7555 C29.7165,21.6025 29.2475,21.4105 28.7985,21.2245 C28.0905,20.9055 27.3535,20.6525 26.5985,20.4695 C25.4045,20.1215 24.5575,19.0625 24.4815,17.8215 Z M24.7935,21.6705 C25.2635,21.4535 25.7925,21.3995 26.2965,21.5185 C26.3415,21.5325 26.3875,21.5425 26.4345,21.5455 C27.1015,21.7195 27.7525,21.9495 28.3805,22.2325 C28.8485,22.4245 29.3335,22.6245 29.8275,22.7895 C30.5865,22.9905 31.3665,23.1035 32.1515,23.1265 C33.7045,23.2425 35.4655,23.3745 36.7565,24.3435 C36.9125,24.4605 37.1185,24.4845 37.2975,24.4085 C37.4775,24.3315 37.6015,24.1655 37.6245,23.9725 C37.6485,23.7795 37.5665,23.5885 37.4105,23.4715 C36.9645,23.1445 36.4745,22.8835 35.9535,22.6955 C35.3245,18.9295 35.4855,15.0735 36.4265,11.3725 L37.0565,11.3725 C37.5715,11.3895 38.0585,11.6135 38.4055,11.9945 C38.9475,12.5625 39.2535,13.3135 39.2635,14.0975 C39.2635,14.6795 39.2885,15.4345 39.3185,16.3035 C39.4165,19.3185 39.5635,23.8055 38.8435,27.1315 C37.1925,26.9475 31.4495,26.1415 26.5065,23.4625 C25.8365,22.8705 25.0145,22.4775 24.1335,22.3265 C24.2725,22.0405 24.5055,21.8095 24.7935,21.6725 L24.7935,21.6705 Z M23.4515,23.3625 L23.4595,23.3625 C24.3245,23.3855 25.1535,23.7155 25.7995,24.2925 C25.8365,24.3295 25.8775,24.3605 25.9235,24.3855 C28.6675,25.8285 31.5985,26.8865 34.6315,27.5295 C34.5965,28.9935 34.8945,30.4475 35.5035,31.7795 C37.2325,35.2325 38.2765,40.1555 38.6095,41.8915 L23.4875,41.8915 C23.5715,40.7685 23.8285,39.6655 24.2505,38.6215 C25.9385,39.4065 27.7805,39.8065 29.6425,39.7935 C30.1465,39.7935 30.6505,39.7655 31.1515,39.7095 C31.3455,39.6875 31.5125,39.5645 31.5905,39.3865 C31.6685,39.2075 31.6455,39.0015 31.5305,38.8445 C31.4145,38.6875 31.2245,38.6045 31.0305,38.6255 C28.7025,38.9135 26.3425,38.4875 24.2615,37.4055 C22.4025,36.3705 20.1895,34.2295 20.1895,29.9015 C20.1895,27.0645 21.2955,24.8715 23.4515,23.3625 L23.4515,23.3625 Z" id="Fill-9" fill="#79C5B9"></path>
            <path d="M23.2885,38.0945 C22.7155,39.4725 22.4035,40.9445 22.3695,42.4365 C22.3695,42.7375 22.6135,42.9815 22.9145,42.9815 L39.2635,42.9815 C39.4235,42.9815 39.5765,42.9105 39.6795,42.7885 C39.7835,42.6665 39.8275,42.5045 39.8015,42.3465 C39.7565,42.0735 38.6735,35.6755 36.4815,31.2935 C35.9805,30.1835 35.7255,28.9775 35.7355,27.7585 C36.8885,27.9885 38.0525,28.1575 39.2225,28.2655 L39.2635,28.2675 C39.5135,28.2675 39.7315,28.0965 39.7925,27.8545 C40.6705,24.3445 40.5115,19.4845 40.4065,16.2685 C40.3785,15.4125 40.3515,14.6705 40.3515,14.1105 C40.3505,13.0355 39.9315,12.0045 39.1835,11.2325 C38.6345,10.6375 37.8655,10.2945 37.0565,10.2834901 L30.6355,10.2834901 C30.0625,10.2815 29.5305,10.5815 29.2365,11.0735 C28.5125,12.3125 27.5305,13.3795 26.3555,14.2035 C26.0665,14.3935 25.7595,14.5545 25.4375,14.6825 C24.1415,15.1875 23.3165,16.4685 23.3925,17.8585 C23.4285,18.8885 23.8785,19.8605 24.6395,20.5555 C24.5255,20.5955 24.4145,20.6435 24.3055,20.6975 C23.6375,21.0205 23.1505,21.6275 22.9815,22.3505 C20.4545,24.0145 18.9825,26.8785 19.0995,29.9015 C19.0995,34.4255 21.2825,36.8345 23.2885,38.0945 Z M30.1685,11.6375 C30.2665,11.4735 30.4435,11.3735 30.6355,11.3725 L33.2325,11.3725 C33.1195,12.4285 32.6335,14.6425 30.5445,14.6425 C29.6555,14.6425 28.7695,14.5585 27.8965,14.3915 C28.7855,13.5915 29.5515,12.6625 30.1685,11.6375 Z M24.4815,17.8215 C24.4195,16.8915 24.9695,16.0305 25.8385,15.6955 C26.1485,15.5695 26.4475,15.4175 26.7325,15.2425 C27.9775,15.5675 29.2595,15.7325 30.5465,15.7325 C33.2665,15.7325 34.1805,13.1295 34.3345,11.3725 L35.3105,11.3725 C34.4395,14.9675 34.2635,18.6945 34.7905,22.3545 C33.9475,22.1915 33.0935,22.0865 32.2355,22.0405 C31.5405,22.0195 30.8495,21.9245 30.1745,21.7555 C29.7165,21.6025 29.2475,21.4105 28.7985,21.2245 C28.0905,20.9055 27.3535,20.6525 26.5985,20.4695 C25.4045,20.1215 24.5575,19.0625 24.4815,17.8215 L24.4815,17.8215 Z M24.7935,21.6705 C25.2635,21.4535 25.7925,21.3995 26.2965,21.5185 C26.3415,21.5325 26.3875,21.5425 26.4345,21.5455 C27.1015,21.7195 27.7525,21.9495 28.3805,22.2325 C28.8485,22.4245 29.3335,22.6245 29.8275,22.7895 C30.5865,22.9905 31.3665,23.1035 32.1515,23.1265 C33.7045,23.2425 35.4655,23.3745 36.7565,24.3435 C36.9125,24.4605 37.1185,24.4845 37.2975,24.4085 C37.4775,24.3315 37.6015,24.1655 37.6245,23.9725 C37.6485,23.7795 37.5665,23.5885 37.4105,23.4715 C36.9645,23.1445 36.4745,22.8835 35.9535,22.6955 C35.3245,18.9295 35.4855,15.0735 36.4265,11.3725 L37.0565,11.3725 C37.5715,11.3895 38.0585,11.6135 38.4055,11.9945 C38.9475,12.5625 39.2535,13.3135 39.2635,14.0975 C39.2635,14.6795 39.2885,15.4345 39.3185,16.3035 C39.4165,19.3185 39.5635,23.8055 38.8435,27.1315 C37.1925,26.9475 31.4495,26.1415 26.5065,23.4625 C25.8365,22.8705 25.0145,22.4775 24.1335,22.3265 C24.2725,22.0405 24.5055,21.8095 24.7935,21.6725 L24.7935,21.6705 Z M23.4515,23.3625 L23.4595,23.3625 C24.3245,23.3855 25.1535,23.7155 25.7995,24.2925 C25.8365,24.3295 25.8775,24.3605 25.9235,24.3855 C28.6675,25.8285 31.5985,26.8865 34.6315,27.5295 C34.5965,28.9935 34.8945,30.4475 35.5035,31.7795 C37.2325,35.2325 38.2765,40.1555 38.6095,41.8915 L23.4875,41.8915 C23.5715,40.7685 23.8285,39.6655 24.2505,38.6215 C25.9385,39.4065 27.7805,39.8065 29.6425,39.7935 C30.1465,39.7935 30.6505,39.7655 31.1515,39.7095 C31.3455,39.6875 31.5125,39.5645 31.5905,39.3865 C31.6685,39.2075 31.6455,39.0015 31.5305,38.8445 C31.4145,38.6875 31.2245,38.6045 31.0305,38.6255 C28.7025,38.9135 26.3425,38.4875 24.2615,37.4055 C22.4025,36.3705 20.1895,34.2295 20.1895,29.9015 C20.1895,27.0645 21.2955,24.8715 23.4515,23.3625 Z" id="Stroke-11" stroke="#FEFEFE" stroke-width="0.25"></path>
            <path d="M24.8449,34.3904 C25.1549,34.6484 25.4839,34.9244 25.8299,35.2204 C26.0339,35.3944 26.3339,35.3944 26.5379,35.2204 C26.8839,34.9244 27.2129,34.6484 27.5229,34.3904 C29.3449,32.8724 30.5439,31.8694 30.5439,30.3154 C30.5699,29.6444 30.3239,28.9914 29.8629,28.5034 C29.4009,28.0154 28.7629,27.7344 28.0919,27.7223975 C27.3699,27.7214 26.6799,28.0184 26.1849,28.5424 C25.6889,28.0184 24.9989,27.7214 24.2769,27.7223975 C23.6059,27.7344 22.9679,28.0154 22.5059,28.5034 C22.0449,28.9914 21.7989,29.6444 21.8249,30.3154 C21.8249,31.8694 23.0239,32.8724 24.8449,34.3904 Z M24.2769,28.8124 C24.8729,28.8324 25.4129,29.1674 25.6979,29.6904 C25.7909,29.8724 25.9769,29.9864 26.1809,29.9874 L26.1849,29.9874 C26.3889,29.9864 26.5759,29.8724 26.6699,29.6904 C26.9549,29.1664 27.4959,28.8324 28.0919,28.8124 C28.4749,28.8234 28.8359,28.9894 29.0929,29.2734 C29.3499,29.5574 29.4809,29.9334 29.4539,30.3154 C29.4539,31.3594 28.4649,32.1854 26.8259,33.5534 C26.6209,33.7254 26.4059,33.9034 26.1849,34.0914 C25.9629,33.9034 25.7489,33.7254 25.5429,33.5534 C23.9039,32.1854 22.9149,31.3594 22.9149,30.3154 C22.8879,29.9334 23.0189,29.5574 23.2759,29.2734 C23.5329,28.9894 23.8939,28.8234 24.2769,28.8124 L24.2769,28.8124 Z" id="Fill-13" fill="#79C5B9"></path>
            <path d="M24.8449,34.3904 C25.1549,34.6484 25.4839,34.9244 25.8299,35.2204 C26.0339,35.3944 26.3339,35.3944 26.5379,35.2204 C26.8839,34.9244 27.2129,34.6484 27.5229,34.3904 C29.3449,32.8724 30.5439,31.8694 30.5439,30.3154 C30.5699,29.6444 30.3239,28.9914 29.8629,28.5034 C29.4009,28.0154 28.7629,27.7344 28.0919,27.7223975 C27.3699,27.7214 26.6799,28.0184 26.1849,28.5424 C25.6889,28.0184 24.9989,27.7214 24.2769,27.7223975 C23.6059,27.7344 22.9679,28.0154 22.5059,28.5034 C22.0449,28.9914 21.7989,29.6444 21.8249,30.3154 C21.8249,31.8694 23.0239,32.8724 24.8449,34.3904 L24.8449,34.3904 Z M24.2769,28.8124 C24.8729,28.8324 25.4129,29.1674 25.6979,29.6904 C25.7909,29.8724 25.9769,29.9864 26.1809,29.9874 L26.1849,29.9874 C26.3889,29.9864 26.5759,29.8724 26.6699,29.6904 C26.9549,29.1664 27.4959,28.8324 28.0919,28.8124 C28.4749,28.8234 28.8359,28.9894 29.0929,29.2734 C29.3499,29.5574 29.4809,29.9334 29.4539,30.3154 C29.4539,31.3594 28.4649,32.1854 26.8259,33.5534 C26.6209,33.7254 26.4059,33.9034 26.1849,34.0914 C25.9629,33.9034 25.7489,33.7254 25.5429,33.5534 C23.9039,32.1854 22.9149,31.3594 22.9149,30.3154 C22.8879,29.9334 23.0189,29.5574 23.2759,29.2734 C23.5329,28.9894 23.8939,28.8234 24.2769,28.8124 Z" id="Stroke-15" stroke="#FEFEFE" stroke-width="0.25"></path>
        </g>
    </g>
</svg>