<svg id="Ebene_1" data-name="Ebene 1" xmlns="http://www.w3.org/2000/svg" xmlns:xlink="http://www.w3.org/1999/xlink" viewBox="0 0 589.61 537.7"><defs><style>.cls-1,.cls-10,.cls-11,.cls-12,.cls-13,.cls-14,.cls-15,.cls-16,.cls-7,.cls-8,.cls-9{fill:none;}.cls-2{clip-path:url(#clip-path);}.cls-3{fill:#fff;}.cls-4{fill:#313366;}.cls-5{fill:#5c5784;}.cls-6{clip-path:url(#clip-path-2);}.cls-10,.cls-11,.cls-14,.cls-15,.cls-16,.cls-7{stroke:#fff;}.cls-11,.cls-12,.cls-13,.cls-7,.cls-8,.cls-9{stroke-linejoin:round;}.cls-7{stroke-width:5px;}.cls-12,.cls-13,.cls-8,.cls-9{stroke:#313366;}.cls-8{stroke-width:2.5px;}.cls-9{stroke-width:0.83px;}.cls-10,.cls-14,.cls-15{stroke-miterlimit:10;}.cls-11{stroke-width:5.86px;}.cls-12{stroke-width:2.93px;}.cls-13{stroke-width:0.98px;}.cls-14{stroke-width:0.11px;}.cls-15{stroke-width:0.14px;}.cls-16{stroke-miterlimit:8.64;stroke-width:1.03px;}</style><clipPath id="clip-path" transform="translate(12.42)"><rect class="cls-1" x="-1.97" width="564.09" height="490.92"/></clipPath><clipPath id="clip-path-2" transform="translate(12.42)"><path class="cls-1" d="M158.5,25.38a9.5,9.5,0,0,0-8.23,4.75L28.69,240.7a9.5,9.5,0,0,0,0,9.51L150.27,460.78a9.51,9.51,0,0,0,8.23,4.76H401.65a9.52,9.52,0,0,0,8.23-4.76L531.46,250.21a9.55,9.55,0,0,0,0-9.51L409.88,30.13a9.51,9.51,0,0,0-8.23-4.75Z"/></clipPath></defs><title>szenario</title><g class="cls-2"><path class="cls-3" d="M-.77,249.93a8.93,8.93,0,0,1,0-8.94L135.78,4.47A8.94,8.94,0,0,1,143.52,0H416.63a8.94,8.94,0,0,1,7.74,4.47L560.92,241a8.93,8.93,0,0,1,0,8.94L424.37,486.45a9,9,0,0,1-7.74,4.47H143.52a9,9,0,0,1-7.74-4.47Z" transform="translate(12.42)"/><path class="cls-4" d="M-.39,249.7l.39-.22a8,8,0,0,1,0-8L136.55,4.92a8.06,8.06,0,0,1,7-4H416.63a8.06,8.06,0,0,1,7,4L560.15,241.43a8,8,0,0,1,0,8L423.6,486a8.05,8.05,0,0,1-7,4H143.52a8.05,8.05,0,0,1-7-4L0,249.48l-.39.22-.38.23L135.78,486.44a8.93,8.93,0,0,0,7.74,4.48H416.63a9,9,0,0,0,7.74-4.48L560.92,249.93a8.93,8.93,0,0,0,0-8.94L424.37,4.47A8.94,8.94,0,0,0,416.63,0H143.52a8.92,8.92,0,0,0-7.74,4.47L-.77,241a8.93,8.93,0,0,0,0,8.94Z" transform="translate(12.42)"/><path class="cls-5" d="M402.39,25.38H159.25A9.52,9.52,0,0,0,151,30.13L29.44,240.7a9.5,9.5,0,0,0,0,9.51L151,460.78a9.5,9.5,0,0,0,8.24,4.76H402.39a9.5,9.5,0,0,0,8.24-4.76L532.2,250.21a9.5,9.5,0,0,0,0-9.51L410.63,30.13a9.52,9.52,0,0,0-8.24-4.75" transform="translate(12.42)"/></g><g class="cls-6"><path class="cls-4" d="M45,315.83s76.66-54.28,195.45-45.71,171.17-81.21,176.88-97.26,37.14-78.3,131.41-88.6S472.58,537.7,472.58,537.7l-485-17.07Z" transform="translate(12.42)"/></g><g class="cls-2"><path class="cls-3" d="M389.59,290.45h-36.1a2.67,2.67,0,0,0-2.31,1.33L333.13,323a2.64,2.64,0,0,0,0,2.66l18.05,31.2a2.67,2.67,0,0,0,2.31,1.33h36.1a2.67,2.67,0,0,0,2.31-1.33L410,325.64a2.64,2.64,0,0,0,0-2.66l-18.05-31.2a2.67,2.67,0,0,0-2.31-1.33" transform="translate(12.42)"/><path class="cls-7" d="M389.59,289.2h-36.1a3.91,3.91,0,0,0-3.39,2L332,322.35a4,4,0,0,0,0,3.92l18.06,31.19a3.91,3.91,0,0,0,3.39,2h36.1a3.92,3.92,0,0,0,3.39-2L411,326.27a4,4,0,0,0,0-3.92L393,291.15a3.93,3.93,0,0,0-3.39-1.95" transform="translate(12.42)"/><path class="cls-8" d="M389.59,290.45h-36.1a2.67,2.67,0,0,0-2.31,1.33L333.13,323a2.64,2.64,0,0,0,0,2.66l18.05,31.2a2.67,2.67,0,0,0,2.31,1.33h36.1a2.67,2.67,0,0,0,2.31-1.33L410,325.64a2.64,2.64,0,0,0,0-2.66l-18.05-31.2a2.67,2.67,0,0,0-2.31-1.33" transform="translate(12.42)"/><path class="cls-9" d="M389.59,287.12h-36.1a6,6,0,0,0-5.19,3l-18.06,31.2a6,6,0,0,0,0,6l18.06,31.2a6,6,0,0,0,5.19,3h36.1a6,6,0,0,0,5.19-3l18.06-31.2a6,6,0,0,0,0-6l-18.06-31.2a6,6,0,0,0-5.19-3" transform="translate(12.42)"/><path class="cls-4" d="M364.27,325.82l8.13-11.24c-.08-.05-.1-.08-.13-.08A20.1,20.1,0,0,0,364,316a1.12,1.12,0,0,0-.47.47,7.93,7.93,0,0,0-1,3.21,8.78,8.78,0,0,0,1.73,6.13m-1.79,2.49a11.86,11.86,0,0,1-2.83-9.76L351.34,325l8.58,6.82,2.56-3.53m-4.35,5.94-2.34-1.85-7.65-6.1a1.52,1.52,0,0,1,0-2.58c3.15-2.51,6.29-5,9.47-7.52a21.62,21.62,0,0,1,12-4.61,41.41,41.41,0,0,1,4.45.09.75.75,0,0,0,.75-.35c2-2.73,4-5.46,6-8.19a1.46,1.46,0,0,1,1.49-.65,1.48,1.48,0,0,1,1.22,1.09,1.59,1.59,0,0,1-.39,1.44l-4.78,6.56-14,19.3-7.84,10.77a3.24,3.24,0,0,1-.37.46,1.59,1.59,0,0,1-2.11.11,1.44,1.44,0,0,1-.22-2c.86-1.24,1.76-2.45,2.64-3.67l1.67-2.32" transform="translate(12.42)"/><path class="cls-10" d="M364.27,325.82l8.13-11.24c-.08-.05-.1-.08-.13-.08A20.1,20.1,0,0,0,364,316a1.12,1.12,0,0,0-.47.47,7.93,7.93,0,0,0-1,3.21A8.78,8.78,0,0,0,364.27,325.82Zm-1.79,2.49a11.86,11.86,0,0,1-2.83-9.76L351.34,325l8.58,6.82Zm-4.35,5.94-2.34-1.85-7.65-6.1a1.52,1.52,0,0,1,0-2.58c3.15-2.51,6.29-5,9.47-7.52a21.62,21.62,0,0,1,12-4.61,41.41,41.41,0,0,1,4.45.09.75.75,0,0,0,.75-.35c2-2.73,4-5.46,6-8.19a1.46,1.46,0,0,1,1.49-.65,1.48,1.48,0,0,1,1.22,1.09,1.59,1.59,0,0,1-.39,1.44l-4.78,6.56-14,19.3-7.84,10.77a3.24,3.24,0,0,1-.37.46,1.59,1.59,0,0,1-2.11.11,1.44,1.44,0,0,1-.22-2c.86-1.24,1.76-2.45,2.64-3.67Z" transform="translate(12.42)"/><path class="cls-4" d="M391.72,325l-8.3-6.62c0,.28,0,.41.05.54a12,12,0,0,1-12.54,13.59,15.69,15.69,0,0,1-2.44-.39,1.44,1.44,0,0,1-1.13-1.74,1.5,1.5,0,0,1,1.72-1.18,20.28,20.28,0,0,0,2.29.31,9,9,0,0,0,9.2-9.38,8.34,8.34,0,0,0-1.41-4.4,1.39,1.39,0,0,1-.09-1.65,1.53,1.53,0,0,1,1.68-.69,4.9,4.9,0,0,1,.79.33,31.68,31.68,0,0,1,6.24,4.28c2.36,1.9,4.73,3.78,7.09,5.67a1.55,1.55,0,0,1,0,2.69c-3.16,2.51-6.27,5.08-9.48,7.52a22.29,22.29,0,0,1-15.85,4.57,38.93,38.93,0,0,1-4.76-.85,1.53,1.53,0,0,1-1.27-2,1.59,1.59,0,0,1,2.15-1,20.16,20.16,0,0,0,14.43-1,27.15,27.15,0,0,0,5.74-3.87c1.85-1.49,3.72-3,5.58-4.46l.3-.27" transform="translate(12.42)"/><path class="cls-10" d="M391.72,325l-8.3-6.62c0,.28,0,.41.05.54a12,12,0,0,1-12.54,13.59,15.69,15.69,0,0,1-2.44-.39,1.44,1.44,0,0,1-1.13-1.74,1.5,1.5,0,0,1,1.72-1.18,20.28,20.28,0,0,0,2.29.31,9,9,0,0,0,9.2-9.38,8.34,8.34,0,0,0-1.41-4.4,1.39,1.39,0,0,1-.09-1.65,1.53,1.53,0,0,1,1.68-.69,4.9,4.9,0,0,1,.79.33,31.68,31.68,0,0,1,6.24,4.28c2.36,1.9,4.73,3.78,7.09,5.67a1.55,1.55,0,0,1,0,2.69c-3.16,2.51-6.27,5.08-9.48,7.52a22.29,22.29,0,0,1-15.85,4.57,38.93,38.93,0,0,1-4.76-.85,1.53,1.53,0,0,1-1.27-2,1.59,1.59,0,0,1,2.15-1,20.16,20.16,0,0,0,14.43-1,27.15,27.15,0,0,0,5.74-3.87c1.85-1.49,3.72-3,5.58-4.46Z" transform="translate(12.42)"/><path class="cls-3" d="M352.74,320.21a1.25,1.25,0,0,0,1.67,1.85l1.74-1.57a1.25,1.25,0,1,0-1.67-1.85Z" transform="translate(12.42)"/><path class="cls-3" d="M198.23,289.24H163.35a2.85,2.85,0,0,0-2.47,1.46L143.44,322a2.93,2.93,0,0,0,0,2.84l17.45,31.26a2.82,2.82,0,0,0,2.46,1.46h34.88a2.82,2.82,0,0,0,2.46-1.46l17.45-31.26a2.93,2.93,0,0,0,0-2.84L200.69,290.7a2.82,2.82,0,0,0-2.46-1.46" transform="translate(12.42)"/><path class="cls-11" d="M198.23,287.78H163.35A4.29,4.29,0,0,0,159.6,290l-17.44,31.26a4.42,4.42,0,0,0,0,4.26l17.45,31.27a4.28,4.28,0,0,0,3.74,2.21h34.88a4.29,4.29,0,0,0,3.74-2.21l17.45-31.27a4.42,4.42,0,0,0,0-4.26L202,290a4.29,4.29,0,0,0-3.74-2.2" transform="translate(12.42)"/><path class="cls-12" d="M198.23,289.24H163.35a2.85,2.85,0,0,0-2.47,1.46L143.44,322a2.93,2.93,0,0,0,0,2.84l17.45,31.26a2.82,2.82,0,0,0,2.46,1.46h34.88a2.82,2.82,0,0,0,2.46-1.46l17.45-31.26a2.93,2.93,0,0,0,0-2.84L200.69,290.7a2.82,2.82,0,0,0-2.46-1.46" transform="translate(12.42)"/><path class="cls-13" d="M198.23,285.33H163.35a6.73,6.73,0,0,0-5.88,3.47L140,320.06a6.87,6.87,0,0,0,0,6.64L157.47,358a6.75,6.75,0,0,0,5.88,3.46h34.88a6.76,6.76,0,0,0,5.88-3.46l17.44-31.27a6.87,6.87,0,0,0,0-6.64l-17.44-31.27a6.76,6.76,0,0,0-5.88-3.46" transform="translate(12.42)"/><path class="cls-4" d="M180.79,331.07a8.41,8.41,0,0,1-8.25-8.54.59.59,0,1,1,1.18,0,7.07,7.07,0,1,0,7.07-7.31,7.07,7.07,0,0,0-6.73,5.08.58.58,0,0,1-.75.39.62.62,0,0,1-.38-.77,8.47,8.47,0,0,1,2.95-4.25,8,8,0,0,1,4.91-1.68,8.55,8.55,0,0,1,0,17.08m1.42,4.77a.61.61,0,0,1-.59-.61V333.3a.6.6,0,0,1,.51-.6,10.1,10.1,0,0,0,8.3-7.78.6.6,0,0,1,.72-.45.62.62,0,0,1,.44.74,11.6,11.6,0,0,1-3.34,5.82,10.91,10.91,0,0,1-5.44,2.8v1.4a.61.61,0,0,1-.6.61m-1.42,10.85a2.06,2.06,0,0,1-2-2.09V343h-1a2.09,2.09,0,0,1,0-4.17h1v-5a11.44,11.44,0,0,1-9.08-11.3,11.64,11.64,0,0,1,1.75-6.18l-.51-.49-.4.47a2,2,0,0,1-2.85.13,2.16,2.16,0,0,1-.13-2.95l.44-.5-.65-.62v.13a2.07,2.07,0,0,1-.55,1.49,2,2,0,0,1-1.46.65,2,2,0,0,1-2-2l-.12-5.11a2.06,2.06,0,0,1,1.93-2.14l4.93-.21a2.08,2.08,0,0,1,.17,4.16h-.13l.61.59.59-.66a2,2,0,0,1,2.84-.13,2,2,0,0,1,.66,1.44,2.09,2.09,0,0,1-.52,1.5l-.62.7.54.52a10.81,10.81,0,0,1,13.2,0l4.1-4h-.13a2,2,0,0,1-1.4-.67,2.06,2.06,0,0,1-.53-1.5,2.08,2.08,0,0,1,.65-1.45,1.92,1.92,0,0,1,1.45-.54l4.93.21a2.06,2.06,0,0,1,1.93,2.14l-.12,5.11a2,2,0,0,1-2,2h-.05a2.06,2.06,0,0,1-2-2.14v-.13l-4.1,4a11.64,11.64,0,0,1,1.75,6.18.6.6,0,1,1-1.19,0,10.45,10.45,0,0,0-1.82-5.92.62.62,0,0,1,.08-.8l5.5-5.32a.6.6,0,0,1,1,.47l0,1.6a.85.85,0,0,0,.81.88h0a.85.85,0,0,0,.83-.84l.13-5.11a.85.85,0,0,0-.8-.88l-4.93-.22a.86.86,0,0,0-.07,1.72l1.54.07a.62.62,0,0,1,.38,1.06l-5.5,5.32a.58.58,0,0,1-.78,0,9.64,9.64,0,0,0-12.52,0,.57.57,0,0,1-.78,0l-1.34-1.3a.63.63,0,0,1,0-.86l1-1.14a.91.91,0,0,0,0-1.22.82.82,0,0,0-1.18.06l-1,1.12a.59.59,0,0,1-.85,0l-2.08-2a.62.62,0,0,1,.38-1.06l1.54-.07a.86.86,0,0,0-.07-1.72l-4.93.22a.85.85,0,0,0-.8.88l.13,5.11a.85.85,0,0,0,.83.84.87.87,0,0,0,.83-.88l0-1.6a.6.6,0,0,1,1-.47l2.11,2a.63.63,0,0,1,0,.86l-.84.95a.88.88,0,0,0,.06,1.21.81.81,0,0,0,1.17-.05l.81-.92a.59.59,0,0,1,.85,0l1.31,1.27a.64.64,0,0,1,.08.8,10.45,10.45,0,0,0-1.82,5.92,10.18,10.18,0,0,0,8.57,10.17.6.6,0,0,1,.51.6v6.13a.61.61,0,0,1-.59.61h-1.56a.86.86,0,0,0,0,1.72h1.56a.6.6,0,0,1,.59.61v2.23a.83.83,0,1,0,1.66,0v-2.23a.6.6,0,0,1,.59-.61h1.56a.86.86,0,0,0,0-1.72h-1.56a.61.61,0,0,1-.59-.61v-1.75a.6.6,0,1,1,1.19,0v1.13h1a2.09,2.09,0,0,1,0,4.17h-1v1.62a2.06,2.06,0,0,1-2,2.09" transform="translate(12.42)"/><path class="cls-14" d="M180.79,331.07a8.41,8.41,0,0,1-8.25-8.54.59.59,0,1,1,1.18,0,7.07,7.07,0,1,0,7.07-7.31,7.07,7.07,0,0,0-6.73,5.08.58.58,0,0,1-.75.39.62.62,0,0,1-.38-.77,8.47,8.47,0,0,1,2.95-4.25,8,8,0,0,1,4.91-1.68,8.55,8.55,0,0,1,0,17.08Zm1.42,4.77a.61.61,0,0,1-.59-.61V333.3a.6.6,0,0,1,.51-.6,10.1,10.1,0,0,0,8.3-7.78.6.6,0,0,1,.72-.45.62.62,0,0,1,.44.74,11.6,11.6,0,0,1-3.34,5.82,10.91,10.91,0,0,1-5.44,2.8v1.4A.61.61,0,0,1,182.21,335.84Zm-1.42,10.85a2.06,2.06,0,0,1-2-2.09V343h-1a2.09,2.09,0,0,1,0-4.17h1v-5a11.44,11.44,0,0,1-9.08-11.3,11.64,11.64,0,0,1,1.75-6.18l-.51-.49-.4.47a2,2,0,0,1-2.85.13,2.16,2.16,0,0,1-.13-2.95l.44-.5-.65-.62v.13a2.07,2.07,0,0,1-.55,1.49,2,2,0,0,1-1.46.65,2,2,0,0,1-2-2l-.12-5.11a2.06,2.06,0,0,1,1.93-2.14l4.93-.21a2.08,2.08,0,0,1,.17,4.16h-.13l.61.59.59-.66a2,2,0,0,1,2.84-.13,2,2,0,0,1,.66,1.44,2.09,2.09,0,0,1-.52,1.5l-.62.7.54.52a10.81,10.81,0,0,1,13.2,0l4.1-4h-.13a2,2,0,0,1-1.4-.67,2.06,2.06,0,0,1-.53-1.5,2.08,2.08,0,0,1,.65-1.45,1.92,1.92,0,0,1,1.45-.54l4.93.21a2.06,2.06,0,0,1,1.93,2.14l-.12,5.11a2,2,0,0,1-2,2h-.05a2.06,2.06,0,0,1-2-2.14v-.13l-4.1,4a11.64,11.64,0,0,1,1.75,6.18.6.6,0,1,1-1.19,0,10.45,10.45,0,0,0-1.82-5.92.62.62,0,0,1,.08-.8l5.5-5.32a.6.6,0,0,1,1,.47l0,1.6a.85.85,0,0,0,.81.88h0a.85.85,0,0,0,.83-.84l.13-5.11a.85.85,0,0,0-.8-.88l-4.93-.22a.86.86,0,0,0-.07,1.72l1.54.07a.62.62,0,0,1,.38,1.06l-5.5,5.32a.58.58,0,0,1-.78,0,9.64,9.64,0,0,0-12.52,0,.57.57,0,0,1-.78,0l-1.34-1.3a.63.63,0,0,1,0-.86l1-1.14a.91.91,0,0,0,0-1.22.82.82,0,0,0-1.18.06l-1,1.12a.59.59,0,0,1-.85,0l-2.08-2a.62.62,0,0,1,.38-1.06l1.54-.07a.86.86,0,0,0-.07-1.72l-4.93.22a.85.85,0,0,0-.8.88l.13,5.11a.85.85,0,0,0,.83.84.87.87,0,0,0,.83-.88l0-1.6a.6.6,0,0,1,1-.47l2.11,2a.63.63,0,0,1,0,.86l-.84.95a.88.88,0,0,0,.06,1.21.81.81,0,0,0,1.17-.05l.81-.92a.59.59,0,0,1,.85,0l1.31,1.27a.64.64,0,0,1,.08.8,10.45,10.45,0,0,0-1.82,5.92,10.18,10.18,0,0,0,8.57,10.17.6.6,0,0,1,.51.6v6.13a.61.61,0,0,1-.59.61h-1.56a.86.86,0,0,0,0,1.72h1.56a.6.6,0,0,1,.59.61v2.23a.83.83,0,1,0,1.66,0v-2.23a.6.6,0,0,1,.59-.61h1.56a.86.86,0,0,0,0-1.72h-1.56a.61.61,0,0,1-.59-.61v-1.75a.6.6,0,1,1,1.19,0v1.13h1a2.09,2.09,0,0,1,0,4.17h-1v1.62A2.06,2.06,0,0,1,180.79,346.69Z" transform="translate(12.42)"/><path class="cls-3" d="M294,290.45h-36.1a2.67,2.67,0,0,0-2.31,1.33l-18,31.2a2.64,2.64,0,0,0,0,2.66l18,31.2a2.67,2.67,0,0,0,2.31,1.33H294a2.67,2.67,0,0,0,2.31-1.33l18.05-31.2a2.64,2.64,0,0,0,0-2.66l-18.05-31.2a2.67,2.67,0,0,0-2.31-1.33" transform="translate(12.42)"/><path class="cls-7" d="M294,289.2h-36.1a3.91,3.91,0,0,0-3.39,2l-18.06,31.19a4,4,0,0,0,0,3.92l18.06,31.19a3.91,3.91,0,0,0,3.39,2H294a3.92,3.92,0,0,0,3.39-2l18.06-31.19a4,4,0,0,0,0-3.92l-18.06-31.2A3.93,3.93,0,0,0,294,289.2" transform="translate(12.42)"/><path class="cls-8" d="M294,290.45h-36.1a2.67,2.67,0,0,0-2.31,1.33l-18,31.2a2.64,2.64,0,0,0,0,2.66l18,31.2a2.67,2.67,0,0,0,2.31,1.33H294a2.67,2.67,0,0,0,2.31-1.33l18.05-31.2a2.64,2.64,0,0,0,0-2.66l-18.05-31.2a2.67,2.67,0,0,0-2.31-1.33" transform="translate(12.42)"/><path class="cls-9" d="M294,287.12h-36.1a6,6,0,0,0-5.19,3l-18.06,31.2a6,6,0,0,0,0,6l18.06,31.2a6,6,0,0,0,5.19,3H294a6,6,0,0,0,5.19-3l18.06-31.2a6,6,0,0,0,0-6l-18.06-31.2a6,6,0,0,0-5.19-3" transform="translate(12.42)"/><path class="cls-4" d="M279.68,336.68h-1.61v-2.13a.62.62,0,0,0-.62-.62.62.62,0,0,0-.62.62v2.76a.62.62,0,0,0,.62.62h2.23a.87.87,0,0,1,0,1.74h-2.23a.63.63,0,0,0-.62.63v3a.87.87,0,1,1-1.74,0v-3a.63.63,0,0,0-.62-.63h-2.23a.87.87,0,0,1,0-1.74h2.23a.62.62,0,0,0,.62-.62v-7.9a.62.62,0,0,0-.55-.62,12.2,12.2,0,1,1,10-20.73.63.63,0,0,0,.88,0,.61.61,0,0,0,0-.88A13.43,13.43,0,1,0,273.84,330v6.73h-1.6a2.12,2.12,0,0,0,0,4.24h1.6v2.34a2.12,2.12,0,1,0,4.23,0v-2.34h1.61a2.12,2.12,0,0,0,0-4.24" transform="translate(12.42)"/><path class="cls-15" d="M279.68,336.68h-1.61v-2.13a.62.62,0,0,0-.62-.62.62.62,0,0,0-.62.62v2.76a.62.62,0,0,0,.62.62h2.23a.87.87,0,0,1,0,1.74h-2.23a.63.63,0,0,0-.62.63v3a.87.87,0,1,1-1.74,0v-3a.63.63,0,0,0-.62-.63h-2.23a.87.87,0,0,1,0-1.74h2.23a.62.62,0,0,0,.62-.62v-7.9a.62.62,0,0,0-.55-.62,12.2,12.2,0,1,1,10-20.73.63.63,0,0,0,.88,0,.61.61,0,0,0,0-.88A13.43,13.43,0,1,0,273.84,330v6.73h-1.6a2.12,2.12,0,0,0,0,4.24h1.6v2.34a2.12,2.12,0,1,0,4.23,0v-2.34h1.61a2.12,2.12,0,0,0,0-4.24Z" transform="translate(12.42)"/><path class="cls-4" d="M276,325.88a9.21,9.21,0,0,1-9.2-9.21.63.63,0,0,0-1.25,0,10.47,10.47,0,1,0,.34-2.62.62.62,0,0,0,.44.76.63.63,0,0,0,.76-.45A9.2,9.2,0,1,1,276,325.88" transform="translate(12.42)"/><path class="cls-15" d="M276,325.88a9.21,9.21,0,0,1-9.2-9.21.63.63,0,0,0-1.25,0,10.47,10.47,0,1,0,.34-2.62.62.62,0,0,0,.44.76.63.63,0,0,0,.76-.45A9.2,9.2,0,1,1,276,325.88Z" transform="translate(12.42)"/><path class="cls-4" d="M287.1,309.17a.62.62,0,0,0-.86-.17.63.63,0,0,0-.17.87,12.19,12.19,0,0,1-1.88,15.8,13,13,0,0,1-1.89,1.42,12,12,0,0,1-4.91,1.69.63.63,0,0,0-.55.62v2.65a.63.63,0,0,0,.62.63.62.62,0,0,0,.62-.63V330a13.41,13.41,0,0,0,4.87-1.8,14.29,14.29,0,0,0,2.08-1.56,13.42,13.42,0,0,0,2.07-17.42" transform="translate(12.42)"/><path class="cls-15" d="M287.1,309.17a.62.62,0,0,0-.86-.17.63.63,0,0,0-.17.87,12.19,12.19,0,0,1-1.88,15.8,13,13,0,0,1-1.89,1.42,12,12,0,0,1-4.91,1.69.63.63,0,0,0-.55.62v2.65a.63.63,0,0,0,.62.63.62.62,0,0,0,.62-.63V330a13.41,13.41,0,0,0,4.87-1.8,14.29,14.29,0,0,0,2.08-1.56,13.42,13.42,0,0,0,2.07-17.42Z" transform="translate(12.42)"/><path class="cls-16" d="M420.73,215.62v9.26H434.3c-1.83,4.37-6.13,6.59-11.15,6.59-8.16,0-12.2-5.87-12.2-13.18,0-8,4.89-13.37,12.46-13.37,4.82,0,8.54,2.15,10.37,5.81h11.87c-2.48-9.59-11-16.38-22.24-16.38-13.7,0-23.68,10.12-23.68,23.81s10,23.55,22.57,23.55c7.17,0,12.33-3.19,14.35-7.24v6.39h9.46V215.62ZM382.16,195.2v19.12L383,224,365.91,195.2H353.32v45.66h11.09V221.75l-.91-9.65,17.15,28.76h12.59V195.2Zm-48.54,0v26.36c0,7.17-3.2,9.58-8,9.58s-8-2.41-8-9.58V195.2H306.42l.06,27c0,13,8.22,19.5,19.18,19.5s19.18-6.52,19.18-19.5l.06-27Zm-47,0v17.09H269.07V195.2H258v45.66h11.09v-18h17.54v18H297.7V195.2Zm-57.09,46.51c11.22,0,19.76-7,22.24-17H239.89a10.9,10.9,0,0,1-10.37,6.39c-7.57,0-12.46-5.47-12.46-13.11s4.89-13.11,12.46-13.11a10.92,10.92,0,0,1,10.37,6.39h11.87c-2.48-9.91-11-17-22.24-17-13.7,0-23.68,10.25-23.68,23.68S215.82,241.71,229.52,241.71ZM188.38,195.2v26.36c0,7.17-3.19,9.58-8,9.58s-7.95-2.41-7.95-9.58V195.2H161.18l.07,27c0,13,8.22,19.5,19.17,19.5s19.18-6.52,19.18-19.5l.07-27ZM139,230.3h-9.26v-7.57H139c3.72,0,4.63,1.24,4.63,3.78C143.62,228.86,142.71,230.3,139,230.3Zm3.07-21.14c0,2.42-1.37,3.46-3.85,3.46h-8.48v-6.85h8C140.43,205.77,142.06,206.36,142.06,209.16Zm5.87,7a9.2,9.2,0,0,0,5.35-8.94c0-8.08-6.07-12-14-12H118.64v45.66h20.61c9.13,0,15.59-4.76,15.59-13.37C154.84,222.34,152.62,217.84,147.93,216.14Z" transform="translate(12.42)"/><path class="cls-16" d="M414.3,157.32H391.86v10.57H414.3Zm-29-10.57V136.18H353.87v45.67h31.44V171.28H365V164.1h18.53V153.54H365v-6.79ZM334,136.18V155.3l.85,9.65-17.09-28.77H305.16v45.67h11.09V162.73l-.92-9.65,17.16,28.77h12.59V136.18ZM285.4,181.85h11.09V136.18H285.4Zm-23.1-10.57v-35.1H251.21v45.67h29.61V171.28Zm-31-35.1V155.3l.85,9.65-17.09-28.77H202.49v45.67h11.09V162.73l-.91-9.65,17.15,28.77h12.59V136.18ZM172.1,145.9c7.31,0,12.66,5.48,12.66,13.12s-5.35,13.11-12.66,13.11-12.65-5.48-12.65-13.11S164.8,145.9,172.1,145.9Zm0-10.56c-13.5,0-23.87,10.24-23.87,23.68s10.37,23.67,23.87,23.67S196,172.45,196,159,185.6,135.34,172.1,135.34Z" transform="translate(12.42)"/><path class="cls-3" d="M422.93,213.42v9.26H436.5c-1.83,4.37-6.13,6.59-11.15,6.59-8.16,0-12.2-5.87-12.2-13.18,0-8,4.89-13.37,12.46-13.37,4.82,0,8.54,2.15,10.37,5.81h11.87c-2.48-9.59-11-16.38-22.24-16.38-13.7,0-23.68,10.11-23.68,23.81s10,23.55,22.57,23.55c7.17,0,12.33-3.2,14.35-7.24v6.39h9.46V213.42ZM384.36,193v19.11l.84,9.66L368.11,193H355.52v45.66h11.09V219.55l-.91-9.65,17.16,28.76h12.59V193Zm-48.54,0v26.35c0,7.18-3.2,9.59-8,9.59s-8-2.41-8-9.59V193H308.62l.06,27c0,13,8.22,19.5,19.18,19.5S347,233,347,220l.06-27Zm-47,0v17.09H271.27V193H260.18v45.66h11.09v-18h17.54v18H299.9V193Zm-57.09,46.51c11.22,0,19.76-7,22.24-17H242.09a10.9,10.9,0,0,1-10.37,6.39c-7.57,0-12.46-5.48-12.46-13.11s4.89-13.11,12.46-13.11a10.9,10.9,0,0,1,10.37,6.39H254c-2.48-9.91-11-17-22.24-17-13.7,0-23.68,10.24-23.68,23.68s10,23.68,23.68,23.68M190.58,193v26.35c0,7.18-3.19,9.59-8,9.59s-8-2.41-8-9.59V193H163.38l.07,27c0,13,8.22,19.5,19.18,19.5S201.8,233,201.8,220l.07-27Zm-49.39,35.1h-9.26v-7.57h9.26c3.72,0,4.63,1.24,4.63,3.78,0,2.35-.91,3.79-4.63,3.79M144.26,207c0,2.41-1.37,3.46-3.85,3.46h-8.48v-6.85h8c2.68,0,4.31.59,4.31,3.39m5.87,7a9.2,9.2,0,0,0,5.35-8.94c0-8.08-6.07-12-14-12H120.84v45.66h20.61c9.14,0,15.59-4.76,15.59-13.37,0-5.15-2.21-9.65-6.91-11.35" transform="translate(12.42)"/><path class="cls-3" d="M416.5,155.12H394.06v10.57H416.5Zm-29-10.57V134H356.07v45.66h31.44V169.08H367.16V161.9h18.53V151.33H367.16v-6.78ZM336.19,134V153.1l.85,9.65L320,134H307.36v45.66h11.09V160.53l-.92-9.65,17.16,28.76h12.59V134ZM287.6,179.64h11.09V134H287.6Zm-23.1-10.56V134H253.41v45.66H283V169.08Zm-31-35.1V153.1l.84,9.65L217.28,134H204.69v45.66h11.09V160.53l-.91-9.65L232,179.64h12.59V134ZM174.3,143.7c7.31,0,12.66,5.48,12.66,13.11s-5.35,13.12-12.66,13.12-12.65-5.48-12.65-13.12S167,143.7,174.3,143.7m0-10.56c-13.5,0-23.87,10.24-23.87,23.67s10.37,23.68,23.87,23.68,23.88-10.24,23.88-23.68-10.37-23.67-23.88-23.67" transform="translate(12.42)"/></g></svg>